{
.appVersion = "3129";
.formatVersion = 3;
DisplayStrings = (
"Łłø",
"ĦLHLHHŁłLl VOLYMYLYÄIATWVO WTŦłøØ
ooEłouélolonnołolluwłwe",
"wydajesz pomoże udziału steve urocze trzymasz śmiesz tygodni rano sok sprawdźmy przyjęcie brawo lesie powinni lodu gdybyśmy napijesz jakiejś mieć waszą własną kurewsko wyspę pytam pokaż zaprosić jen środka mózg"
);
axes = (
{
name = Weight;
tag = wght;
}
);
customParameters = (
{
name = "Axis Mappings";
value = {
wght = {
400 = 400;
500 = 518;
600 = 626;
700 = 700;
};
};
},
{
name = fsType;
value = (
);
},
{
name = "Use Line Breaks";
value = 1;
},
{
name = "Use Typo Metrics";
value = 1;
},
{
name = "Variable Font Origin";
value = "6DBC133B-A4A9-4EFF-965F-6B79E3B68C3E";
}
);
date = "2022-08-02 06:29:05 +0000";
familyName = Finlandica;
featurePrefixes = (
{
automatic = 1;
code = "languagesystem DFLT dflt;

languagesystem latn dflt;
languagesystem latn AZE;
languagesystem latn CRT;
languagesystem latn KAZ;
languagesystem latn TAT;
languagesystem latn TRK;
languagesystem latn ROM;
languagesystem latn MOL;
languagesystem latn CAT;
";
name = Languagesystems;
}
);
features = (
{
automatic = 1;
code = "feature locl;
feature sups;
feature numr;
feature dnom;
feature frac;
feature ordn;
feature pnum;
feature tnum;
feature case;
feature ss01;
";
tag = aalt;
},
{
automatic = 1;
code = "lookup ccmp_Other_1 {
	@CombiningTopAccents = [acutecomb brevecomb caroncomb circumflexcomb commaturnedabovecomb dieresiscomb dotaccentcomb gravecomb hungarumlautcomb macroncomb ringcomb tildecomb];
	@CombiningNonTopAccents = [cedillacomb ogonekcomb slashlongcomb slashshortcomb strokelongcomb strokeshortcomb];
	sub [i j]' @CombiningTopAccents by [idotless jdotless];
	sub [i j]' @CombiningNonTopAccents @CombiningTopAccents by [idotless jdotless];
} ccmp_Other_1;

lookup ccmp_latn_1 {
	sub fi by f i;
	sub fl by f l;
} ccmp_latn_1;

script latn;
lookup ccmp_latn_1;
";
tag = ccmp;
},
{
automatic = 1;
code = "lookup locl_latn_0 {
	script latn;
	language AZE;

glyphs = (
{
color = 6;
glyphname = A;
kernLeft = A;
kernRight = A;
lastChange = "2022-04-29 11:57:51 +0000";
layers = (
{
anchors = (
{
name = bottom;
pos = (431,0);
},
{
name = ogonek;
pos = (590,0);
},
{
name = top;
pos = (310,700);
}
);
layerId = "BE73C5E5-17BA-4B8B-9704-EF1C804AF4CB";
metricRight = "=V";
shapes = (
{
closed = 1;
nodes = (
(189,0,l),
(294,497,l),
(301,560,ls),
(302,572,o),
(318,572,o),
(319,560,cs),
(326,497,l),
(431,0,l),
(590,0,l),
(420,700,l),
(200,700,l),
(30,0,l)
);
},
{
closed = 1;
nodes = (
(413,162,l),
(383,292,l),
(236,292,l),
(207,162,l)
);
},
{
closed = 1;
nodes = (
(195,570,l),
(215,700,l),
(95,700,l),
(95,570,l)
);
}
);
width = 610;
},
{
anchors = (
{
name = bottom;
pos = (294,0);
},
{
name = ogonek;
pos = (546,0);
},
{
name = top;
pos = (283,670);
}
);
layerId = "6DBC133B-A4A9-4EFF-965F-6B79E3B68C3E";
metricRight = "=V";
shapes = (
{
closed = 1;
nodes = (
(115,0,l),
(273,574,l),
(282,627,ls),
(283,635,o),
(294,635,o),
(295,627,cs),
(303,574,l),
(461,0,l),
(546,0,l),
(347,700,l),
(227,700,l),
(30,0,l)
);
},
{
closed = 1;
nodes = (
(438,187,l),
(416,261,l),
(160,261,l),
(138,187,l)
);
},
{
closed = 1;
nodes = (
(254,627,l),
(254,700,l),
(113,700,l),
(113,627,l)
);
}
);
width = 566;
}
);
metricRight = V;
unicode = 65;
userData = {
com.schriftgestaltung.Glyphs.ColorIndex = 3;
com.schriftgestaltung.Glyphs.layer.rightMetricsKey = "==V";
com.schriftgestaltung.Glyphs.rightMetricsKey = V;
};
},
{
color = 4;
glyphname = A.ss01;
kernLeft = A.ss01;
kernRight = A.ss01;
lastChange = "2022-05-17 15:15:51 +0000";
layers = (
{
anchors = (
{
name = bottom;
pos = (305,0);
},
{
name = ogonek;
pos = (590,0);
},
{
name = top;
pos = (305,700);
}
);
layerId = "BE73C5E5-17BA-4B8B-9704-EF1C804AF4CB";
metricLeft = "=A";
metricRight = "=A";
shapes = (
{
closed = 1;
nodes = (
(189,0,l),
(223,162,l),
(397,162,l),
(431,0,l),
(590,0,l),
(420,700,l),
(200,700,l),
(30,0,l)
);
},
{
closed = 1;
nodes = (
(294,487,l),
(301,563,ls),
(302,574,o),
(318,574,o),
(319,563,cs),
(326,487,l),
(367,292,l),
(252,292,l)
);
}
);
width = 610;
},
{
anchors = (
{
name = bottom;
pos = (283,0);
},
{
name = ogonek;
pos = (546,0);
},
{
name = top;
pos = (283,670);
}
);
layerId = "6DBC133B-A4A9-4EFF-965F-6B79E3B68C3E";
metricLeft = "=A";
metricRight = "=A";
shapes = (
{
closed = 1;
nodes = (
(115,0,l),
(166,187,l),
(410,187,l),
(461,0,l),
(546,0,l),
(351,700,l),
(224,700,l),
(30,0,l)
);
},
{
closed = 1;
nodes = (
(273,574,l),
(282,627,l),
(283,635,o),
(294,635,o),
(295,627,cs),
(303,574,l),
(389,261,l),
(187,261,l)
);
}
);
width = 566;
}
);
metricLeft = A;
metricRight = A;
userData = {
com.schriftgestaltung.Glyphs.layer.leftMetricsKey = "==A";
com.schriftgestaltung.Glyphs.layer.rightMetricsKey = "==A";
com.schriftgestaltung.Glyphs.leftMetricsKey = A;
com.schriftgestaltung.Glyphs.rightMetricsKey = A;
};
},
{
color = 6;
glyphname = AE;
kernLeft = A;
kernRight = E;
lastChange = "2022-04-29 11:57:51 +0000";
layers = (
{
anchors = (
{
name = bottom;
pos = (435,0);
},
{
name = top;
pos = (435,700);
}
);
layerId = "BE73C5E5-17BA-4B8B-9704-EF1C804AF4CB";
shapes = (
{
closed = 1;
nodes = (
(189,0,l),
(223,162,l),
(390,162,l),
(390,0,l),
(820,0,l),
(820,140,l),
(535,140,l),
(535,285,l),
(803,285,l),
(803,415,l),
(535,415,l),
(535,565,l),
(820,565,l),
(820,700,l),
(95,700,l),
(95,565,l),
(167,565,l),
(30,0,l)
);
},
{
closed = 1;
nodes = (
(309,565,l),
(390,565,l),
(390,292,l),
(251,292,l)
);
}
);
width = 870;
},
{
anchors = (
{
name = bottom;
pos = (425,0);
},
{
name = top;
pos = (425,700);
}
);
layerId = "6DBC133B-A4A9-4EFF-965F-6B79E3B68C3E";
shapes = (
{
closed = 1;
nodes = (
(115,0,l),
(166,187,l),
(386,187,l),
(386,0,l),
(789,0,l),
(789,78,l),
(464,78,l),
(464,311,l),
(772,311,l),
(772,389,l),
(464,389,l),
(464,622,l),
(789,622,l),
(789,700,l),
(113,700,l),
(113,622,l),
(205,622,l),
(30,0,l)
);
},
{
closed = 1;
nodes = (
(286,622,l),
(386,622,l),
(386,261,l),
(187,261,l)
);
}
);
width = 849;
}
);
metricLeft = A;
metricRight = E;
unicode = 198;
userData = {
com.schriftgestaltung.Glyphs.leftMetricsKey = A;
com.schriftgestaltung.Glyphs.rightMetricsKey = E;
};
},
{
color = 4;
glyphname = AE.ss01;
kernLeft = A;
kernRight = E;
lastChange = "2022-05-17 15:42:22 +0000";
layers = (
{
anchors = (
{
name = bottom;
pos = (435,0);
},
{
name = top;
pos = (435,700);
}
);
layerId = "BE73C5E5-17BA-4B8B-9704-EF1C804AF4CB";
shapes = (
{
closed = 1;
nodes = (
(189,0,l),
(223,162,l),
(390,162,l),
(390,0,l),
(820,0,l),
(820,140,l),
(535,140,l),
(535,285,l),
(803,285,l),
(803,415,l),
(535,415,l),
(535,565,l),
(820,565,l),
(820,700,l),
(200,700,l),
(30,0,l)
);
},
{
closed = 1;
nodes = (
(309,565,l),
(390,565,l),
(390,292,l),
(251,292,l)
);
}
);
width = 870;
},
{
anchors = (
{
name = bottom;
pos = (425,0);
},
{
name = top;
pos = (425,700);
}
);
layerId = "6DBC133B-A4A9-4EFF-965F-6B79E3B68C3E";
shapes = (
{
closed = 1;
nodes = (
(115,0,l),
(166,187,l),
(386,187,l),
(386,0,l),
(789,0,l),
(789,78,l),
(464,78,l),
(464,311,l),
(772,311,l),
(772,389,l),
(464,389,l),
(464,622,l),
(789,622,l),
(789,700,l),
(227,700,l),
(30,0,l)
);
},
{
closed = 1;
nodes = (
(286,622,l),
(386,622,l),
(386,261,l),
(187,261,l)
);
}
);
width = 849;
}
);
metricLeft = A;
metricRight = E;
userData = {
com.schriftgestaltung.Glyphs.leftMetricsKey = A;
com.schriftgestaltung.Glyphs.rightMetricsKey = E;
};
},
{
color = 6;
glyphname = B;
kernLeft = H;
kernRight = B;
lastChange = "2022-04-29 11:57:51 +0000";
layers = (
{
anchors = (
{
name = bottom;
pos = (296,0);
},
{
name = top;
pos = (296,700);
}
);
layerId = "BE73C5E5-17BA-4B8B-9704-EF1C804AF4CB";
metricLeft = "=H";
shapes = (
{
closed = 1;
nodes = (
(329,0,ls),
(471,0,o),
(552,72,o),
(552,198,cs),
(552,281,o),
(513,341,o),
(445,362,c),
(501,389,o),
(533,442,o),
(533,509,cs),
(533,631,o),
(451,700,o),
(309,700,cs),
(70,700,l),
(70,0,l)
);
},
{
closed = 1;
nodes = (
(215,285,l),
(329,285,ls),
(379,285,o),
(407,252,o),
(407,205,cs),
(407,156,o),
(379,130,o),
(329,130,cs),
(215,130,l)
);
},
{
closed = 1;
nodes = (
(215,570,l),
(309,570,ls),
(360,570,o),
(389,543,o),
(389,495,cs),
(389,448,o),
(360,415,o),
(309,415,cs),
(215,415,l)
);
}
);
width = 592;
},
{
anchors = (
{
name = bottom;
pos = (282,0);
},
{
name = top;
pos = (282,670);
}
);
layerId = "6DBC133B-A4A9-4EFF-965F-6B79E3B68C3E";
metricLeft = "=H";
shapes = (
{
closed = 1;
nodes = (
(307,0,ls),
(437,0,o),
(513,69,o),
(513,190,cs),
(513,269,o),
(471,331,o),
(404,355,c),
(462,382,o),
(499,436,o),
(499,510,cs),
(499,631,o),
(428,700,o),
(307,700,cs),
(90,700,l),
(90,0,l)
);
},
{
closed = 1;
nodes = (
(168,316,l),
(308,316,ls),
(389,316,o),
(435,269,o),
(435,190,cs),
(435,115,o),
(389,70,o),
(308,70,cs),
(168,70,l)
);
},
{
closed = 1;
nodes = (
(168,630,l),
(308,630,ls),
(380,630,o),
(421,584,o),
(421,510,cs),
(421,432,o),
(380,386,o),
(308,386,cs),
(168,386,l)
);
}
);
width = 563;
}
);
metricLeft = H;
unicode = 66;
userData = {
com.schriftgestaltung.Glyphs.ColorIndex = 3;
com.schriftgestaltung.Glyphs.layer.leftMetricsKey = "==H";
com.schriftgestaltung.Glyphs.leftMetricsKey = H;
};
},
{
color = 6;
glyphname = C;
kernLeft = O;
kernRight = C;
lastChange = "2022-04-29 11:57:51 +0000";
layers = (
{
anchors = (
{
name = bottom;
pos = (270,0);
},
{
name = top;
pos = (300,700);
}
);
layerId = "BE73C5E5-17BA-4B8B-9704-EF1C804AF4CB";
metricLeft = "=O";
shapes = (
{
closed = 1;
nodes = (
(384,-12,o),
(426,6,o),
(474,40,c),
(427,165,l),
(395,145,o),
(368,129,o),
(320,129,cs),
(255,128,o),
(216,164,o),
(210,226,cs),
(207,274,o),
(205,309,o),
(205,350,cs),
(205,391,o),
(207,427,o),
(210,474,cs),
(215,534,o),
(258,572,o),
(327,572,cs),
(370,572,o),
(394,563,o),
(430,537,c),
(473,656,l),
(423,693,o),
(378,712,o),
(310,712,cs),
(166,712,o),
(60,618,o),
(50,482,cs),
(47,443,o),
(45,392,o),
(45,350,cs),
(45,308,o),
(47,257,o),
(50,218,cs),
(60,82,o),
(170,-12,o),
(320,-12,cs)
);
}
);
width = 504;
},
{
anchors = (
{
name = bottom;
pos = (302,0);
},
{
name = top;
pos = (302,670);
}
);
layerId = "6DBC133B-A4A9-4EFF-965F-6B79E3B68C3E";
metricLeft = "=O";
shapes = (
{
closed = 1;
nodes = (
(360,-12,o),
(416,9,o),
(463,49,c),
(438,119,l),
(398,84,o),
(352,66,o),
(303,66,cs),
(207,66,o),
(153,120,o),
(147,224,cs),
(144,272,o),
(142,308,o),
(142,350,cs),
(142,392,o),
(144,428,o),
(147,476,cs),
(154,580,o),
(207,634,o),
(303,634,cs),
(352,634,o),
(398,616,o),
(438,581,c),
(463,651,l),
(416,691,o),
(360,712,o),
(303,712,cs),
(163,712,o),
(78,637,o),
(66,486,cs),
(63,447,o),
(60,392,o),
(60,350,cs),
(60,308,o),
(63,253,o),
(66,214,cs),
(78,63,o),
(163,-12,o),
(303,-12,cs)
);
}
);
width = 503;
}
);
metricLeft = O;
unicode = 67;
userData = {
com.schriftgestaltung.Glyphs.ColorIndex = 3;
com.schriftgestaltung.Glyphs.layer.leftMetricsKey = "==O";
com.schriftgestaltung.Glyphs.leftMetricsKey = O;
};
},
{
color = 6;
glyphname = D;
kernLeft = H;
kernRight = O;
lastChange = "2022-04-29 11:57:51 +0000";
layers = (
{
anchors = (
{
name = bottom;
pos = (301,0);
},
{
name = center;
pos = (150,350);
},
{
name = top;
pos = (301,700);
}
);
layerId = "BE73C5E5-17BA-4B8B-9704-EF1C804AF4CB";
metricLeft = "=H";
metricRight = "=O";
shapes = (
{
closed = 1;
nodes = (
(274,0,ls),
(448,0,o),
(541,89,o),
(552,230,cs),
(555,266,o),
(557,311,o),
(557,350,cs),
(557,389,o),
(555,434,o),
(552,470,cs),
(540,611,o),
(448,700,o),
(274,700,cs),
(70,700,l),
(70,0,l)
);
},
{
closed = 1;
nodes = (
(230,570,l),
(274,570,ls),
(360,570,o),
(399,517,o),
(405,449,cs),
(409,408,o),
(409,385,o),
(409,350,cs),
(409,315,o),
(409,291,o),
(405,251,cs),
(398,183,o),
(360,130,o),
(274,130,cs),
(230,130,l)
);
}
);
width = 602;
},
{
anchors = (
{
name = bottom;
pos = (297,0);
},
{
name = center;
pos = (127,350);
},
{
name = top;
pos = (297,670);
}
);
layerId = "6DBC133B-A4A9-4EFF-965F-6B79E3B68C3E";
metricLeft = "=H";
metricRight = "=O";
shapes = (
{
closed = 1;
nodes = (
(272,0,ls),
(433,0,o),
(517,89,o),
(528,230,cs),
(531,266,o),
(533,311,o),
(533,350,cs),
(533,389,o),
(531,434,o),
(528,470,cs),
(516,611,o),
(433,700,o),
(272,700,cs),
(90,700,l),
(90,0,l)
);
},
{
closed = 1;
nodes = (
(170,627,l),
(272,627,ls),
(389,628,o),
(439,558,o),
(447,461,cs),
(451,416,o),
(451,389,o),
(451,350,cs),
(451,311,o),
(451,284,o),
(447,239,cs),
(439,142,o),
(389,72,o),
(272,72,cs),
(170,72,l)
);
}
);
width = 593;
}
);
metricLeft = H;
metricRight = O;
unicode = 68;
userData = {
com.schriftgestaltung.Glyphs.ColorIndex = 3;
com.schriftgestaltung.Glyphs.layer.leftMetricsKey = "==H";
com.schriftgestaltung.Glyphs.layer.rightMetricsKey = "==O";
com.schriftgestaltung.Glyphs.leftMetricsKey = H;
com.schriftgestaltung.Glyphs.rightMetricsKey = O;
};
},
{
color = 3;
glyphname = Eth;
kernLeft = H;
kernRight = O;
lastChange = "2022-04-29 11:57:51 +0000";
layers = (
{
layerId = "BE73C5E5-17BA-4B8B-9704-EF1C804AF4CB";
shapes = (
{
closed = 1;
nodes = (
(340,293,l),
(340,407,l),
(0,407,l),
(0,293,l)
);
},
{
pos = (20,0);
ref = D;
}
);
width = 622;
},
{
layerId = "6DBC133B-A4A9-4EFF-965F-6B79E3B68C3E";
shapes = (
{
closed = 1;
nodes = (
(291,315,l),
(291,384,l),
(0,384,l),
(0,315,l)
);
},
{
pos = (20,0);
ref = D;
}
);
width = 613;
}
);
metricRight = O;
unicode = 208;
userData = {
com.schriftgestaltung.Glyphs.rightMetricsKey = O;
};
},
{
color = 6;
glyphname = E;
kernLeft = H;
kernRight = E;
lastChange = "2022-04-29 11:57:51 +0000";
layers = (
{
anchors = (
{
name = bottom;
pos = (295,0);
},
{
name = ogonek;
pos = (500,0);
},
{
name = top;
pos = (295,700);
},
{
name = topleft;
pos = (20,700);
}
);
layerId = "BE73C5E5-17BA-4B8B-9704-EF1C804AF4CB";
metricLeft = "=H";
shapes = (
{
closed = 1;
nodes = (
(500,0,l),
(500,140,l),
(215,140,l),
(215,285,l),
(483,285,l),
(483,415,l),
(215,415,l),
(215,560,l),
(500,560,l),
(500,700,l),
(70,700,l),
(70,0,l)
);
}
);
width = 550;
},
{
anchors = (
{
name = bottom;
pos = (297,0);
},
{
name = ogonek;
pos = (493,0);
},
{
name = top;
pos = (297,670);
},
{
name = topleft;
pos = (20,700);
}
);
layerId = "6DBC133B-A4A9-4EFF-965F-6B79E3B68C3E";
metricLeft = "=H";
shapes = (
{
closed = 1;
nodes = (
(493,0,l),
(493,78,l),
(168,78,l),
(168,311,l),
(476,311,l),
(476,389,l),
(168,389,l),
(168,622,l),
(493,622,l),
(493,700,l),
(90,700,l),
(90,0,l)
);
}
);
width = 553;
}
);
metricLeft = H;
unicode = 69;
userData = {
com.schriftgestaltung.Glyphs.ColorIndex = 3;
com.schriftgestaltung.Glyphs.layer.leftMetricsKey = "==H";
com.schriftgestaltung.Glyphs.leftMetricsKey = H;
};
},
{
color = 6;
glyphname = F;
kernLeft = H;
kernRight = F;
lastChange = "2022-04-29 11:57:51 +0000";
layers = (
{
anchors = (
{
name = bottom;
pos = (265,0);
},
{
name = top;
pos = (265,700);
}
);
layerId = "BE73C5E5-17BA-4B8B-9704-EF1C804AF4CB";
metricLeft = "=H";
shapes = (
{
closed = 1;
nodes = (
(230,0,l),
(230,280,l),
(483,280,l),
(483,420,l),
(230,420,l),
(230,560,l),
(500,560,l),
(500,700,l),
(70,700,l),
(70,0,l)
);
}
);
width = 530;
},
{
anchors = (
{
name = bottom;
pos = (261,0);
},
{
name = top;
pos = (261,670);
}
);
layerId = "6DBC133B-A4A9-4EFF-965F-6B79E3B68C3E";
metricLeft = "=H";
shapes = (
{
closed = 1;
nodes = (
(173,0,l),
(173,311,l),
(456,311,l),
(456,389,l),
(173,389,l),
(173,622,l),
(482,622,l),
(482,700,l),
(90,700,l),
(90,0,l)
);
}
);
width = 522;
}
);
metricLeft = H;
unicode = 70;
userData = {
com.schriftgestaltung.Glyphs.ColorIndex = 3;
com.schriftgestaltung.Glyphs.layer.leftMetricsKey = "==H";
com.schriftgestaltung.Glyphs.leftMetricsKey = H;
};
},
{
color = 6;
glyphname = G;
kernLeft = O;
kernRight = G;
lastChange = "2022-04-29 11:57:51 +0000";
layers = (
{
anchors = (
{
name = bottom;
pos = (304,0);
},
{
name = top;
pos = (294,700);
}
);
layerId = "BE73C5E5-17BA-4B8B-9704-EF1C804AF4CB";
metricLeft = "=O";
shapes = (
{
closed = 1;
nodes = (
(410,-8,o),
(475,14,o),
(516,44,c),
(516,280,l),
(578,280,l),
(578,420,l),
(318,420,l),
(318,280,l),
(386,280,l),
(386,138,l),
(360,132,o),
(332,130,o),
(304,130,cs),
(241,131,o),
(203,165,o),
(198,230,cs),
(195,276,o),
(193,310,o),
(193,350,cs),
(193,390,o),
(195,425,o),
(198,461,cs),
(205,531,o),
(240,572,o),
(326,572,cs),
(381,572,o),
(431,563,o),
(473,526,c),
(522,651,l),
(468,691,o),
(400,712,o),
(326,712,cs),
(171,712,o),
(68,634,o),
(51,486,cs),
(47,447,o),
(45,392,o),
(45,350,cs),
(45,308,o),
(48,253,o),
(51,214,cs),
(63,67,o),
(155,-12,o),
(314,-10,cs)
);
}
);
width = 598;
},
{
anchors = (
{
name = bottom;
pos = (300,0);
},
{
name = top;
pos = (300,670);
}
);
layerId = "6DBC133B-A4A9-4EFF-965F-6B79E3B68C3E";
metricLeft = "=O";
shapes = (
{
closed = 1;
nodes = (
(395,-12,o),
(446,7,o),
(496,42,c),
(496,311,l),
(570,311,l),
(570,389,l),
(332,389,l),
(332,311,l),
(413,311,l),
(413,84,l),
(395,72,o),
(352,66,o),
(315,66,cs),
(211,66,o),
(153,126,o),
(147,224,cs),
(144,272,o),
(142,308,o),
(142,350,cs),
(142,392,o),
(144,428,o),
(147,476,cs),
(154,584,o),
(215,634,o),
(319,634,cs),
(382,634,o),
(423,618,o),
(468,580,c),
(494,651,l),
(450,690,o),
(388,712,o),
(319,712,cs),
(171,712,o),
(80,641,o),
(65,486,cs),
(62,447,o),
(60,392,o),
(60,350,cs),
(60,308,o),
(63,253,o),
(66,214,cs),
(79,69,o),
(167,-12,o),
(315,-12,cs)
);
}
);
width = 600;
}
);
metricLeft = O;
unicode = 71;
userData = {
com.schriftgestaltung.Glyphs.ColorIndex = 3;
com.schriftgestaltung.Glyphs.layer.leftMetricsKey = "==O";
com.schriftgestaltung.Glyphs.leftMetricsKey = O;
};
},
{
color = 4;
glyphname = G.ss01;
kernLeft = G.ss01;
kernRight = G.ss01;
lastChange = "2022-05-17 15:15:51 +0000";
layers = (
{
anchors = (
{
name = bottom;
pos = (286,0);
},
{
name = top;
pos = (286,700);
}
);
layerId = "BE73C5E5-17BA-4B8B-9704-EF1C804AF4CB";
metricLeft = "=O";
shapes = (
{
closed = 1;
nodes = (
(415,-8,o),
(483,14,o),
(526,44,c),
(526,420,l),
(298,420,l),
(298,280,l),
(386,280,l),
(386,138,l),
(360,132,o),
(332,130,o),
(304,130,cs),
(241,131,o),
(206,165,o),
(201,230,cs),
(198,276,o),
(196,310,o),
(196,350,cs),
(196,390,o),
(198,425,o),
(201,461,cs),
(208,531,o),
(240,572,o),
(323,572,cs),
(374,572,o),
(424,563,o),
(463,526,c),
(512,651,l),
(461,691,o),
(393,712,o),
(323,712,cs),
(171,712,o),
(68,634,o),
(51,486,cs),
(47,447,o),
(45,392,o),
(45,350,cs),
(45,308,o),
(48,253,o),
(51,214,cs),
(63,67,o),
(155,-12,o),
(314,-10,cs)
);
}
);
width = 581;
},
{
anchors = (
{
name = bottom;
pos = (281,0);
},
{
name = top;
pos = (281,700);
}
);
layerId = "6DBC133B-A4A9-4EFF-965F-6B79E3B68C3E";
metricLeft = "=O";
shapes = (
{
closed = 1;
nodes = (
(395,-12,o),
(446,7,o),
(496,42,c),
(496,389,l),
(282,389,l),
(282,311,l),
(413,311,l),
(413,84,l),
(395,72,o),
(352,66,o),
(315,66,cs),
(211,66,o),
(153,126,o),
(147,224,cs),
(144,272,o),
(142,308,o),
(142,350,cs),
(142,392,o),
(144,428,o),
(147,476,cs),
(154,584,o),
(215,634,o),
(316,634,cs),
(379,634,o),
(423,618,o),
(468,580,c),
(494,651,l),
(450,690,o),
(385,712,o),
(316,712,cs),
(171,712,o),
(80,641,o),
(65,486,cs),
(62,447,o),
(60,392,o),
(60,350,cs),
(60,308,o),
(63,253,o),
(66,214,cs),
(79,69,o),
(167,-12,o),
(315,-12,cs)
);
}
);
width = 561;
}
);
metricLeft = O;
userData = {
com.schriftgestaltung.Glyphs.layer.leftMetricsKey = "==O";
com.schriftgestaltung.Glyphs.leftMetricsKey = O;
};
},
{
color = 6;
glyphname = Gstroke;
kernLeft = O;
kernRight = G;
lastChange = "2022-04-29 11:57:51 +0000";
layers = (
{
anchors = (
{
name = bottom;
pos = (300,0);
},
{
name = top;
pos = (300,670);
}
);
layerId = "6DBC133B-A4A9-4EFF-965F-6B79E3B68C3E";
shapes = (
{
closed = 1;
nodes = (
(395,-12,o),
(446,7,o),
(496,42,c),
(496,389,l),
(413,389,l),
(413,84,l),
(395,72,o),
(352,66,o),
(315,66,cs),
(211,66,o),
(153,126,o),
(147,224,cs),
(144,272,o),
(142,308,o),
(142,350,cs),
(142,392,o),
(144,428,o),
(147,476,cs),
(154,584,o),
(215,634,o),
(319,634,cs),
(382,634,o),
(423,618,o),
(468,580,c),
(494,651,l),
(450,690,o),
(388,712,o),
(319,712,cs),
(171,712,o),
(80,641,o),
(65,486,cs),
(62,447,o),
(60,392,o),
(60,350,cs),
(60,308,o),
(63,253,o),
(66,214,cs),
(79,69,o),
(167,-12,o),
(315,-12,cs)
);
},
{
closed = 1;
nodes = (
(570,196,l),
(570,274,l),
(332,274,l),
(332,196,l)
);
}
);
width = 600;
},
{
anchors = (
{
name = bottom;
pos = (294,0);
},
{
name = top;
pos = (294,700);
}
);
layerId = "BE73C5E5-17BA-4B8B-9704-EF1C804AF4CB";
shapes = (
{
closed = 1;
nodes = (
(410,-8,o),
(475,14,o),
(516,44,c),
(516,420,l),
(386,420,l),
(386,138,l),
(360,132,o),
(332,130,o),
(304,130,cs),
(241,131,o),
(203,165,o),
(198,230,cs),
(195,276,o),
(193,310,o),
(193,350,cs),
(193,390,o),
(195,425,o),
(198,461,cs),
(205,531,o),
(240,572,o),
(326,572,cs),
(381,572,o),
(431,563,o),
(473,526,c),
(522,651,l),
(468,691,o),
(400,712,o),
(326,712,cs),
(171,712,o),
(68,634,o),
(51,486,cs),
(47,447,o),
(45,392,o),
(45,350,cs),
(45,308,o),
(48,253,o),
(51,214,cs),
(63,67,o),
(155,-12,o),
(314,-10,cs)
);
},
{
closed = 1;
nodes = (
(578,203,l),
(578,343,l),
(318,343,l),
(318,203,l)
);
}
);
width = 598;
}
);
unicode = 484;
},
{
color = 6;
glyphname = H;
kernLeft = H;
kernRight = H;
lastChange = "2022-04-29 11:57:51 +0000";
layers = (
{
anchors = (
{
name = bottom;
pos = (320,0);
},
{
name = center;
pos = (320,550);
},
{
name = top;
pos = (320,700);
},
{
name = topleft;
pos = (20,700);
}
);
layerId = "BE73C5E5-17BA-4B8B-9704-EF1C804AF4CB";
shapes = (
{
closed = 1;
nodes = (
(230,0,l),
(230,280,l),
(410,280,l),
(410,0,l),
(570,0,l),
(570,700,l),
(410,700,l),
(410,420,l),
(230,420,l),
(230,700,l),
(70,700,l),
(70,0,l)
);
}
);
width = 640;
},
{
anchors = (
{
name = bottom;
pos = (310,0);
},
{
name = center;
pos = (310,530);
},
{
name = top;
pos = (310,670);
},
{
name = topleft;
pos = (20,700);
}
);
layerId = "6DBC133B-A4A9-4EFF-965F-6B79E3B68C3E";
shapes = (
{
closed = 1;
nodes = (
(173,0,l),
(173,311,l),
(447,311,l),
(447,0,l),
(530,0,l),
(530,700,l),
(447,700,l),
(447,389,l),
(173,389,l),
(173,700,l),
(90,700,l),
(90,0,l)
);
}
);
width = 620;
}
);
unicode = 72;
userData = {
com.schriftgestaltung.Glyphs.ColorIndex = 3;
};
},
{
color = 3;
glyphname = Hbar;
kernLeft = H;
kernRight = H;
lastChange = "2022-04-29 11:57:51 +0000";
layers = (
{
anchors = (
{
name = _center;
pos = (310,530);
}
);
layerId = "6DBC133B-A4A9-4EFF-965F-6B79E3B68C3E";
shapes = (
{
ref = H;
},
{
closed = 1;
nodes = (
(635,495,l),
(635,564,l),
(-16,564,l),
(-16,495,l)
);
}
);
width = 620;
},
{
anchors = (
{
name = _center;
pos = (320,550);
}
);
layerId = "BE73C5E5-17BA-4B8B-9704-EF1C804AF4CB";
shapes = (
{
ref = H;
},
{
closed = 1;
nodes = (
(665,493,l),
(665,607,l),
(-26,607,l),
(-26,493,l)
);
}
);
width = 640;
}
);
unicode = 294;
},
{
color = 6;
glyphname = I;
kernLeft = I;
kernRight = I;
lastChange = "2022-04-29 11:57:51 +0000";
layers = (
{
anchors = (
{
name = bottom;
pos = (222,0);
},
{
name = ogonek;
pos = (393,0);
},
{
name = top;
pos = (222,700);
},
{
name = topleft;
pos = (20,700);
}
);
layerId = "BE73C5E5-17BA-4B8B-9704-EF1C804AF4CB";
shapes = (
{
closed = 1;
nodes = (
(393,0,l),
(393,130,l),
(301,130,l),
(301,570,l),
(393,570,l),
(393,700,l),
(50,700,l),
(50,570,l),
(142,570,l),
(142,130,l),
(50,130,l),
(50,0,l)
);
}
);
width = 443;
},
{
anchors = (
{
name = bottom;
pos = (212,0);
},
{
name = ogonek;
pos = (373,0);
},
{
name = top;
pos = (212,670);
},
{
name = topleft;
pos = (20,700);
}
);
layerId = "6DBC133B-A4A9-4EFF-965F-6B79E3B68C3E";
shapes = (
{
closed = 1;
nodes = (
(373,0,l),
(373,76,l),
(253,76,l),
(253,624,l),
(373,624,l),
(373,700,l),
(50,700,l),
(50,624,l),
(170,624,l),
(170,76,l),
(50,76,l),
(50,0,l)
);
}
);
width = 423;
}
);
unicode = 73;
userData = {
com.schriftgestaltung.Glyphs.ColorIndex = 3;
};
},
{
color = 4;
glyphname = I.ss01;
kernLeft = H;
kernRight = H;
lastChange = "2022-05-17 15:15:51 +0000";
layers = (
{
anchors = (
{
name = bottom;
pos = (150,0);
},
{
name = ogonek;
pos = (230,0);
},
{
name = top;
pos = (150,700);
},
{
name = topleft;
pos = (20,700);
}
);
layerId = "BE73C5E5-17BA-4B8B-9704-EF1C804AF4CB";
metricLeft = "=H";
metricRight = "=H";
shapes = (
{
closed = 1;
nodes = (
(230,0,l),
(230,700,l),
(70,700,l),
(70,0,l)
);
}
);
width = 300;
},
{
anchors = (
{
name = bottom;
pos = (132,0);
},
{
name = ogonek;
pos = (173,0);
},
{
name = top;
pos = (132,670);
},
{
name = topleft;
pos = (20,700);
}
);
layerId = "6DBC133B-A4A9-4EFF-965F-6B79E3B68C3E";
metricLeft = "=H";
metricRight = "=H";
shapes = (
{
closed = 1;
nodes = (
(173,0,l),
(173,700,l),
(90,700,l),
(90,0,l)
);
}
);
width = 263;
}
);
metricLeft = H;
metricRight = H;
userData = {
com.schriftgestaltung.Glyphs.layer.leftMetricsKey = "==H";
com.schriftgestaltung.Glyphs.layer.rightMetricsKey = "==H";
com.schriftgestaltung.Glyphs.leftMetricsKey = H;
com.schriftgestaltung.Glyphs.rightMetricsKey = h;
};
},
{
color = 3;
glyphname = IJ;
kernLeft = I;
kernRight = J;
lastChange = "2022-04-29 11:57:51 +0000";
layers = (
{
layerId = "BE73C5E5-17BA-4B8B-9704-EF1C804AF4CB";
shapes = (
{
closed = 1;
nodes = (
(778,-12,o),
(872,71,o),
(872,220,cs),
(872,700,l),
(572,700,l),
(572,570,l),
(712,570,l),
(712,220,ls),
(712,156,o),
(673,130,o),
(605,130,cs),
(561,130,o),
(519,139,o),
(473,160,c),
(473,20,l),
(522,2,o),
(563,-12,o),
(627,-12,cs)
);
},
{
ref = I;
}
);
width = 932;
},
{
layerId = "6DBC133B-A4A9-4EFF-965F-6B79E3B68C3E";
shapes = (
{
closed = 1;
nodes = (
(719,-2,o),
(800,67,o),
(800,184,cs),
(800,700,l),
(558,700,l),
(558,622,l),
(718,622,l),
(718,184,ls),
(718,114,o),
(680,74,o),
(583,74,cs),
(537,74,o),
(489,91,o),
(443,115,c),
(443,36,l),
(482,10,o),
(547,-2,o),
(593,-2,cs)
);
},
{
ref = I;
}
);
width = 890;
}
);
unicode = 306;
},
{
color = 4;
glyphname = IJ.ss01;
kernLeft = I;
kernRight = J;
lastChange = "2022-05-17 15:15:51 +0000";
layers = (
{
layerId = "BE73C5E5-17BA-4B8B-9704-EF1C804AF4CB";
shapes = (
{
closed = 1;
nodes = (
(624,-12,o),
(718,71,o),
(718,220,cs),
(718,700,l),
(558,700,l),
(558,220,l),
(558,156,o),
(519,130,o),
(451,130,cs),
(407,130,o),
(365,139,o),
(319,160,c),
(319,20,l),
(368,2,o),
(409,-12,o),
(473,-12,cs)
);
},
{
ref = I.ss01;
}
);
width = 788;
},
{
layerId = "6DBC133B-A4A9-4EFF-965F-6B79E3B68C3E";
shapes = (
{
closed = 1;
nodes = (
(539,-2,o),
(620,67,o),
(620,184,cs),
(620,700,l),
(538,700,l),
(538,184,l),
(538,114,o),
(500,74,o),
(403,74,cs),
(357,74,o),
(309,91,o),
(263,115,c),
(263,36,l),
(302,10,o),
(367,-2,o),
(413,-2,cs)
);
},
{
ref = I.ss01;
}
);
width = 710;
}
);
},
{
color = 6;
glyphname = J;
kernLeft = J;
kernRight = J;
lastChange = "2022-04-29 11:57:51 +0000";
layers = (
{
anchors = (
{
name = bottom;
pos = (214,0);
},
{
name = top;
pos = (277,700);
}
);
background = {
shapes = (
{
closed = 1;
nodes = (
(455,700,l),
(313,700,l),
(313,190,l),
(313,157,o),
(305,116,o),
(254,116,cs),
(209,116,o),
(185,123,o),
(153,139,c),
(127,19,l),
(162,-1,o),
(210,-12,o),
(254,-12,cs),
(425,-12,o),
(455,97,o),
(455,190,c)
);
}
);
};
layerId = "BE73C5E5-17BA-4B8B-9704-EF1C804AF4CB";
metricRight = "=H-10";
shapes = (
{
closed = 1;
nodes = (
(325,-12,o),
(419,71,o),
(419,220,cs),
(419,700,l),
(119,700,l),
(119,570,l),
(259,570,l),
(259,220,ls),
(259,156,o),
(228,128,o),
(174,129,cs),
(122,129,o),
(92,142,o),
(57,165,c),
(10,40,l),
(61,6,o),
(106,-12,o),
(174,-12,cs)
);
}
);
width = 479;
},
{
anchors = (
{
name = bottom;
pos = (214,0);
},
{
name = top;
pos = (214,670);
}
);
background = {
shapes = (
{
closed = 1;
nodes = (
(455,700,l),
(313,700,l),
(313,190,l),
(313,157,o),
(305,116,o),
(254,116,cs),
(209,116,o),
(185,123,o),
(153,139,c),
(127,19,l),
(162,-1,o),
(210,-12,o),
(254,-12,cs),
(425,-12,o),
(455,97,o),
(455,190,c)
);
}
);
};
layerId = "6DBC133B-A4A9-4EFF-965F-6B79E3B68C3E";
metricRight = "=H";
shapes = (
{
closed = 1;
nodes = (
(284,-12,o),
(357,50,o),
(357,154,cs),
(357,700,l),
(115,700,l),
(115,622,l),
(275,622,l),
(275,154,ls),
(275,98,o),
(234,66,o),
(170,66,cs),
(129,66,o),
(64,81,o),
(35,121,c),
(10,50,l),
(52,8,o),
(121,-12,o),
(170,-12,cs)
);
}
);
width = 447;
}
);
metricRight = H;
unicode = 74;
userData = {
com.schriftgestaltung.Glyphs.ColorIndex = 3;
com.schriftgestaltung.Glyphs.layer.rightMetricsKey = "==H";
com.schriftgestaltung.Glyphs.rightMetricsKey = H;
com.typemytype.robofont.layerData = {
background = {
anchors = (
);
components = (
);
contours = (
{
points = (
{
segmentType = line;
smooth = 0;
x = 455;
y = 700;
},
{
segmentType = line;
smooth = 0;
x = 313;
y = 700;
},
{
segmentType = line;
smooth = 0;
x = 313;
y = 190;
},
{
smooth = 0;
x = 313;
y = 157;
},
{
smooth = 0;
x = 305;
y = 116;
},
{
segmentType = curve;
smooth = 1;
x = 254;
y = 116;
},
{
smooth = 0;
x = 209;
y = 116;
},
{
smooth = 0;
x = 185;
y = 123;
},
{
segmentType = curve;
smooth = 0;
x = 153;
y = 139;
},
{
segmentType = line;
smooth = 0;
x = 127;
y = 19;
},
{
smooth = 0;
x = 162;
y = -1;
},
{
smooth = 0;
x = 210;
y = -12;
},
{
segmentType = curve;
smooth = 1;
x = 254;
y = -12;
},
{
smooth = 0;
x = 425;
y = -12;
},
{
smooth = 0;
x = 455;
y = 97;
},
{
segmentType = curve;
smooth = 0;
x = 455;
y = 190;
}
);
}
);
lib = {
};
name = J;
unicodes = (
);
width = 447;
};
};
};
},
{
color = 4;
glyphname = J.ss01;
kernLeft = J.ss01;
kernRight = J.ss01;
lastChange = "2022-05-17 15:15:51 +0000";
layers = (
{
anchors = (
{
name = bottom;
pos = (223,0);
},
{
name = top;
pos = (300,700);
}
);
layerId = "BE73C5E5-17BA-4B8B-9704-EF1C804AF4CB";
metricRight = "=U";
shapes = (
{
closed = 1;
nodes = (
(343,-12,o),
(386,100,o),
(386,194,cs),
(386,700,l),
(226,700,l),
(226,194,ls),
(226,162,o),
(219,130,o),
(163,130,cs),
(134,130,o),
(107,136,o),
(80,150,c),
(55,16,l),
(84,-2,o),
(124,-12,o),
(161,-12,cs)
);
}
);
width = 446;
},
{
anchors = (
{
name = bottom;
pos = (195,0);
},
{
name = top;
pos = (260,670);
}
);
layerId = "6DBC133B-A4A9-4EFF-965F-6B79E3B68C3E";
metricRight = "=U";
shapes = (
{
closed = 1;
nodes = (
(244,-12,o),
(305,46,o),
(305,138,cs),
(305,700,l),
(223,700,l),
(223,138,ls),
(223,91,o),
(195,61,o),
(151,61,cs),
(117,61,o),
(81,78,o),
(57,104,c),
(20,41,l),
(56,8,o),
(105,-12,o),
(148,-12,cs)
);
}
);
width = 390;
}
);
metricRight = U;
userData = {
com.schriftgestaltung.Glyphs.layer.rightMetricsKey = "==U";
com.schriftgestaltung.Glyphs.rightMetricsKey = U;
};
},
{
color = 6;
glyphname = K;
kernLeft = H;
kernRight = K;
lastChange = "2022-04-29 11:57:51 +0000";
layers = (
{
anchors = (
{
name = bottom;
pos = (296,0);
},
{
name = top;
pos = (296,700);
}
);
layerId = "BE73C5E5-17BA-4B8B-9704-EF1C804AF4CB";
metricLeft = "=H";
shapes = (
{
closed = 1;
nodes = (
(226,0,l),
(226,285,l),
(283,285,l),
(394,0,l),
(561,0,l),
(416,360,l),
(566,700,l),
(397,700,l),
(283,415,l),
(226,415,l),
(226,700,l),
(70,700,l),
(70,0,l)
);
}
);
width = 586;
},
{
anchors = (
{
name = bottom;
pos = (269,0);
},
{
name = top;
pos = (269,670);
}
);
layerId = "6DBC133B-A4A9-4EFF-965F-6B79E3B68C3E";
metricLeft = "=H";
shapes = (
{
closed = 1;
nodes = (
(172,0,l),
(172,313,l),
(247,313,l),
(418,0,l),
(508,0,l),
(315,356,l),
(506,700,l),
(416,700,l),
(247,388,l),
(172,388,l),
(172,700,l),
(90,700,l),
(90,0,l)
);
}
);
width = 538;
}
);
metricLeft = H;
unicode = 75;
userData = {
com.schriftgestaltung.Glyphs.ColorIndex = 3;
com.schriftgestaltung.Glyphs.layer.leftMetricsKey = "==H";
com.schriftgestaltung.Glyphs.leftMetricsKey = H;
};
},
{
color = 6;
glyphname = L;
kernLeft = H;
kernRight = L;
lastChange = "2022-08-02 06:01:50 +0000";
layers = (
{
anchors = (
{
name = bottom;
pos = (244,0);
},
{
name = center;
pos = (150,416);
},
{
name = top;
pos = (222,700);
},
{
name = topright;
pos = (361,700);
}
);
layerId = "BE73C5E5-17BA-4B8B-9704-EF1C804AF4CB";
metricLeft = "=H";
shapes = (
{
closed = 1;
nodes = (
(424,0,l),
(424,140,l),
(230,140,l),
(230,700,l),
(70,700,l),
(70,0,l)
);
}
);
width = 444;
},
{
anchors = (
{
name = bottom;
pos = (256,0);
},
{
name = center;
pos = (136,416);
},
{
name = top;
pos = (226,670);
},
{
name = topright;
pos = (386,700);
}
);
layerId = "6DBC133B-A4A9-4EFF-965F-6B79E3B68C3E";
metricLeft = "=H";
shapes = (
{
closed = 1;
nodes = (
(422,0,l),
(422,78,l),
(173,78,l),
(173,700,l),
(90,700,l),
(90,0,l)
);
}
);
width = 452;
}
);
metricLeft = H;
unicode = 76;
userData = {
com.schriftgestaltung.Glyphs.ColorIndex = 3;
com.schriftgestaltung.Glyphs.layer.leftMetricsKey = "==H";
com.schriftgestaltung.Glyphs.leftMetricsKey = H;
};
},
{
color = 10;
glyphname = Lslash;
kernLeft = H;
kernRight = L;
lastChange = "2022-08-02 06:28:57 +0000";
layers = (
{
guides = (
{
pos = (343,538);
}
);
layerId = "6DBC133B-A4A9-4EFF-965F-6B79E3B68C3E";
shapes = (
{
pos = (20,0);
ref = L;
},
{
closed = 1;
nodes = (
(343,464,l),
(343,538,l),
(28,321,l),
(28,247,l)
);
}
);
width = 472;
},
{
guides = (
{
pos = (328,591);
}
);
layerId = "BE73C5E5-17BA-4B8B-9704-EF1C804AF4CB";
shapes = (
{
pos = (20,0);
ref = L;
},
{
closed = 1;
nodes = (
(371,452,l),
(371,591,l),
(17,346,l),
(17,207,l)
);
}
);
width = 464;
}
);
unicode = 321;
},
{
color = 6;
glyphname = M;
kernLeft = H;
kernRight = H;
lastChange = "2022-04-29 11:57:51 +0000";
layers = (
{
anchors = (
{
name = bottom;
pos = (340,0);
},
{
name = top;
pos = (340,700);
}
);
guides = (
{
angle = 90;
pos = (629,540);
}
);
layerId = "BE73C5E5-17BA-4B8B-9704-EF1C804AF4CB";
metricLeft = "=H";
metricRight = "=H";
shapes = (
{
closed = 1;
nodes = (
(220,0,l),
(220,290,l),
(206,378,ls),
(204,388,o),
(216,394,o),
(222,384,cs),
(310,229,l),
(362,229,l),
(458,384,ls),
(464,394,o),
(476,388,o),
(474,378,cs),
(460,290,l),
(460,0,l),
(610,0,l),
(610,700,l),
(480,700,l),
(349,453,ls),
(345,445,o),
(335,445,o),
(331,453,cs),
(200,700,l),
(70,700,l),
(70,0,l)
);
}
);
width = 680;
},
{
anchors = (
{
name = bottom;
pos = (337,0);
},
{
name = top;
pos = (337,670);
}
);
layerId = "6DBC133B-A4A9-4EFF-965F-6B79E3B68C3E";
metricLeft = "=H";
metricRight = "=H";
shapes = (
{
closed = 1;
nodes = (
(170,0,l),
(170,456,l),
(160,519,ls),
(159,528,o),
(168,533,o),
(173,522,c),
(312,265,l),
(362,265,l),
(501,522,ls),
(507,533,o),
(515,528,o),
(514,519,cs),
(504,456,l),
(504,0,l),
(584,0,l),
(584,700,l),
(514,700,l),
(348,386,ls),
(342,374,o),
(332,374,o),
(326,386,cs),
(160,700,l),
(90,700,l),
(90,0,l)
);
}
);
width = 674;
}
);
metricLeft = H;
metricRight = H;
unicode = 77;
userData = {
com.schriftgestaltung.Glyphs.ColorIndex = 3;
com.schriftgestaltung.Glyphs.layer.leftMetricsKey = "==H";
com.schriftgestaltung.Glyphs.layer.rightMetricsKey = "==H";
com.schriftgestaltung.Glyphs.leftMetricsKey = H;
com.schriftgestaltung.Glyphs.rightMetricsKey = H;
};
},
{
color = 6;
glyphname = N;
kernLeft = H;
kernRight = H;
lastChange = "2022-04-29 11:57:51 +0000";
layers = (
{
anchors = (
{
name = bottom;
pos = (320,0);
},
{
name = top;
pos = (320,700);
}
);
layerId = "BE73C5E5-17BA-4B8B-9704-EF1C804AF4CB";
metricLeft = "=H";
metricRight = "=H";
shapes = (
{
closed = 1;
nodes = (
(220,0,l),
(220,290,l),
(206,378,ls),
(204,388,o),
(216,394,o),
(222,384,cs),
(440,0,l),
(570,0,l),
(570,700,l),
(420,700,l),
(420,410,l),
(435,322,ls),
(437,312,o),
(425,306,o),
(419,316,cs),
(200,700,l),
(70,700,l),
(70,0,l)
);
}
);
width = 640;
},
{
anchors = (
{
name = bottom;
pos = (312,0);
},
{
name = top;
pos = (312,700);
}
);
layerId = "6DBC133B-A4A9-4EFF-965F-6B79E3B68C3E";
metricLeft = "=H";
metricRight = "=H";
shapes = (
{
closed = 1;
nodes = (
(170,0,l),
(170,449,l),
(160,514,ls),
(158,525,o),
(168,529,o),
(174,517,cs),
(453,0,l),
(533,0,l),
(533,700,l),
(453,700,l),
(453,225,l),
(464,158,ls),
(465,149,o),
(456,143,o),
(451,153,cs),
(158,700,l),
(90,700,l),
(90,0,l)
);
}
);
width = 623;
}
);
metricLeft = H;
metricRight = H;
unicode = 78;
userData = {
com.schriftgestaltung.Glyphs.ColorIndex = 3;
com.schriftgestaltung.Glyphs.layer.leftMetricsKey = "==H";
com.schriftgestaltung.Glyphs.layer.rightMetricsKey = "==H";
com.schriftgestaltung.Glyphs.leftMetricsKey = H;
com.schriftgestaltung.Glyphs.rightMetricsKey = H;
};
},
{
color = 3;
glyphname = Eng;
kernLeft = H;
kernRight = H;
lastChange = "2022-04-29 11:57:51 +0000";
layers = (
{
layerId = "6DBC133B-A4A9-4EFF-965F-6B79E3B68C3E";
shapes = (
{
closed = 1;
nodes = (
(472,-215,o),
(533,-157,o),
(533,-65,cs),
(533,700,l),
(453,700,l),
(453,-65,ls),
(453,-112,o),
(424,-142,o),
(379,-142,cs),
(345,-142,o),
(309,-125,o),
(285,-99,c),
(248,-162,l),
(284,-195,o),
(333,-215,o),
(376,-215,cs)
);
},
{
ref = N;
}
);
width = 623;
},
{
layerId = "BE73C5E5-17BA-4B8B-9704-EF1C804AF4CB";
shapes = (
{
closed = 1;
nodes = (
(484,-215,o),
(570,-143,o),
(570,-13,cs),
(570,147,l),
(421,147,l),
(421,-13,ls),
(421,-56,o),
(393,-75,o),
(345,-74,cs),
(306,-73,o),
(284,-65,o),
(258,-48,c),
(211,-173,l),
(253,-200,o),
(289,-215,o),
(345,-215,cs)
);
},
{
ref = N;
}
);
width = 640;
}
);
metricLeft = N;
metricRight = N;
unicode = 330;
},
{
color = 6;
glyphname = O;
kernLeft = O;
kernRight = O;
lastChange = "2022-04-29 11:57:51 +0000";
layers = (
{
anchors = (
{
name = bottom;
pos = (310,0);
},
{
name = center;
pos = (310,350);
},
{
name = ogonek;
pos = (558,10);
},
{
name = top;
pos = (310,700);
},
{
name = topleft;
pos = (20,700);
},
{
name = topright;
pos = (600,700);
}
);
layerId = "BE73C5E5-17BA-4B8B-9704-EF1C804AF4CB";
shapes = (
{
closed = 1;
nodes = (
(379,-12,o),
(447,9,o),
(496,58,cs),
(543,105,o),
(575,166,o),
(575,350,cs),
(575,534,o),
(543,595,o),
(496,642,cs),
(447,691,o),
(379,712,o),
(310,712,cs),
(241,712,o),
(173,691,o),
(124,642,cs),
(77,595,o),
(45,534,o),
(45,350,cs),
(45,166,o),
(77,105,o),
(124,58,cs),
(173,9,o),
(241,-12,o),
(310,-12,cs)
);
},
{
closed = 1;
nodes = (
(254,129,o),
(215,166,o),
(211,227,cs),
(208,265,o),
(206,307,o),
(206,350,cs),
(206,393,o),
(208,435,o),
(211,473,cs),
(215,534,o),
(254,571,o),
(310,571,cs),
(366,571,o),
(405,534,o),
(409,473,cs),
(412,435,o),
(414,393,o),
(414,350,cs),
(414,307,o),
(412,265,o),
(409,227,cs),
(405,166,o),
(366,129,o),
(310,129,cs)
);
}
);
width = 620;
},
{
anchors = (
{
name = bottom;
pos = (303,0);
},
{
name = center;
pos = (303,350);
},
{
name = ogonek;
pos = (545,10);
},
{
name = top;
pos = (303,670);
},
{
name = topleft;
pos = (20,700);
},
{
name = topright;
pos = (586,700);
}
);
layerId = "6DBC133B-A4A9-4EFF-965F-6B79E3B68C3E";
shapes = (
{
closed = 1;
nodes = (
(375,-12,o),
(432,10,o),
(472,51,cs),
(515,94,o),
(546,162,o),
(546,350,c),
(546,538,o),
(515,606,o),
(472,649,cs),
(432,690,o),
(375,712,o),
(303,712,c),
(231,712,o),
(174,690,o),
(134,649,cs),
(91,606,o),
(60,538,o),
(60,350,c),
(60,162,o),
(91,94,o),
(134,51,cs),
(174,10,o),
(231,-12,o),
(303,-12,c)
);
},
{
closed = 1;
nodes = (
(204,66,o),
(153,123,o),
(148,214,cs),
(144,272,o),
(142,308,o),
(142,350,c),
(142,392,o),
(144,428,o),
(148,486,cs),
(153,577,o),
(204,634,o),
(303,634,c),
(402,634,o),
(453,577,o),
(458,486,cs),
(462,428,o),
(464,392,o),
(464,350,c),
(464,308,o),
(462,272,o),
(458,214,cs),
(453,123,o),
(402,66,o),
(303,66,c)
);
}
);
width = 606;
}
);
unicode = 79;
userData = {
com.schriftgestaltung.Glyphs.ColorIndex = 3;
};
},
{
color = 6;
glyphname = OE;
kernLeft = O;
kernRight = E;
lastChange = "2022-04-29 11:57:51 +0000";
layers = (
{
anchors = (
{
name = bottom;
pos = (456,0);
},
{
name = top;
pos = (456,700);
}
);
layerId = "BE73C5E5-17BA-4B8B-9704-EF1C804AF4CB";
shapes = (
{
closed = 1;
nodes = (
(337,-12,o),
(364,-9,o),
(390,-2,c),
(418,14,ls),
(426,19,o),
(432,15,o),
(432,6,cs),
(432,0,l),
(862,0,l),
(862,140,l),
(577,140,l),
(577,285,l),
(845,285,l),
(845,415,l),
(577,415,l),
(577,560,l),
(862,560,l),
(862,700,l),
(432,700,l),
(432,694,ls),
(432,685,o),
(426,681,o),
(418,686,cs),
(393,701,l),
(366,708,o),
(338,712,o),
(310,712,cs),
(241,712,o),
(173,691,o),
(124,642,cs),
(77,595,o),
(45,534,o),
(45,350,cs),
(45,166,o),
(77,105,o),
(124,58,cs),
(173,9,o),
(241,-12,o),
(310,-12,cs)
);
},
{
closed = 1;
nodes = (
(254,129,o),
(215,166,o),
(211,227,cs),
(208,265,o),
(206,307,o),
(206,350,cs),
(206,393,o),
(208,435,o),
(211,473,cs),
(215,534,o),
(254,571,o),
(310,571,cs),
(366,571,o),
(405,534,o),
(409,473,cs),
(412,435,o),
(414,393,o),
(414,350,cs),
(414,307,o),
(412,265,o),
(409,227,cs),
(405,166,o),
(366,129,o),
(310,129,cs)
);
}
);
width = 912;
},
{
anchors = (
{
name = bottom;
pos = (466,0);
},
{
name = top;
pos = (466,700);
}
);
layerId = "6DBC133B-A4A9-4EFF-965F-6B79E3B68C3E";
shapes = (
{
closed = 1;
nodes = (
(351,-12,o),
(393,-2,o),
(427,17,c),
(457,46,ls),
(464,53,o),
(469,50,o),
(469,41,cs),
(469,0,l),
(872,0,l),
(872,78,l),
(547,78,l),
(547,311,l),
(855,311,l),
(855,389,l),
(547,389,l),
(547,622,l),
(872,622,l),
(872,700,l),
(469,700,l),
(469,659,ls),
(469,650,o),
(464,647,o),
(457,654,cs),
(429,682,l),
(394,702,o),
(352,712,o),
(303,712,cs),
(231,712,o),
(174,690,o),
(134,649,cs),
(91,606,o),
(60,538,o),
(60,350,cs),
(60,162,o),
(91,94,o),
(134,51,cs),
(174,10,o),
(231,-12,o),
(303,-12,cs)
);
},
{
closed = 1;
nodes = (
(204,66,o),
(153,123,o),
(148,214,cs),
(144,272,o),
(142,308,o),
(142,350,cs),
(142,392,o),
(144,428,o),
(148,486,cs),
(153,577,o),
(204,634,o),
(303,634,cs),
(402,634,o),
(453,577,o),
(458,486,cs),
(462,428,o),
(464,392,o),
(464,350,cs),
(464,308,o),
(462,272,o),
(458,214,cs),
(453,123,o),
(402,66,o),
(303,66,cs)
);
}
);
width = 932;
}
);
metricLeft = O;
metricRight = E;
unicode = 338;
userData = {
com.schriftgestaltung.Glyphs.leftMetricsKey = O;
com.schriftgestaltung.Glyphs.rightMetricsKey = E;
};
},
{
color = 6;
glyphname = P;
kernLeft = H;
kernRight = P;
lastChange = "2022-04-29 11:57:51 +0000";
layers = (
{
anchors = (
{
name = bottom;
pos = (290,0);
},
{
name = top;
pos = (290,700);
}
);
layerId = "BE73C5E5-17BA-4B8B-9704-EF1C804AF4CB";
metricLeft = "=H";
shapes = (
{
closed = 1;
nodes = (
(229,0,l),
(229,280,l),
(335,280,ls),
(468,280,o),
(550,361,o),
(550,486,cs),
(550,619,o),
(468,700,o),
(335,700,cs),
(70,700,l),
(70,0,l)
);
},
{
closed = 1;
nodes = (
(229,570,l),
(335,570,ls),
(379,570,o),
(405,541,o),
(405,489,cs),
(405,443,o),
(379,410,o),
(335,410,cs),
(229,410,l)
);
}
);
width = 580;
},
{
anchors = (
{
name = bottom;
pos = (277,0);
},
{
name = top;
pos = (277,670);
}
);
layerId = "6DBC133B-A4A9-4EFF-965F-6B79E3B68C3E";
metricLeft = "=H";
shapes = (
{
closed = 1;
nodes = (
(170,0,l),
(170,311,l),
(330,311,ls),
(449,311,o),
(523,384,o),
(523,503,cs),
(523,623,o),
(449,700,o),
(330,700,cs),
(90,700,l),
(90,0,l)
);
},
{
closed = 1;
nodes = (
(170,630,l),
(320,630,ls),
(395,630,o),
(442,581,o),
(442,503,cs),
(442,428,o),
(395,384,o),
(320,384,cs),
(170,384,l)
);
}
);
width = 553;
}
);
metricLeft = H;
unicode = 80;
userData = {
com.schriftgestaltung.Glyphs.ColorIndex = 3;
com.schriftgestaltung.Glyphs.layer.leftMetricsKey = "==H";
com.schriftgestaltung.Glyphs.leftMetricsKey = H;
};
},
{
color = 6;
glyphname = Thorn;
kernLeft = H;
kernRight = Thorn;
lastChange = "2022-04-29 11:57:51 +0000";
layers = (
{
anchors = (
{
name = bottom;
pos = (290,0);
},
{
name = top;
pos = (290,700);
}
);
layerId = "BE73C5E5-17BA-4B8B-9704-EF1C804AF4CB";
shapes = (
{
closed = 1;
nodes = (
(229,0,l),
(229,150,l),
(335,150,ls),
(468,150,o),
(550,231,o),
(550,356,cs),
(550,489,o),
(468,570,o),
(335,570,cs),
(229,570,l),
(229,700,l),
(70,700,l),
(70,0,l)
);
},
{
closed = 1;
nodes = (
(229,440,l),
(335,440,ls),
(379,440,o),
(405,411,o),
(405,359,cs),
(405,313,o),
(379,280,o),
(335,280,cs),
(229,280,l)
);
}
);
width = 580;
},
{
anchors = (
{
name = bottom;
pos = (277,0);
},
{
name = top;
pos = (277,700);
}
);
layerId = "6DBC133B-A4A9-4EFF-965F-6B79E3B68C3E";
shapes = (
{
closed = 1;
nodes = (
(170,0,l),
(170,165,l),
(330,165,ls),
(449,165,o),
(523,238,o),
(523,357,cs),
(523,477,o),
(449,555,o),
(330,555,cs),
(170,555,l),
(170,700,l),
(90,700,l),
(90,0,l)
);
},
{
closed = 1;
nodes = (
(170,484,l),
(320,484,ls),
(395,484,o),
(442,435,o),
(442,357,cs),
(442,282,o),
(395,238,o),
(320,238,cs),
(170,238,l)
);
}
);
width = 553;
}
);
metricLeft = H;
unicode = 222;
userData = {
com.schriftgestaltung.Glyphs.leftMetricsKey = H;
};
},
{
color = 6;
glyphname = Q;
kernLeft = O;
kernRight = O;
lastChange = "2022-04-29 11:57:51 +0000";
layers = (
{
anchors = (
{
name = bottom;
pos = (310,0);
},
{
name = top;
pos = (310,700);
}
);
layerId = "BE73C5E5-17BA-4B8B-9704-EF1C804AF4CB";
metricLeft = "=O";
metricRight = "=O";
shapes = (
{
closed = 1;
nodes = (
(510,-60,l),
(464,32,l),
(475,39,o),
(486,48,o),
(496,58,cs),
(543,105,o),
(575,166,o),
(575,350,cs),
(575,534,o),
(543,595,o),
(496,642,cs),
(447,691,o),
(379,712,o),
(310,712,cs),
(241,712,o),
(173,691,o),
(124,642,cs),
(77,595,o),
(45,534,o),
(45,350,cs),
(45,166,o),
(77,105,o),
(124,58,cs),
(173,9,o),
(241,-12,o),
(310,-12,cs),
(320,-12,o),
(330,-12,o),
(340,-11,c),
(388,-115,l)
);
},
{
closed = 1;
nodes = (
(248,119,o),
(205,170,o),
(201,223,cs),
(198,259,o),
(196,304,o),
(196,350,cs),
(196,393,o),
(198,435,o),
(201,473,cs),
(206,537,o),
(249,574,o),
(310,574,cs),
(371,574,o),
(414,537,o),
(419,473,cs),
(422,435,o),
(424,393,o),
(424,350,cs),
(424,307,o),
(422,265,o),
(419,227,cs),
(417,209,o),
(413,189,o),
(402,176,c),
(351,285,l),
(236,232,l),
(261,172,l),
(315,142,ls),
(326,136,o),
(326,122,o),
(313,120,cs),
(308,119,o),
(302,119,o),
(297,119,cs)
);
}
);
width = 620;
},
{
anchors = (
{
name = bottom;
pos = (303,0);
},
{
name = top;
pos = (303,670);
}
);
layerId = "6DBC133B-A4A9-4EFF-965F-6B79E3B68C3E";
metricLeft = "=O";
metricRight = "=O";
shapes = (
{
closed = 1;
nodes = (
(495,-86,l),
(436,24,l),
(449,32,o),
(461,40,o),
(472,51,cs),
(515,94,o),
(546,162,o),
(546,350,cs),
(546,538,o),
(515,606,o),
(472,649,cs),
(432,690,o),
(375,712,o),
(303,712,cs),
(231,712,o),
(174,690,o),
(134,649,cs),
(91,606,o),
(60,538,o),
(60,350,cs),
(60,162,o),
(91,94,o),
(134,51,cs),
(174,10,o),
(231,-12,o),
(303,-12,cs),
(325,-12,o),
(347,-10,o),
(366,-6,c),
(424,-118,l)
);
},
{
closed = 1;
nodes = (
(204,66,o),
(153,123,o),
(148,214,cs),
(144,272,o),
(142,308,o),
(142,350,cs),
(142,392,o),
(144,428,o),
(148,486,cs),
(153,577,o),
(204,634,o),
(303,634,cs),
(402,634,o),
(453,577,o),
(458,486,cs),
(462,428,o),
(464,392,o),
(464,350,cs),
(464,308,o),
(462,272,o),
(458,214,cs),
(455,161,o),
(437,120,o),
(402,94,c),
(322,256,l),
(252,223,l),
(303,121,l),
(333,90,ls),
(341,81,o),
(339,71,o),
(327,68,cs),
(319,67,o),
(311,66,o),
(303,66,cs)
);
}
);
width = 606;
}
);
metricLeft = O;
metricRight = O;
unicode = 81;
userData = {
com.schriftgestaltung.Glyphs.ColorIndex = 3;
com.schriftgestaltung.Glyphs.layer.leftMetricsKey = "==O";
com.schriftgestaltung.Glyphs.layer.rightMetricsKey = "==O";
com.schriftgestaltung.Glyphs.leftMetricsKey = O;
com.schriftgestaltung.Glyphs.rightMetricsKey = O;
};
},
{
color = 6;
glyphname = R;
kernLeft = H;
kernRight = R;
lastChange = "2022-04-29 11:57:51 +0000";
layers = (
{
anchors = (
{
name = bottom;
pos = (300,0);
},
{
name = top;
pos = (300,700);
}
);
layerId = "BE73C5E5-17BA-4B8B-9704-EF1C804AF4CB";
metricLeft = "=H";
shapes = (
{
closed = 1;
nodes = (
(230,0,l),
(230,280,l),
(290,280,l),
(393,0,l),
(552,0,l),
(469,227,l),
(434,277,ls),
(428,287,o),
(430,294,o),
(440,298,cs),
(523,331,o),
(570,401,o),
(570,490,cs),
(570,623,o),
(483,700,o),
(331,700,cs),
(70,700,l),
(70,0,l)
);
},
{
closed = 1;
nodes = (
(229,570,l),
(337,570,ls),
(394,570,o),
(428,541,o),
(428,490,cs),
(428,439,o),
(394,410,o),
(337,410,cs),
(229,410,l)
);
}
);
width = 600;
},
{
anchors = (
{
name = bottom;
pos = (282,0);
},
{
name = top;
pos = (282,670);
}
);
layerId = "6DBC133B-A4A9-4EFF-965F-6B79E3B68C3E";
metricLeft = "=H";
shapes = (
{
closed = 1;
nodes = (
(170,0,l),
(170,311,l),
(307,311,l),
(420,0,l),
(509,0,l),
(417,253,l),
(388,301,ls),
(382,311,o),
(383,318,o),
(392,320,cs),
(473,342,o),
(523,408,o),
(523,501,cs),
(523,628,o),
(446,700,o),
(318,700,cs),
(90,700,l),
(90,0,l)
);
},
{
closed = 1;
nodes = (
(170,630,l),
(318,630,ls),
(394,630,o),
(441,584,o),
(441,501,cs),
(441,426,o),
(394,384,o),
(318,384,cs),
(170,384,l)
);
}
);
width = 563;
}
);
metricLeft = H;
unicode = 82;
userData = {
com.schriftgestaltung.Glyphs.ColorIndex = 3;
com.schriftgestaltung.Glyphs.layer.leftMetricsKey = "==H";
com.schriftgestaltung.Glyphs.leftMetricsKey = H;
};
},
{
color = 6;
glyphname = S;
kernLeft = S;
kernRight = S;
lastChange = "2022-04-29 11:57:51 +0000";
layers = (
{
anchors = (
{
name = bottom;
pos = (260,0);
},
{
name = top;
pos = (260,700);
}
);
background = {
anchors = (
{
name = bottom;
pos = (427,0);
},
{
name = top;
pos = (427,700);
}
);
shapes = (
{
closed = 1;
nodes = (
(412,572,ls),
(360,572,o),
(325,545,o),
(325,501,cs),
(325,465,o),
(345,440,o),
(389,437,cs),
(464,432,ls),
(577,424,o),
(662,343,o),
(662,219,cs),
(662,77,o),
(566,-10,o),
(445,-10,cs),
(356,-10,ls),
(282,-10,o),
(224,12,o),
(175,62,c),
(222,190,l),
(269,146,o),
(309,128,o),
(356,128,cs),
(420,128,ls),
(475,128,o),
(512,154,o),
(512,216,cs),
(512,252,o),
(484,287,o),
(439,290,cs),
(359,295,ls),
(267,300,o),
(175,365,o),
(175,493,cs),
(175,622,o),
(269,710,o),
(411,710,cs),
(471,710,ls),
(540,710,o),
(596,685,o),
(630,655,c),
(586,537,l),
(542,563,o),
(526,572,o),
(472,572,cs)
);
}
);
};
layerId = "BE73C5E5-17BA-4B8B-9704-EF1C804AF4CB";
shapes = (
{
closed = 1;
nodes = (
(405,-10,o),
(495,68,o),
(495,217,cs),
(495,342,o),
(420,421,o),
(288,436,cs),
(248,441,ls),
(207,446,o),
(184,466,o),
(184,505,cs),
(184,541,o),
(212,574,o),
(290,574,cs),
(342,574,o),
(389,562,o),
(436,537,c),
(480,655,l),
(439,686,o),
(373,712,o),
(285,712,cs),
(117,712,o),
(34,626,o),
(34,495,cs),
(34,373,o),
(119,311,o),
(228,297,cs),
(265,292,ls),
(318,285,o),
(345,255,o),
(345,210,cs),
(345,156,o),
(304,128,o),
(242,128,cs),
(176,128,o),
(133,143,o),
(71,180,c),
(25,54,l),
(92,11,o),
(155,-10,o),
(246,-10,cs)
);
}
);
width = 520;
},
{
anchors = (
{
name = bottom;
pos = (252,0);
},
{
name = top;
pos = (252,670);
}
);
background = {
shapes = (
{
closed = 1;
nodes = (
(389,562,o),
(346,574,o),
(290,574,cs),
(204,574,o),
(174,537,o),
(174,499,cs),
(174,463,o),
(196,444,o),
(238,441,cs),
(311,435,ls),
(434,425,o),
(509,341,o),
(509,224,cs),
(509,82,o),
(419,-10,o),
(249,-10,cs),
(154,-10,o),
(93,11,o),
(23,64,c),
(69,190,l),
(135,143,o),
(175,128,o),
(245,128,cs),
(318,128,o),
(359,160,o),
(359,218,cs),
(359,259,o),
(335,287,o),
(280,292,cs),
(210,298,ls),
(103,307,o),
(24,377,o),
(24,489,cs),
(24,615,o),
(112,712,o),
(285,712,cs),
(378,712,o),
(435,686,o),
(483,655,c),
(439,537,l)
);
}
);
};
layerId = "6DBC133B-A4A9-4EFF-965F-6B79E3B68C3E";
shapes = (
{
closed = 1;
nodes = (
(382,-10,o),
(465,80,o),
(465,201,cs),
(465,310,o),
(400,388,o),
(279,401,cs),
(231,406,ls),
(167,413,o),
(125,447,o),
(125,518,cs),
(125,587,o),
(178,635,o),
(274,635,cs),
(322,635,o),
(376,623,o),
(424,590,c),
(449,660,l),
(395,694,o),
(332,710,o),
(273,710,cs),
(131,710,o),
(43,626,o),
(43,513,cs),
(43,404,o),
(109,340,o),
(221,328,cs),
(269,323,ls),
(353,314,o),
(384,260,o),
(384,196,cs),
(384,120,o),
(336,67,o),
(241,67,cs),
(179,67,o),
(116,89,o),
(72,128,c),
(42,58,l),
(91,17,o),
(168,-10,o),
(245,-10,cs)
);
}
);
width = 503;
}
);
unicode = 83;
userData = {
com.schriftgestaltung.Glyphs.ColorIndex = 3;
com.typemytype.robofont.layerData = {
background = {
anchors = (
);
components = (
);
contours = (
{
points = (
{
smooth = 0;
x = 389;
y = 562;
},
{
smooth = 0;
x = 346;
y = 574;
},
{
segmentType = curve;
smooth = 1;
x = 290;
y = 574;
},
{
smooth = 0;
x = 204;
y = 574;
},
{
smooth = 0;
x = 174;
y = 537;
},
{
segmentType = curve;
smooth = 1;
x = 174;
y = 499;
},
{
smooth = 0;
x = 174;
y = 463;
},
{
smooth = 0;
x = 196;
y = 444;
},
{
segmentType = curve;
smooth = 1;
x = 238;
y = 441;
},
{
segmentType = line;
smooth = 1;
x = 311;
y = 435;
},
{
smooth = 0;
x = 434;
y = 425;
},
{
smooth = 0;
x = 509;
y = 341;
},
{
segmentType = curve;
smooth = 1;
x = 509;
y = 224;
},
{
smooth = 0;
x = 509;
y = 82;
},
{
smooth = 0;
x = 419;
y = -10;
},
{
segmentType = curve;
smooth = 1;
x = 249;
y = -10;
},
{
smooth = 0;
x = 154;
y = -10;
},
{
smooth = 0;
x = 93;
y = 11;
},
{
segmentType = curve;
smooth = 0;
x = 23;
y = 64;
},
{
segmentType = line;
smooth = 0;
x = 69;
y = 190;
},
{
smooth = 0;
x = 135;
y = 143;
},
{
smooth = 0;
x = 175;
y = 128;
},
{
segmentType = curve;
smooth = 1;
x = 245;
y = 128;
},
{
smooth = 0;
x = 318;
y = 128;
},
{
smooth = 0;
x = 359;
y = 160;
},
{
segmentType = curve;
smooth = 1;
x = 359;
y = 218;
},
{
smooth = 0;
x = 359;
y = 259;
},
{
smooth = 0;
x = 335;
y = 287;
},
{
segmentType = curve;
smooth = 1;
x = 280;
y = 292;
},
{
segmentType = line;
smooth = 1;
x = 210;
y = 298;
},
{
smooth = 0;
x = 103;
y = 307;
},
{
smooth = 0;
x = 24;
y = 377;
},
{
segmentType = curve;
smooth = 1;
x = 24;
y = 489;
},
{
smooth = 0;
x = 24;
y = 615;
},
{
smooth = 0;
x = 112;
y = 712;
},
{
segmentType = curve;
smooth = 1;
x = 285;
y = 712;
},
{
smooth = 0;
x = 378;
y = 712;
},
{
smooth = 0;
x = 435;
y = 686;
},
{
segmentType = curve;
smooth = 0;
x = 483;
y = 655;
},
{
segmentType = line;
smooth = 0;
x = 439;
y = 537;
}
);
}
);
lib = {
};
name = S;
unicodes = (
);
width = 503;
};
};
};
},
{
color = 6;
glyphname = T;
kernLeft = T;
kernRight = T;
lastChange = "2022-04-29 11:57:51 +0000";
layers = (
{
anchors = (
{
name = bottom;
pos = (251,0);
},
{
name = center;
pos = (255,350);
},
{
name = top;
pos = (255,700);
}
);
layerId = "BE73C5E5-17BA-4B8B-9704-EF1C804AF4CB";
shapes = (
{
closed = 1;
nodes = (
(335,0,l),
(335,560,l),
(490,560,l),
(490,700,l),
(20,700,l),
(20,560,l),
(175,560,l),
(175,0,l)
);
}
);
width = 510;
},
{
anchors = (
{
name = bottom;
pos = (244,0);
},
{
name = center;
pos = (244,350);
},
{
name = top;
pos = (244,670);
}
);
layerId = "6DBC133B-A4A9-4EFF-965F-6B79E3B68C3E";
shapes = (
{
closed = 1;
nodes = (
(285,0,l),
(285,622,l),
(458,622,l),
(458,700,l),
(30,700,l),
(30,622,l),
(202,622,l),
(202,0,l)
);
}
);
width = 488;
}
);
unicode = 84;
userData = {
com.schriftgestaltung.Glyphs.ColorIndex = 3;
};
},
{
color = 6;
glyphname = U;
kernLeft = U;
kernRight = U;
lastChange = "2022-04-29 11:57:51 +0000";
layers = (
{
anchors = (
{
name = bottom;
pos = (302,0);
},
{
name = ogonek;
pos = (379,0);
},
{
name = top;
pos = (302,700);
},
{
name = topright;
pos = (584,700);
}
);
layerId = "BE73C5E5-17BA-4B8B-9704-EF1C804AF4CB";
shapes = (
{
closed = 1;
nodes = (
(443,-10,o),
(540,82,o),
(541,216,cs),
(544,700,l),
(384,700,l),
(384,213,ls),
(384,164,o),
(349,131,o),
(302,131,cs),
(253,131,o),
(220,164,o),
(220,213,cs),
(220,700,l),
(60,700,l),
(60,216,ls),
(60,82,o),
(159,-10,o),
(302,-10,cs)
);
}
);
width = 604;
},
{
anchors = (
{
name = bottom;
pos = (305,0);
},
{
name = ogonek;
pos = (377,0);
},
{
name = top;
pos = (305,670);
},
{
name = topright;
pos = (589,700);
}
);
layerId = "6DBC133B-A4A9-4EFF-965F-6B79E3B68C3E";
shapes = (
{
closed = 1;
nodes = (
(434,-10,o),
(523,76,o),
(523,201,cs),
(524,700,l),
(440,700,l),
(440,201,ls),
(440,121,o),
(385,66,o),
(304,66,cs),
(223,66,o),
(168,121,o),
(168,201,cs),
(169,700,l),
(85,700,l),
(85,201,ls),
(85,76,o),
(174,-10,o),
(304,-10,cs)
);
}
);
width = 609;
}
);
unicode = 85;
userData = {
com.schriftgestaltung.Glyphs.ColorIndex = 3;
};
},
{
color = 6;
glyphname = V;
kernLeft = V;
kernRight = V;
lastChange = "2022-08-02 06:14:41 +0000";
layers = (
{
anchors = (
{
name = bottom;
pos = (281,0);
},
{
name = top;
pos = (281,700);
}
);
layerId = "BE73C5E5-17BA-4B8B-9704-EF1C804AF4CB";
shapes = (
{
closed = 1;
nodes = (
(385,0,l),
(541,700,l),
(384,700,l),
(294,227,l),
(287,137,ls),
(286,125,o),
(271,125,o),
(270,137,cs),
(264,227,l),
(178,700,l),
(20,700,l),
(172,0,l)
);
}
);
width = 561;
},
{
anchors = (
{
name = bottom;
pos = (268,0);
},
{
name = top;
pos = (268,670);
}
);
layerId = "6DBC133B-A4A9-4EFF-965F-6B79E3B68C3E";
shapes = (
{
closed = 1;
nodes = (
(331,0,l),
(516,700,l),
(431,700,l),
(283,126,l),
(275,73,ls),
(274,65,o),
(263,65,o),
(262,73,cs),
(253,126,l),
(105,700,l),
(20,700,l),
(204,0,l)
);
}
);
width = 536;
}
);
unicode = 86;
userData = {
com.schriftgestaltung.Glyphs.ColorIndex = 3;
};
},
{
color = 6;
glyphname = W;
kernLeft = W;
kernRight = W;
lastChange = "2022-08-02 06:14:51 +0000";
layers = (
{
anchors = (
{
name = bottom;
pos = (320,0);
},
{
name = top;
pos = (320,700);
}
);
layerId = "BE73C5E5-17BA-4B8B-9704-EF1C804AF4CB";
shapes = (
{
closed = 1;
nodes = (
(247,0,l),
(311,247,ls),
(314,257,o),
(326,257,o),
(329,247,cs),
(393,0,l),
(533,0,l),
(610,700,l),
(467,700,l),
(434,400,l),
(434,292,ls),
(434,276,o),
(420,278,o),
(417,288,cs),
(356,510,l),
(284,510,l),
(223,288,ls),
(220,278,o),
(206,277,o),
(206,292,cs),
(206,400,l),
(173,700,l),
(30,700,l),
(107,0,l)
);
}
);
width = 640;
},
{
anchors = (
{
name = bottom;
pos = (308,0);
},
{
name = top;
pos = (308,670);
}
);
layerId = "6DBC133B-A4A9-4EFF-965F-6B79E3B68C3E";
shapes = (
{
closed = 1;
nodes = (
(218,0,l),
(298,309,ls),
(302,325,o),
(314,325,o),
(318,309,cs),
(397,0,l),
(480,0,l),
(590,700,l),
(518,700,l),
(436,199,l),
(434,148,ls),
(434,136,o),
(423,134,o),
(420,146,cs),
(336,500,l),
(279,500,l),
(195,146,ls),
(192,134,o),
(181,136,o),
(181,148,cs),
(179,199,l),
(98,700,l),
(25,700,l),
(135,0,l)
);
}
);
width = 615;
}
);
unicode = 87;
userData = {
com.schriftgestaltung.Glyphs.ColorIndex = 3;
};
},
{
color = 6;
glyphname = X;
kernLeft = X;
kernRight = X;
lastChange = "2022-04-29 11:57:51 +0000";
layers = (
{
anchors = (
{
name = bottom;
pos = (285,0);
},
{
name = top;
pos = (285,700);
}
);
layerId = "BE73C5E5-17BA-4B8B-9704-EF1C804AF4CB";
metricLeft = "=V";
metricRight = "=V";
shapes = (
{
closed = 1;
nodes = (
(189,0,l),
(265,214,l),
(276,292,ls),
(278,304,o),
(289,304,o),
(293,292,c),
(305,214,l),
(381,0,l),
(550,0,l),
(405,355,l),
(550,700,l),
(381,700,l),
(305,496,l),
(293,418,l),
(289,406,o),
(278,406,o),
(276,418,cs),
(265,496,l),
(189,700,l),
(20,700,l),
(163,355,l),
(20,0,l)
);
}
);
width = 570;
},
{
anchors = (
{
name = bottom;
pos = (261,0);
},
{
name = top;
pos = (261,670);
}
);
layerId = "6DBC133B-A4A9-4EFF-965F-6B79E3B68C3E";
metricLeft = "=V";
metricRight = "=V";
shapes = (
{
closed = 1;
nodes = (
(114,0,l),
(241,255,l),
(254,296,ls),
(256,303,o),
(266,303,o),
(268,296,cs),
(281,255,l),
(408,0,l),
(502,0,l),
(316,350,l),
(502,700,l),
(408,700,l),
(281,445,l),
(268,404,ls),
(266,397,o),
(256,397,o),
(254,404,cs),
(241,445,l),
(114,700,l),
(20,700,l),
(206,350,l),
(20,0,l)
);
}
);
width = 522;
}
);
metricLeft = T;
metricRight = T;
unicode = 88;
userData = {
com.schriftgestaltung.Glyphs.ColorIndex = 3;
com.schriftgestaltung.Glyphs.layer.leftMetricsKey = "==V";
com.schriftgestaltung.Glyphs.layer.rightMetricsKey = "==V";
com.schriftgestaltung.Glyphs.leftMetricsKey = T;
com.schriftgestaltung.Glyphs.rightMetricsKey = T;
};
},
{
color = 6;
glyphname = Y;
kernLeft = Y;
kernRight = Y;
lastChange = "2022-08-02 06:15:32 +0000";
layers = (
{
anchors = (
{
name = bottom;
pos = (254,0);
},
{
name = top;
pos = (254,700);
},
{
name = topleft;
pos = (20,700);
}
);
layerId = "BE73C5E5-17BA-4B8B-9704-EF1C804AF4CB";
shapes = (
{
closed = 1;
nodes = (
(334,0,l),
(334,255,l),
(508,700,l),
(349,700,l),
(275,500,l),
(263,422,l),
(259,410,o),
(248,410,o),
(246,422,cs),
(235,500,l),
(161,700,l),
(0,700,l),
(174,255,l),
(174,0,l)
);
}
);
width = 508;
},
{
anchors = (
{
name = bottom;
pos = (241,0);
},
{
name = top;
pos = (241,670);
},
{
name = topleft;
pos = (20,700);
}
);
layerId = "6DBC133B-A4A9-4EFF-965F-6B79E3B68C3E";
shapes = (
{
closed = 1;
nodes = (
(281,0,l),
(281,330,l),
(482,700,l),
(388,700,l),
(261,445,l),
(248,404,ls),
(246,397,o),
(236,397,o),
(234,404,cs),
(221,445,l),
(94,700,l),
(0,700,l),
(201,330,l),
(201,0,l)
);
}
);
width = 482;
}
);
unicode = 89;
userData = {
com.schriftgestaltung.Glyphs.ColorIndex = 3;
};
},
{
color = 6;
glyphname = Z;
kernLeft = Z;
kernRight = Z;
lastChange = "2022-04-29 11:57:51 +0000";
layers = (
{
anchors = (
{
name = bottom;
pos = (264,0);
},
{
name = top;
pos = (264,700);
}
);
layerId = "BE73C5E5-17BA-4B8B-9704-EF1C804AF4CB";
metricLeft = "=H/2";
metricRight = "=H/2";
shapes = (
{
closed = 1;
nodes = (
(502,0,l),
(502,140,l),
(223,140,ls),
(212,140,o),
(209,150,o),
(217,158,cs),
(252,190,l),
(502,602,l),
(502,700,l),
(35,700,l),
(35,504,l),
(180,504,l),
(180,570,l),
(315,570,ls),
(326,570,o),
(329,560,o),
(321,552,cs),
(286,520,l),
(35,98,l),
(35,0,l)
);
}
);
width = 537;
},
{
anchors = (
{
name = bottom;
pos = (254,0);
},
{
name = top;
pos = (254,670);
}
);
layerId = "6DBC133B-A4A9-4EFF-965F-6B79E3B68C3E";
metricLeft = "=H/2";
metricRight = "=H/2";
shapes = (
{
closed = 1;
nodes = (
(462,0,l),
(462,78,l),
(155,78,ls),
(150,78,o),
(147,82,o),
(152,89,cs),
(185,136,l),
(462,652,l),
(462,700,l),
(55,700,l),
(55,547,l),
(128,547,l),
(128,630,l),
(356,630,ls),
(363,630,o),
(365,626,o),
(360,619,cs),
(327,572,l),
(45,48,l),
(45,0,l)
);
}
);
width = 507;
}
);
unicode = 90;
userData = {
com.schriftgestaltung.Glyphs.ColorIndex = 3;
com.schriftgestaltung.Glyphs.layer.leftMetricsKey = "==H/2";
com.schriftgestaltung.Glyphs.layer.rightMetricsKey = "==H/2";
};
},
{
color = 4;
glyphname = Z.ss01;
kernLeft = Z.ss01;
kernRight = Z.ss01;
lastChange = "2022-05-17 15:15:51 +0000";
layers = (
{
anchors = (
{
name = bottom;
pos = (264,0);
},
{
name = top;
pos = (264,700);
}
);
layerId = "BE73C5E5-17BA-4B8B-9704-EF1C804AF4CB";
metricLeft = "=Z";
metricRight = "=Z";
shapes = (
{
closed = 1;
nodes = (
(502,0,l),
(502,130,l),
(218,130,l),
(218,142,l),
(502,602,l),
(502,700,l),
(35,700,l),
(35,570,l),
(319,570,l),
(319,558,l),
(35,98,l),
(35,0,l)
);
}
);
width = 537;
},
{
anchors = (
{
name = bottom;
pos = (254,0);
},
{
name = top;
pos = (254,670);
}
);
layerId = "6DBC133B-A4A9-4EFF-965F-6B79E3B68C3E";
metricLeft = "=Z";
metricRight = "=Z";
shapes = (
{
closed = 1;
nodes = (
(462,0,l),
(462,78,l),
(153,78,l),
(153,88,l),
(462,652,l),
(462,700,l),
(45,700,l),
(45,622,l),
(353,622,l),
(353,612,l),
(45,48,l),
(45,0,l)
);
}
);
width = 507;
}
);
metricLeft = Z;
metricRight = Z;
userData = {
com.schriftgestaltung.Glyphs.layer.leftMetricsKey = "==Z";
com.schriftgestaltung.Glyphs.layer.rightMetricsKey = "==Z";
com.schriftgestaltung.Glyphs.leftMetricsKey = Z;
com.schriftgestaltung.Glyphs.rightMetricsKey = Z;
};
},
{
color = 6;
glyphname = a;
kernLeft = a;
kernRight = a;
lastChange = "2022-04-29 11:57:51 +0000";
layers = (
{
anchors = (
{
name = bottom;
pos = (253,0);
},
{
name = ogonek;
pos = (457,45);
},
{
name = top;
pos = (253,510);
}
);
background = {
shapes = (
{
ref = n;
}
);
};
layerId = "BE73C5E5-17BA-4B8B-9704-EF1C804AF4CB";
shapes = (
{
closed = 1;
nodes = (
(485,63,l),
(432,139,l),
(432,339,ls),
(432,445,o),
(365,522,o),
(220,522,cs),
(153,522,o),
(93,503,o),
(41,473,c),
(82,361,l),
(123,385,o),
(164,401,o),
(209,401,cs),
(269,401,o),
(298,379,o),
(298,338,cs),
(298,289,l),
(211,289,ls),
(112,289,o),
(35,238,o),
(35,142,cs),
(35,55,o),
(94,-8,o),
(192,-8,cs),
(246,-8,o),
(284,10,o),
(315,34,c),
(323,41,o),
(331,40,o),
(338,31,cs),
(370,-12,l)
);
},
{
closed = 1;
nodes = (
(190,97,o),
(165,118,o),
(165,144,cs),
(165,169,o),
(181,184,o),
(213,184,cs),
(244,184,l),
(280,195,ls),
(291,198,o),
(298,195,o),
(298,187,cs),
(298,174,ls),
(298,129,o),
(270,97,o),
(224,97,cs)
);
}
);
width = 505;
},
{
anchors = (
{
name = bottom;
pos = (243,0);
},
{
name = ogonek;
pos = (441,28);
},
{
name = top;
pos = (243,500);
}
);
background = {
shapes = (
{
pos = (-5,0);
ref = n;
}
);
};
layerId = "6DBC133B-A4A9-4EFF-965F-6B79E3B68C3E";
shapes = (
{
closed = 1;
nodes = (
(446,32,l),
(403,96,l),
(403,351,ls),
(403,443,o),
(345,512,o),
(227,512,cs),
(164,512,o),
(115,498,o),
(64,459,c),
(89,389,l),
(132,422,o),
(170,437,o),
(222,437,cs),
(294,437,o),
(326,399,o),
(326,342,cs),
(326,270,l),
(209,270,ls),
(112,270,o),
(50,219,o),
(50,130,cs),
(50,46,o),
(110,-11,o),
(205,-11,cs),
(263,-11,o),
(294,11,o),
(326,39,cs),
(331,43,o),
(336,43,o),
(340,37,cs),
(373,-12,l)
);
},
{
closed = 1;
nodes = (
(161,58,o),
(130,89,o),
(130,133,cs),
(130,176,o),
(162,200,o),
(215,200,cs),
(253,200,l),
(308,212,ls),
(319,215,o),
(326,209,o),
(326,198,cs),
(326,153,ls),
(326,95,o),
(281,58,o),
(209,58,cs)
);
}
);
width = 491;
}
);
unicode = 97;
userData = {
com.schriftgestaltung.Glyphs.ColorIndex = 3;
com.typemytype.robofont.layerData = {
background = {
anchors = (
);
components = (
{
baseGlyph = n;
transformation = (
1,
0,
0,
1,
-5,
0
);
}
);
contours = (
);
lib = {
};
name = a;
unicodes = (
);
width = 491;
};
};
};
},
{
color = 6;
glyphname = ae;
kernLeft = a;
kernRight = e;
lastChange = "2022-04-29 11:57:51 +0000";
layers = (
{
anchors = (
{
name = bottom;
pos = (374,0);
},
{
name = top;
pos = (374,510);
}
);
layerId = "BE73C5E5-17BA-4B8B-9704-EF1C804AF4CB";
shapes = (
{
closed = 1;
nodes = (
(253,-9,o),
(299,7,o),
(337,34,c),
(354,53,ls),
(359,59,o),
(366,60,o),
(371,54,cs),
(390,33,l),
(431,6,o),
(485,-9,o),
(550,-9,cs),
(604,-9,o),
(657,4,o),
(702,34,c),
(664,141,l),
(623,122,o),
(588,112,o),
(550,112,cs),
(478,112,o),
(437,142,o),
(437,219,c),
(711,219,l),
(732,271,l),
(732,431,o),
(662,520,o),
(516,520,cs),
(471,520,o),
(433,510,o),
(401,492,c),
(384,473,ls),
(379,467,o),
(373,467,o),
(368,473,cs),
(350,493,l),
(317,511,o),
(274,522,o),
(220,522,cs),
(153,522,o),
(93,503,o),
(41,473,c),
(82,361,l),
(123,385,o),
(164,401,o),
(209,401,cs),
(269,401,o),
(298,379,o),
(298,338,cs),
(298,289,l),
(211,289,ls),
(112,289,o),
(35,238,o),
(35,142,cs),
(35,55,o),
(98,-9,o),
(202,-9,cs)
);
},
{
closed = 1;
nodes = (
(190,97,o),
(165,118,o),
(165,144,cs),
(165,169,o),
(181,184,o),
(213,184,cs),
(244,184,l),
(280,195,ls),
(291,198,o),
(298,195,o),
(298,187,cs),
(298,174,ls),
(298,129,o),
(270,97,o),
(224,97,cs)
);
},
{
closed = 1;
nodes = (
(445,372,o),
(467,403,o),
(518,403,cs),
(576,403,o),
(592,362,o),
(596,320,c),
(439,320,l)
);
}
);
width = 767;
},
{
anchors = (
{
name = bottom;
pos = (372,0);
},
{
name = top;
pos = (372,500);
}
);
layerId = "6DBC133B-A4A9-4EFF-965F-6B79E3B68C3E";
shapes = (
{
closed = 1;
nodes = (
(252,-11,o),
(303,3,o),
(349,43,c),
(360,64,ls),
(364,71,o),
(370,71,o),
(374,64,cs),
(386,43,l),
(419,10,o),
(467,-10,o),
(531,-10,cs),
(597,-10,o),
(635,4,o),
(690,43,c),
(666,104,l),
(628,75,o),
(582,58,o),
(531,58,cs),
(430,58,o),
(404,122,o),
(404,233,c),
(688,232,l),
(708,285,l),
(708,374,o),
(684,510,o),
(522,510,cs),
(473,510,o),
(435,494,o),
(404,471,c),
(384,445,ls),
(379,438,o),
(374,438,o),
(369,445,cs),
(349,471,l),
(320,497,o),
(282,512,o),
(227,512,cs),
(164,512,o),
(115,498,o),
(64,459,c),
(89,389,l),
(132,422,o),
(170,437,o),
(222,437,cs),
(294,437,o),
(326,399,o),
(326,342,cs),
(326,270,l),
(209,270,ls),
(112,270,o),
(50,219,o),
(50,130,cs),
(50,46,o),
(110,-11,o),
(205,-11,cs)
);
},
{
closed = 1;
nodes = (
(161,58,o),
(130,89,o),
(130,133,cs),
(130,176,o),
(162,200,o),
(215,200,cs),
(253,200,l),
(308,212,l),
(319,215,o),
(326,209,o),
(326,198,cs),
(326,153,ls),
(326,95,o),
(281,58,o),
(209,58,cs)
);
},
{
closed = 1;
nodes = (
(405,385,o),
(446,440,o),
(522,440,cs),
(612,440,o),
(632,370,o),
(632,302,c),
(405,302,l)
);
}
);
width = 753;
}
);
metricLeft = a;
metricRight = e;
unicode = 230;
userData = {
com.schriftgestaltung.Glyphs.leftMetricsKey = a;
com.schriftgestaltung.Glyphs.rightMetricsKey = e;
};
},
{
color = 6;
glyphname = b;
kernLeft = b;
kernRight = o;
lastChange = "2022-04-29 11:57:51 +0000";
layers = (
{
anchors = (
{
name = bottom;
pos = (294,0);
},
{
name = top;
pos = (334,510);
}
);
background = {
shapes = (
{
pos = (510,0);
ref = a;
scale = (-1,1);
}
);
};
layerId = "BE73C5E5-17BA-4B8B-9704-EF1C804AF4CB";
metricLeft = "=h-40";
metricRight = "=o";
shapes = (
{
closed = 1;
nodes = (
(172,29,ls),
(179,38,o),
(187,39,o),
(197,32,cs),
(235,4,o),
(274,-10,o),
(318,-10,cs),
(445,-10,o),
(519,57,o),
(528,174,cs),
(531,207,o),
(533,232,o),
(533,257,cs),
(533,289,o),
(532,319,o),
(528,358,cs),
(517,463,o),
(460,522,o),
(338,522,cs),
(295,522,o),
(252,509,o),
(228,491,c),
(228,750,l),
(78,750,l),
(78,138,l),
(25,63,l),
(140,-12,l)
);
},
{
closed = 1;
nodes = (
(256,116,o),
(228,145,o),
(228,186,cs),
(228,325,ls),
(228,370,o),
(251,397,o),
(305,397,cs),
(351,397,o),
(375,372,o),
(378,338,cs),
(383,282,o),
(383,228,o),
(378,172,cs),
(375,141,o),
(354,116,o),
(305,116,cs)
);
}
);
width = 578;
},
{
anchors = (
{
name = bottom;
pos = (263,0);
},
{
name = top;
pos = (263,500);
}
);
background = {
shapes = (
{
pos = (491,0);
ref = a;
scale = (-1,1);
}
);
};
layerId = "6DBC133B-A4A9-4EFF-965F-6B79E3B68C3E";
metricLeft = "=h-45";
metricRight = "=o";
shapes = (
{
closed = 1;
nodes = (
(143,32,ls),
(148,39,o),
(156,39,o),
(164,33,cs),
(188,13,o),
(225,-10,o),
(282,-10,cs),
(398,-10,o),
(457,60,o),
(467,162,cs),
(470,197,o),
(472,224,o),
(472,251,cs),
(472,279,o),
(471,306,o),
(467,339,cs),
(455,440,o),
(398,510,o),
(282,510,cs),
(234,510,o),
(189,490,o),
(163,465,c),
(163,750,l),
(83,750,l),
(83,95,l),
(40,32,l),
(113,-12,l)
);
},
{
closed = 1;
nodes = (
(203,58,o),
(163,94,o),
(163,148,cs),
(163,352,ls),
(163,406,o),
(203,440,o),
(273,440,cs),
(353,440,o),
(385,393,o),
(390,333,cs),
(394,278,o),
(395,222,o),
(390,167,cs),
(384,107,o),
(353,58,o),
(273,58,cs)
);
}
);
width = 527;
}
);
metricLeft = "=h-45";
unicode = 98;
userData = {
com.schriftgestaltung.Glyphs.ColorIndex = 3;
com.schriftgestaltung.Glyphs.layer.leftMetricsKey = "==h-45";
com.schriftgestaltung.Glyphs.layer.rightMetricsKey = "==o";
com.schriftgestaltung.Glyphs.leftMetricsKey = "=h-45";
com.typemytype.robofont.layerData = {
background = {
anchors = (
);
components = (
{
baseGlyph = a;
transformation = (
-1,
0,
0,
1,
491,
0
);
}
);
contours = (
);
lib = {
};
name = b;
unicodes = (
);
width = 527;
};
};
};
},
{
color = 6;
glyphname = c;
kernLeft = o;
kernRight = c;
lastChange = "2022-04-29 11:57:51 +0000";
layers = (
{
anchors = (
{
name = bottom;
pos = (242,0);
},
{
name = top;
pos = (242,500);
}
);
layerId = "BE73C5E5-17BA-4B8B-9704-EF1C804AF4CB";
metricLeft = "=o";
shapes = (
{
closed = 1;
nodes = (
(332,-12,o),
(385,2,o),
(430,37,c),
(392,144,l),
(355,121,o),
(323,112,o),
(288,112,cs),
(229,112,o),
(195,145,o),
(192,186,cs),
(188,237,o),
(188,274,o),
(192,325,cs),
(195,367,o),
(229,399,o),
(285,399,cs),
(330,399,o),
(359,387,o),
(389,364,c),
(429,474,l),
(393,504,o),
(339,522,o),
(275,522,cs),
(142,522,o),
(65,448,o),
(51,346,cs),
(46,313,o),
(45,284,o),
(45,256,cs),
(45,228,o),
(47,198,o),
(51,166,cs),
(64,64,o),
(142,-12,o),
(278,-12,cs)
);
}
);
width = 460;
},
{
anchors = (
{
name = bottom;
pos = (255,0);
},
{
name = top;
pos = (255,500);
}
);
layerId = "6DBC133B-A4A9-4EFF-965F-6B79E3B68C3E";
metricLeft = "=o";
shapes = (
{
closed = 1;
nodes = (
(310,-14,o),
(350,0,o),
(401,34,c),
(378,94,l),
(340,70,o),
(300,58,o),
(256,58,cs),
(182,58,o),
(142,107,o),
(137,165,cs),
(132,226,o),
(133,270,o),
(137,333,cs),
(141,391,o),
(182,440,o),
(256,440,cs),
(301,440,o),
(334,427,o),
(372,403,c),
(396,468,l),
(352,497,o),
(314,512,o),
(255,512,cs),
(139,512,o),
(73,438,o),
(61,338,cs),
(57,305,o),
(55,277,o),
(55,249,cs),
(55,221,o),
(57,193,o),
(61,160,cs),
(73,60,o),
(139,-14,o),
(255,-14,cs)
);
}
);
width = 441;
}
);
metricLeft = o;
unicode = 99;
userData = {
com.schriftgestaltung.Glyphs.ColorIndex = 3;
com.schriftgestaltung.Glyphs.layer.leftMetricsKey = "==o";
com.schriftgestaltung.Glyphs.leftMetricsKey = o;
};
},
{
color = 6;
glyphname = d;
kernLeft = o;
kernRight = l;
lastChange = "2022-04-29 11:57:51 +0000";
layers = (
{
anchors = (
{
name = bottom;
pos = (278,0);
},
{
name = center;
pos = (422,614);
},
{
name = top;
pos = (278,510);
},
{
name = topright;
pos = (610,750);
}
);
layerId = "BE73C5E5-17BA-4B8B-9704-EF1C804AF4CB";
metricLeft = "=o";
metricRight = "=n";
shapes = (
{
closed = 1;
nodes = (
(243,-10,o),
(254,-9,o),
(265,-6,c),
(329,31,ls),
(343,39,o),
(350,34,o),
(350,23,cs),
(350,0,l),
(500,0,l),
(500,750,l),
(350,750,l),
(350,491,l),
(326,509,o),
(284,522,o),
(241,522,cs),
(119,522,o),
(61,463,o),
(50,358,cs),
(46,319,o),
(45,289,o),
(45,257,cs),
(45,226,o),
(47,195,o),
(50,154,cs),
(59,50,o),
(115,-10,o),
(231,-10,cs)
);
},
{
closed = 1;
nodes = (
(224,114,o),
(203,139,o),
(200,170,cs),
(195,226,o),
(195,285,o),
(200,341,cs),
(203,372,o),
(227,397,o),
(273,397,cs),
(327,397,o),
(350,370,o),
(350,328,cs),
(350,184,ls),
(350,143,o),
(322,114,o),
(273,114,cs)
);
}
);
width = 560;
},
{
anchors = (
{
name = bottom;
pos = (267,0);
},
{
name = center;
pos = (404,611);
},
{
name = top;
pos = (267,500);
},
{
name = topright;
pos = (564,750);
}
);
layerId = "6DBC133B-A4A9-4EFF-965F-6B79E3B68C3E";
metricLeft = "=o";
metricRight = "=i";
shapes = (
{
closed = 1;
nodes = (
(268,-10,o),
(277,-8,o),
(293,-4,c),
(343,27,ls),
(354,34,o),
(364,30,o),
(364,18,cs),
(364,0,l),
(444,0,l),
(444,750,l),
(364,750,l),
(364,472,l),
(338,495,o),
(292,510,o),
(245,510,cs),
(129,510,o),
(68,440,o),
(59,339,cs),
(56,306,o),
(55,279,o),
(55,251,cs),
(55,224,o),
(56,197,o),
(59,162,cs),
(68,60,o),
(129,-10,o),
(245,-10,cs)
);
},
{
closed = 1;
nodes = (
(174,58,o),
(142,107,o),
(137,167,cs),
(133,222,o),
(132,278,o),
(137,333,cs),
(143,393,o),
(174,440,o),
(254,440,cs),
(324,440,o),
(364,406,o),
(364,352,cs),
(364,148,ls),
(364,94,o),
(324,58,o),
(254,58,cs)
);
}
);
width = 529;
}
);
metricRight = l;
unicode = 100;
userData = {
com.schriftgestaltung.Glyphs.ColorIndex = 3;
com.schriftgestaltung.Glyphs.layer.leftMetricsKey = "==o";
com.schriftgestaltung.Glyphs.layer.rightMetricsKey = "==i";
com.schriftgestaltung.Glyphs.rightMetricsKey = l;
};
},
{
color = 3;
glyphname = eth;
kernLeft = eth;
kernRight = eth;
lastChange = "2022-04-29 11:57:51 +0000";
layers = (
{
layerId = "BE73C5E5-17BA-4B8B-9704-EF1C804AF4CB";
shapes = (
{
closed = 1;
nodes = (
(443,623,l),
(394,700,l),
(140,570,l),
(187,489,l)
);
},
{
pos = (581,0);
ref = six;
scale = (-1,1);
}
);
width = 581;
},
{
layerId = "6DBC133B-A4A9-4EFF-965F-6B79E3B68C3E";
shapes = (
{
closed = 1;
nodes = (
(409,651,l),
(374,700,l),
(149,545,l),
(187,496,l)
);
},
{
pos = (557,0);
ref = six;
scale = (-1,1);
}
);
width = 557;
}
);
metricLeft = six;
metricRight = six;
unicode = 240;
userData = {
com.schriftgestaltung.Glyphs.leftMetricsKey = six;
com.schriftgestaltung.Glyphs.rightMetricsKey = six;
};
},
{
color = 6;
glyphname = e;
kernLeft = o;
kernRight = e;
lastChange = "2022-04-29 11:57:51 +0000";
layers = (
{
anchors = (
{
name = bottom;
pos = (260,0);
},
{
name = ogonek;
pos = (404,10);
},
{
name = top;
pos = (263,510);
}
);
layerId = "BE73C5E5-17BA-4B8B-9704-EF1C804AF4CB";
metricLeft = "=o";
shapes = (
{
closed = 1;
nodes = (
(351,-10,o),
(404,4,o),
(449,34,c),
(411,141,l),
(370,122,o),
(335,112,o),
(297,112,cs),
(238,112,o),
(191,132,o),
(185,200,cs),
(182,237,o),
(183,271,o),
(185,306,cs),
(188,366,o),
(210,403,o),
(265,403,cs),
(323,403,o),
(339,362,o),
(343,320,c),
(74,320,l),
(76,219,l),
(458,219,l),
(479,271,l),
(479,431,o),
(409,520,o),
(263,520,cs),
(140,520,o),
(65,442,o),
(51,338,cs),
(47,305,o),
(45,277,o),
(45,249,cs),
(45,221,o),
(47,195,o),
(51,163,cs),
(67,64,o),
(158,-10,o),
(297,-10,cs)
);
}
);
width = 514;
},
{
anchors = (
{
name = bottom;
pos = (248,0);
},
{
name = ogonek;
pos = (362,10);
},
{
name = top;
pos = (249,500);
}
);
layerId = "6DBC133B-A4A9-4EFF-965F-6B79E3B68C3E";
metricLeft = "=o";
shapes = (
{
closed = 1;
nodes = (
(325,-10,o),
(363,4,o),
(418,43,c),
(394,104,l),
(356,75,o),
(310,58,o),
(259,58,cs),
(177,58,o),
(142,109,o),
(136,166,cs),
(128,239,o),
(132,300,o),
(135,333,cs),
(140,389,o),
(179,440,o),
(250,440,cs),
(340,440,o),
(360,370,o),
(360,302,c),
(114,302,l),
(114,233,l),
(416,232,l),
(436,285,l),
(436,374,o),
(412,510,o),
(250,510,cs),
(138,510,o),
(72,436,o),
(61,338,cs),
(57,305,o),
(55,277,o),
(55,249,cs),
(55,221,o),
(57,194,o),
(61,162,cs),
(73,64,o),
(136,-10,o),
(259,-10,cs)
);
}
);
width = 481;
}
);
metricLeft = o;
unicode = 101;
userData = {
com.schriftgestaltung.Glyphs.ColorIndex = 3;
com.schriftgestaltung.Glyphs.layer.leftMetricsKey = "==o";
com.schriftgestaltung.Glyphs.leftMetricsKey = o;
};
},
{
color = 6;
glyphname = ezh;
lastChange = "2022-04-29 11:57:51 +0000";
layers = (
{
anchors = (
{
name = bottom;
pos = (259,0);
},
{
name = top;
pos = (259,500);
}
);
layerId = "6DBC133B-A4A9-4EFF-965F-6B79E3B68C3E";
shapes = (
{
closed = 1;
nodes = (
(339,-256,o),
(468,-197,o),
(468,-23,cs),
(468,139,o),
(366,207,o),
(186,207,c),
(233,185,l),
(444,452,l),
(444,500,l),
(55,500,l),
(55,430,l),
(333,430,ls),
(340,430,o),
(342,426,o),
(336,420,cs),
(300,385,l),
(138,180,l),
(138,134,l),
(197,134,ls),
(331,134,o),
(386,77,o),
(386,-23,cs),
(386,-114,o),
(333,-179,o),
(226,-179,cs),
(163,-179,o),
(100,-152,o),
(59,-114,c),
(30,-183,l),
(87,-231,o),
(149,-256,o),
(227,-256,cs)
);
}
);
width = 518;
},
{
anchors = (
{
name = bottom;
pos = (267,0);
},
{
name = top;
pos = (267,510);
}
);
layerId = "BE73C5E5-17BA-4B8B-9704-EF1C804AF4CB";
shapes = (
{
closed = 1;
nodes = (
(338,-260,o),
(494,-180,o),
(494,3,cs),
(494,164,o),
(401,235,o),
(244,244,c),
(253,184,l),
(452,412,l),
(452,510,l),
(35,510,l),
(35,380,l),
(249,380,ls),
(260,380,o),
(265,370,o),
(255,362,c),
(225,335,l),
(126,202,l),
(126,112,l),
(222,112,ls),
(311,112,o),
(346,61,o),
(346,-3,cs),
(346,-80,o),
(297,-123,o),
(209,-123,cs),
(155,-123,o),
(110,-110,o),
(62,-69,c),
(15,-186,l),
(77,-243,o),
(139,-260,o),
(220,-260,cs)
);
}
);
width = 534;
}
);
unicode = 658;
},
{
color = 6;
glyphname = f;
kernLeft = f;
kernRight = f;
lastChange = "2022-04-29 11:57:51 +0000";
layers = (
{
anchors = (
{
name = bottom;
pos = (195,0);
},
{
name = top;
pos = (195,510);
}
);
layerId = "BE73C5E5-17BA-4B8B-9704-EF1C804AF4CB";
shapes = (
{
closed = 1;
nodes = (
(256,0,l),
(256,386,l),
(360,386,l),
(360,510,l),
(256,510,l),
(256,566,ls),
(256,602,o),
(280,627,o),
(349,627,cs),
(377,627,o),
(412,619,o),
(443,598,c),
(490,700,l),
(451,733,o),
(392,753,o),
(327,753,cs),
(193,753,o),
(106,684,o),
(106,566,cs),
(106,510,l),
(20,510,l),
(20,386,l),
(106,386,l),
(106,0,l)
);
}
);
width = 390;
},
{
anchors = (
{
name = bottom;
pos = (183,0);
},
{
name = top;
pos = (183,500);
}
);
layerId = "6DBC133B-A4A9-4EFF-965F-6B79E3B68C3E";
shapes = (
{
closed = 1;
nodes = (
(209,0,l),
(209,430,l),
(340,430,l),
(340,500,l),
(209,500,l),
(209,585,ls),
(209,647,o),
(256,684,o),
(334,684,cs),
(379,684,o),
(416,669,o),
(446,640,c),
(480,700,l),
(445,732,o),
(392,753,o),
(330,753,cs),
(191,753,o),
(132,671,o),
(132,582,cs),
(132,500,l),
(30,500,l),
(30,430,l),
(132,430,l),
(132,0,l)
);
}
);
width = 365;
}
);
unicode = 102;
userData = {
com.schriftgestaltung.Glyphs.ColorIndex = 3;
};
},
{
color = 6;
glyphname = g;
kernLeft = o;
kernRight = g;
lastChange = "2022-04-29 11:57:51 +0000";
layers = (
{
anchors = (
{
name = bottom;
pos = (277,0);
},
{
name = top;
pos = (277,510);
}
);
layerId = "BE73C5E5-17BA-4B8B-9704-EF1C804AF4CB";
metricLeft = "=o";
shapes = (
{
closed = 1;
nodes = (
(408,-214,o),
(499,-121,o),
(499,-24,cs),
(499,510,l),
(349,510,l),
(349,481,l),
(325,504,o),
(283,522,o),
(240,522,cs),
(119,522,o),
(59,463,o),
(50,358,cs),
(46,319,o),
(45,289,o),
(45,257,cs),
(45,226,o),
(46,195,o),
(50,154,cs),
(59,50,o),
(122,-10,o),
(220,-10,cs),
(237,-10,o),
(251,-9,o),
(263,-7,c),
(330,32,ls),
(341,38,o),
(350,35,o),
(350,24,cs),
(350,2,ls),
(350,-65,o),
(312,-94,o),
(258,-94,c),
(192,-94,o),
(178,-92,o),
(118,-61,c),
(76,-169,l),
(147,-204,o),
(182,-214,o),
(257,-214,c)
);
},
{
closed = 1;
nodes = (
(223,113,o),
(203,138,o),
(200,169,cs),
(194,225,o),
(195,284,o),
(200,341,cs),
(203,372,o),
(226,397,o),
(272,397,cs),
(326,397,o),
(349,370,o),
(349,328,cs),
(349,183,ls),
(349,142,o),
(321,113,o),
(272,113,cs)
);
}
);
width = 559;
},
{
anchors = (
{
name = bottom;
pos = (260,0);
},
{
name = top;
pos = (260,500);
}
);
layerId = "6DBC133B-A4A9-4EFF-965F-6B79E3B68C3E";
metricLeft = "=o";
shapes = (
{
closed = 1;
nodes = (
(390,-203,o),
(444,-114,o),
(444,-22,cs),
(444,500,l),
(364,500,l),
(364,472,l),
(338,495,o),
(292,510,o),
(245,510,cs),
(129,510,o),
(68,440,o),
(59,339,cs),
(56,306,o),
(55,279,o),
(55,251,cs),
(55,224,o),
(56,197,o),
(59,162,cs),
(68,60,o),
(129,-10,o),
(245,-10,cs),
(268,-10,o),
(277,-8,o),
(293,-3,c),
(345,27,l),
(356,34,o),
(364,33,o),
(364,18,cs),
(364,-40,ls),
(364,-98,o),
(317,-131,o),
(242,-131,cs),
(185,-131,o),
(141,-119,o),
(110,-95,c),
(91,-160,l),
(133,-190,o),
(179,-203,o),
(243,-203,cs)
);
},
{
closed = 1;
nodes = (
(174,58,o),
(142,107,o),
(137,167,cs),
(133,222,o),
(132,278,o),
(137,333,cs),
(143,393,o),
(174,440,o),
(254,440,cs),
(324,440,o),
(364,406,o),
(364,352,cs),
(364,148,ls),
(364,94,o),
(324,58,o),
(254,58,cs)
);
}
);
width = 524;
}
);
metricRight = n;
unicode = 103;
userData = {
com.schriftgestaltung.Glyphs.ColorIndex = 3;
com.schriftgestaltung.Glyphs.layer.leftMetricsKey = "==o";
com.schriftgestaltung.Glyphs.rightMetricsKey = n;
};
},
{
color = 6;
glyphname = gstroke;
kernLeft = o;
kernRight = g;
lastChange = "2022-04-29 11:57:51 +0000";
layers = (
{
anchors = (
{
name = _center;
pos = (434,9);
},
{
name = bottom;
pos = (277,0);
},
{
name = top;
pos = (277,510);
}
);
layerId = "6DBC133B-A4A9-4EFF-965F-6B79E3B68C3E";
shapes = (
{
closed = 1;
nodes = (
(390,-203,o),
(444,-114,o),
(444,-22,cs),
(444,500,l),
(364,500,l),
(364,472,l),
(338,495,o),
(292,510,o),
(245,510,cs),
(129,510,o),
(68,444,o),
(59,349,cs),
(56,324,o),
(55,303,o),
(55,281,cs),
(55,260,o),
(56,239,o),
(59,212,cs),
(68,116,o),
(129,50,o),
(245,50,cs),
(268,50,o),
(277,52,o),
(293,57,c),
(345,87,l),
(356,94,o),
(364,93,o),
(364,78,cs),
(364,-40,ls),
(364,-98,o),
(317,-131,o),
(242,-131,cs),
(185,-131,o),
(141,-119,o),
(110,-95,c),
(91,-160,l),
(133,-190,o),
(179,-203,o),
(243,-203,cs)
);
},
{
closed = 1;
nodes = (
(554,-69,l),
(554,0,l),
(223,0,l),
(223,-69,l)
);
},
{
closed = 1;
nodes = (
(174,118,o),
(142,168,o),
(137,227,cs),
(133,267,o),
(132,298,o),
(137,333,cs),
(143,393,o),
(174,440,o),
(254,440,cs),
(324,440,o),
(364,406,o),
(364,352,cs),
(364,208,ls),
(364,154,o),
(324,118,o),
(254,118,cs)
);
}
);
width = 524;
},
{
anchors = (
{
name = _center;
pos = (434,9);
},
{
name = bottom;
pos = (277,0);
},
{
name = top;
pos = (277,510);
}
);
layerId = "BE73C5E5-17BA-4B8B-9704-EF1C804AF4CB";
shapes = (
{
closed = 1;
nodes = (
(412,-214,o),
(499,-121,o),
(499,-24,cs),
(499,510,l),
(349,510,l),
(349,481,l),
(325,504,o),
(283,522,o),
(240,522,cs),
(119,522,o),
(61,467,o),
(50,368,cs),
(47,341,o),
(46,319,o),
(46,297,cs),
(46,275,o),
(47,253,o),
(50,224,cs),
(60,126,o),
(122,70,o),
(220,70,cs),
(237,70,o),
(251,71,o),
(263,73,c),
(330,92,ls),
(341,98,o),
(350,95,o),
(350,84,cs),
(350,-18,ls),
(350,-71,o),
(312,-94,o),
(258,-94,c),
(192,-94,o),
(178,-92,o),
(118,-61,c),
(76,-169,l),
(151,-204,o),
(188,-214,o),
(267,-214,c)
);
},
{
closed = 1;
nodes = (
(587,-54,l),
(587,40,l),
(211,40,l),
(211,-54,l)
);
},
{
closed = 1;
nodes = (
(223,193,o),
(204,214,o),
(198,249,cs),
(193,281,o),
(194,314,o),
(198,341,cs),
(204,376,o),
(226,397,o),
(272,397,cs),
(326,397,o),
(349,380,o),
(349,338,cs),
(349,233,ls),
(349,210,o),
(321,193,o),
(272,193,cs)
);
}
);
width = 600;
}
);
unicode = 485;
},
{
color = 6;
glyphname = h;
kernLeft = h;
kernRight = n;
lastChange = "2022-04-29 11:57:51 +0000";
layers = (
{
anchors = (
{
name = bottom;
pos = (282,0);
},
{
name = center;
pos = (138,612);
},
{
name = top;
pos = (299,750);
}
);
layerId = "BE73C5E5-17BA-4B8B-9704-EF1C804AF4CB";
metricLeft = "=n";
metricRight = "=n";
shapes = (
{
closed = 1;
nodes = (
(211,0,l),
(211,305,ls),
(211,362,o),
(230,387,o),
(284,387,cs),
(339,387,o),
(353,362,o),
(353,305,cs),
(353,0,l),
(503,0,l),
(503,366,ls),
(503,471,o),
(421,522,o),
(332,522,cs),
(285,522,o),
(245,510,o),
(211,492,c),
(211,750,l),
(65,750,l),
(65,0,l)
);
}
);
width = 563;
},
{
anchors = (
{
name = bottom;
pos = (266,0);
},
{
name = center;
pos = (125,610);
},
{
name = top;
pos = (286,750);
}
);
layerId = "6DBC133B-A4A9-4EFF-965F-6B79E3B68C3E";
metricLeft = "=n";
metricRight = "=n";
shapes = (
{
closed = 1;
nodes = (
(165,0,l),
(165,348,ls),
(165,404,o),
(205,440,o),
(275,440,cs),
(340,440,o),
(377,404,o),
(377,348,cs),
(377,0,l),
(457,0,l),
(457,357,ls),
(457,449,o),
(393,512,o),
(293,512,cs),
(237,512,o),
(192,492,o),
(165,471,c),
(165,750,l),
(85,750,l),
(85,0,l)
);
}
);
width = 537;
}
);
metricLeft = n;
metricRight = n;
unicode = 104;
userData = {
com.schriftgestaltung.Glyphs.ColorIndex = 3;
com.schriftgestaltung.Glyphs.layer.leftMetricsKey = "==n";
com.schriftgestaltung.Glyphs.layer.rightMetricsKey = "==n";
com.schriftgestaltung.Glyphs.leftMetricsKey = n;
com.schriftgestaltung.Glyphs.rightMetricsKey = n;
};
},
{
color = 6;
glyphname = i;
kernLeft = i;
kernRight = i;
lastChange = "2022-04-29 11:57:51 +0000";
layers = (
{
anchors = (
{
name = bottom;
pos = (180,0);
}
);
layerId = "BE73C5E5-17BA-4B8B-9704-EF1C804AF4CB";
shapes = (
{
closed = 1;
nodes = (
(260,0,l),
(260,510,l),
(20,510,l),
(20,386,l),
(110,386,l),
(110,0,l)
);
},
{
closed = 1;
nodes = (
(260,578,l),
(260,700,l),
(110,700,l),
(110,578,l)
);
}
);
width = 325;
},
{
anchors = (
{
name = bottom;
pos = (143,0);
}
);
layerId = "6DBC133B-A4A9-4EFF-965F-6B79E3B68C3E";
shapes = (
{
closed = 1;
nodes = (
(200,0,l),
(200,500,l),
(50,500,l),
(50,430,l),
(120,430,l),
(120,0,l)
);
},
{
closed = 1;
nodes = (
(200,600,l),
(200,700,l),
(120,700,l),
(120,600,l)
);
}
);
width = 285;
}
);
unicode = 105;
userData = {
com.schriftgestaltung.Glyphs.ColorIndex = 3;
};
},
{
color = 4;
glyphname = i.ss01;
kernLeft = i.ss01;
kernRight = i.ss01;
lastChange = "2022-05-17 15:25:38 +0000";
layers = (
{
anchors = (
{
name = bottom;
pos = (138,0);
}
);
layerId = "BE73C5E5-17BA-4B8B-9704-EF1C804AF4CB";
metricRight = "=i";
shapes = (
{
closed = 1;
nodes = (
(211,0,l),
(211,511,l),
(65,511,l),
(65,0,l)
);
},
{
closed = 1;
nodes = (
(211,578,l),
(211,700,l),
(65,700,l),
(65,578,l)
);
}
);
width = 276;
},
{
anchors = (
{
name = bottom;
pos = (125,0);
}
);
layerId = "6DBC133B-A4A9-4EFF-965F-6B79E3B68C3E";
metricRight = "=i";
shapes = (
{
closed = 1;
nodes = (
(165,0,l),
(165,500,l),
(85,500,l),
(85,0,l)
);
},
{
closed = 1;
nodes = (
(165,600,l),
(165,700,l),
(85,700,l),
(85,600,l)
);
}
);
width = 250;
}
);
metricLeft = "=n";
metricRight = i;
userData = {
com.schriftgestaltung.Glyphs.layer.rightMetricsKey = "==i";
com.schriftgestaltung.Glyphs.leftMetricsKey = "=n";
com.schriftgestaltung.Glyphs.rightMetricsKey = i;
};
},
{
color = 6;
glyphname = idotless;
kernLeft = i;
kernRight = i;
lastChange = "2022-05-17 15:19:47 +0000";
layers = (
{
anchors = (
{
name = bottom;
pos = (165,0);
},
{
name = ogonek;
pos = (260,0);
},
{
name = top;
pos = (165,510);
}
);
layerId = "BE73C5E5-17BA-4B8B-9704-EF1C804AF4CB";
shapes = (
{
closed = 1;
nodes = (
(260,0,l),
(260,510,l),
(20,510,l),
(20,386,l),
(110,386,l),
(110,0,l)
);
}
);
width = 325;
},
{
anchors = (
{
name = bottom;
pos = (145,0);
},
{
name = ogonek;
pos = (200,0);
},
{
name = top;
pos = (145,500);
}
);
layerId = "6DBC133B-A4A9-4EFF-965F-6B79E3B68C3E";
shapes = (
{
closed = 1;
nodes = (
(200,0,l),
(200,500,l),
(50,500,l),
(50,430,l),
(120,430,l),
(120,0,l)
);
}
);
width = 285;
}
);
unicode = 305;
},
{
color = 4;
glyphname = idotless.ss01;
kernLeft = i;
kernRight = i;
lastChange = "2022-05-17 15:25:38 +0000";
layers = (
{
anchors = (
{
name = bottom;
pos = (140,0);
},
{
name = ogonek;
pos = (215,0);
},
{
name = top;
pos = (140,510);
}
);
layerId = "BE73C5E5-17BA-4B8B-9704-EF1C804AF4CB";
shapes = (
{
closed = 1;
nodes = (
(215,0,l),
(215,510,l),
(65,510,l),
(65,0,l)
);
}
);
width = 280;
},
{
anchors = (
{
name = bottom;
pos = (125,0);
},
{
name = ogonek;
pos = (165,0);
},
{
name = top;
pos = (125,500);
}
);
layerId = "6DBC133B-A4A9-4EFF-965F-6B79E3B68C3E";
shapes = (
{
closed = 1;
nodes = (
(165,0,l),
(165,500,l),
(85,500,l),
(85,0,l)
);
}
);
width = 250;
}
);
},
{
color = 3;
glyphname = icircumflex;
kernLeft = i;
kernRight = i;
lastChange = "2022-04-29 11:57:51 +0000";
layers = (
{
layerId = "BE73C5E5-17BA-4B8B-9704-EF1C804AF4CB";
shapes = (
{
closed = 1;
nodes = (
(132,578,l),
(152,634,l),
(160,668,ls),
(163,677,o),
(166,677,o),
(169,668,cs),
(178,634,l),
(200,578,l),
(318,578,l),
(243,750,l),
(90,750,l),
(15,578,l)
);
},
{
ref = idotless;
}
);
width = 330;
},
{
layerId = "6DBC133B-A4A9-4EFF-965F-6B79E3B68C3E";
shapes = (
{
closed = 1;
nodes = (
(107,600,l),
(134,667,l),
(143,701,ls),
(146,711,o),
(150,711,o),
(152,701,cs),
(160,667,l),
(188,600,l),
(260,600,l),
(188,750,l),
(107,750,l),
(35,600,l)
);
},
{
ref = idotless;
}
);
width = 290;
}
);
unicode = 238;
},
{
color = 4;
glyphname = icircumflex.ss01;
kernLeft = i;
kernRight = i;
lastChange = "2022-05-17 15:25:38 +0000";
layers = (
{
layerId = "BE73C5E5-17BA-4B8B-9704-EF1C804AF4CB";
shapes = (
{
ref = idotless.ss01;
},
{
closed = 1;
nodes = (
(106,578,l),
(126,634,l),
(134,668,ls),
(137,677,o),
(140,677,o),
(143,668,cs),
(152,634,l),
(174,578,l),
(292,578,l),
(217,750,l),
(64,750,l),
(-11,578,l)
);
}
);
width = 280;
},
{
layerId = "6DBC133B-A4A9-4EFF-965F-6B79E3B68C3E";
shapes = (
{
ref = idotless.ss01;
},
{
closed = 1;
nodes = (
(84,600,l),
(111,667,l),
(120,701,ls),
(123,711,o),
(127,711,o),
(129,701,cs),
(137,667,l),
(165,600,l),
(237,600,l),
(165,750,l),
(84,750,l),
(12,600,l)
);
}
);
width = 250;
}
);
},
{
color = 3;
glyphname = idieresis;
kernLeft = i;
kernRight = i;
lastChange = "2022-04-29 11:57:51 +0000";
layers = (
{
anchors = (
{
name = _top;
pos = (165,510);
},
{
name = top;
pos = (165,700);
}
);
layerId = "BE73C5E5-17BA-4B8B-9704-EF1C804AF4CB";
shapes = (
{
closed = 1;
nodes = (
(302,578,l),
(302,700,l),
(182,700,l),
(182,578,l)
);
},
{
closed = 1;
nodes = (
(140,578,l),
(140,700,l),
(20,700,l),
(20,578,l)
);
},
{
ref = idotless;
}
);
width = 330;
},
{
anchors = (
{
name = _top;
pos = (145,500);
},
{
name = top;
pos = (145,700);
}
);
layerId = "6DBC133B-A4A9-4EFF-965F-6B79E3B68C3E";
shapes = (
{
closed = 1;
nodes = (
(261,600,l),
(261,700,l),
(180,700,l),
(180,600,l)
);
},
{
closed = 1;
nodes = (
(111,600,l),
(111,700,l),
(30,700,l),
(30,600,l)
);
},
{
ref = idotless;
}
);
width = 290;
}
);
unicode = 239;
},
{
color = 4;
glyphname = idieresis.ss01;
kernLeft = i;
kernRight = i;
lastChange = "2022-05-17 15:25:38 +0000";
layers = (
{
layerId = "BE73C5E5-17BA-4B8B-9704-EF1C804AF4CB";
shapes = (
{
ref = idotless.ss01;
},
{
closed = 1;
nodes = (
(281,578,l),
(281,700,l),
(161,700,l),
(161,578,l)
);
},
{
closed = 1;
nodes = (
(119,578,l),
(119,700,l),
(-1,700,l),
(-1,578,l)
);
}
);
width = 280;
},
{
layerId = "6DBC133B-A4A9-4EFF-965F-6B79E3B68C3E";
shapes = (
{
ref = idotless.ss01;
},
{
closed = 1;
nodes = (
(240,600,l),
(240,700,l),
(159,700,l),
(159,600,l)
);
},
{
closed = 1;
nodes = (
(90,600,l),
(90,700,l),
(9,700,l),
(9,600,l)
);
}
);
width = 250;
}
);
},
{
color = 6;
glyphname = j;
kernLeft = j;
kernRight = j;
lastChange = "2022-04-29 11:57:51 +0000";
layers = (
{
layerId = "BE73C5E5-17BA-4B8B-9704-EF1C804AF4CB";
metricLeft = "=i-10";
metricRight = "=i";
shapes = (
{
closed = 1;
nodes = (
(145,-215,o),
(260,-147,o),
(260,14,cs),
(260,510,l),
(20,510,l),
(20,387,l),
(110,387,l),
(110,8,ls),
(110,-49,o),
(72,-76,o),
(10,-91,c),
(44,-222,l)
);
},
{
closed = 1;
nodes = (
(259,578,l),
(259,700,l),
(110,700,l),
(110,578,l)
);
}
);
width = 325;
},
{
layerId = "6DBC133B-A4A9-4EFF-965F-6B79E3B68C3E";
metricLeft = "=i-20";
metricRight = "=i";
shapes = (
{
closed = 1;
nodes = (
(146,-189,o),
(200,-122,o),
(200,5,cs),
(201,500,l),
(50,500,l),
(50,430,l),
(120,430,l),
(120,5,ls),
(120,-84,o),
(84,-137,o),
(30,-154,c),
(58,-222,l)
);
},
{
closed = 1;
nodes = (
(200,600,l),
(200,700,l),
(120,700,l),
(120,600,l)
);
}
);
width = 286;
}
);
metricLeft = i;
metricRight = i;
unicode = 106;
userData = {
com.schriftgestaltung.Glyphs.ColorIndex = 3;
com.schriftgestaltung.Glyphs.layer.leftMetricsKey = "==i-20";
com.schriftgestaltung.Glyphs.layer.rightMetricsKey = "==i";
com.schriftgestaltung.Glyphs.leftMetricsKey = n;
com.schriftgestaltung.Glyphs.rightMetricsKey = n;
};
},
{
color = 4;
glyphname = j.ss01;
kernLeft = j.ss01;
kernRight = j.ss01;
lastChange = "2022-05-17 15:25:38 +0000";
layers = (
{
layerId = "BE73C5E5-17BA-4B8B-9704-EF1C804AF4CB";
shapes = (
{
closed = 1;
nodes = (
(96,-255,o),
(211,-175,o),
(211,14,cs),
(211,511,l),
(64,511,l),
(64,8,ls),
(64,-84,o),
(16,-128,o),
(-40,-135,c),
(-10,-262,l)
);
},
{
closed = 1;
nodes = (
(210,578,l),
(210,700,l),
(64,700,l),
(64,578,l)
);
}
);
width = 276;
},
{
layerId = "6DBC133B-A4A9-4EFF-965F-6B79E3B68C3E";
shapes = (
{
closed = 1;
nodes = (
(111,-229,o),
(164,-162,o),
(165,-35,cs),
(166,500,l),
(85,500,l),
(85,-35,ls),
(85,-124,o),
(49,-177,o),
(-6,-194,c),
(23,-262,l)
);
},
{
closed = 1;
nodes = (
(165,600,l),
(165,700,l),
(85,700,l),
(85,600,l)
);
}
);
width = 251;
}
);
metricRight = i.ss01;
},
{
color = 6;
glyphname = jdotless;
kernLeft = j;
kernRight = j;
lastChange = "2022-04-29 11:57:51 +0000";
layers = (
{
layerId = "6DBC133B-A4A9-4EFF-965F-6B79E3B68C3E";
shapes = (
{
closed = 1;
nodes = (
(146,-189,o),
(200,-122,o),
(200,5,cs),
(201,500,l),
(50,500,l),
(50,430,l),
(120,430,l),
(120,5,ls),
(120,-84,o),
(84,-137,o),
(30,-154,c),
(58,-222,l)
);
}
);
width = 286;
},
{
layerId = "BE73C5E5-17BA-4B8B-9704-EF1C804AF4CB";
shapes = (
{
closed = 1;
nodes = (
(145,-215,o),
(260,-147,o),
(260,14,cs),
(260,510,l),
(20,510,l),
(20,387,l),
(110,387,l),
(110,8,ls),
(110,-49,o),
(72,-76,o),
(10,-91,c),
(44,-222,l)
);
}
);
width = 325;
}
);
unicode = 567;
},
{
color = 4;
glyphname = jdotless.ss01;
kernLeft = j;
kernRight = j;
lastChange = "2022-05-17 15:25:38 +0000";
layers = (
{
anchors = (
{
name = bottom;
pos = (127,-250);
},
{
name = top;
pos = (127,500);
}
);
layerId = "6DBC133B-A4A9-4EFF-965F-6B79E3B68C3E";
shapes = (
{
closed = 1;
nodes = (
(111,-229,o),
(164,-162,o),
(165,-35,cs),
(166,500,l),
(85,500,l),
(85,-35,ls),
(85,-124,o),
(49,-177,o),
(-6,-194,c),
(23,-262,l)
);
}
);
width = 251;
},
{
anchors = (
{
name = bottom;
pos = (120,-250);
},
{
name = top;
pos = (135,510);
}
);
layerId = "BE73C5E5-17BA-4B8B-9704-EF1C804AF4CB";
shapes = (
{
closed = 1;
nodes = (
(96,-255,o),
(211,-175,o),
(211,14,cs),
(211,511,l),
(64,511,l),
(64,8,ls),
(64,-84,o),
(16,-128,o),
(-40,-135,c),
(-10,-262,l)
);
}
);
width = 276;
}
);
},
{
color = 6;
glyphname = k;
kernLeft = h;
kernRight = k;
lastChange = "2022-04-29 11:57:51 +0000";
layers = (
{
anchors = (
{
name = bottom;
pos = (262,0);
},
{
name = top;
pos = (305,700);
}
);
layerId = "BE73C5E5-17BA-4B8B-9704-EF1C804AF4CB";
metricLeft = "=n";
shapes = (
{
closed = 1;
nodes = (
(211,0,l),
(211,223,l),
(248,223,l),
(341,0,l),
(503,0,l),
(373,291,l),
(498,511,l),
(334,511,l),
(248,353,ls),
(211,353,l),
(211,750,l),
(65,750,l),
(65,0,l)
);
}
);
width = 523;
},
{
anchors = (
{
name = bottom;
pos = (239,0);
},
{
name = top;
pos = (258,670);
}
);
layerId = "6DBC133B-A4A9-4EFF-965F-6B79E3B68C3E";
metricLeft = "=n";
shapes = (
{
closed = 1;
nodes = (
(167,0,l),
(167,239,l),
(234,239,l),
(357,0,l),
(447,0,l),
(294,285,l),
(443,500,l),
(353,500,l),
(224,309,l),
(167,309,l),
(167,750,l),
(85,750,l),
(85,0,l)
);
}
);
width = 477;
}
);
metricLeft = n;
unicode = 107;
userData = {
com.schriftgestaltung.Glyphs.ColorIndex = 3;
com.schriftgestaltung.Glyphs.layer.leftMetricsKey = "==n";
com.schriftgestaltung.Glyphs.leftMetricsKey = n;
};
},
{
color = 6;
glyphname = l;
kernLeft = h;
kernRight = l;
lastChange = "2022-08-02 06:25:32 +0000";
layers = (
{
anchors = (
{
name = bottom;
pos = (156,0);
},
{
name = center;
pos = (156,416);
},
{
name = top;
pos = (146,750);
},
{
name = topright;
pos = (321,750);
}
);
background = {
anchors = (
{
name = bottom;
pos = (422,0);
},
{
name = top;
pos = (422,500);
},
{
name = topright;
pos = (518,500);
}
);
shapes = (
{
closed = 1;
nodes = (
(146,750,l),
(146,115,l),
(230,-12,l),
(340,50,l),
(292,127,l),
(292,750,l)
);
}
);
};
layerId = "BE73C5E5-17BA-4B8B-9704-EF1C804AF4CB";
metricLeft = "=h";
metricRight = "=i-40";
shapes = (
{
closed = 1;
nodes = (
(281,1,l),
(281,130,l),
(227,130,ls),
(218,130,o),
(211,137,o),
(211,146,cs),
(211,750,l),
(65,750,l),
(65,120,ls),
(65,50,o),
(115,1,o),
(185,1,cs)
);
}
);
width = 306;
},
{
anchors = (
{
name = bottom;
pos = (138,0);
},
{
name = center;
pos = (138,416);
},
{
name = top;
pos = (126,750);
},
{
name = topright;
pos = (285,750);
}
);
background = {
anchors = (
{
name = bottom;
pos = (108,0);
},
{
name = center;
pos = (148,250);
},
{
name = top;
pos = (108,500);
},
{
name = topright;
pos = (204,500);
}
);
shapes = (
{
closed = 1;
nodes = (
(95,750,l),
(95,61,l),
(148,-11,l),
(215,31,l),
(175,90,l),
(175,750,l)
);
}
);
};
layerId = "6DBC133B-A4A9-4EFF-965F-6B79E3B68C3E";
metricLeft = "=h";
shapes = (
{
closed = 1;
nodes = (
(240,0,l),
(240,70,l),
(199,70,ls),
(178,70,o),
(165,85,o),
(165,108,cs),
(165,750,l),
(85,750,l),
(85,108,ls),
(85,42,o),
(130,0,o),
(199,0,cs)
);
}
);
width = 275;
}
);
unicode = 108;
userData = {
com.schriftgestaltung.Glyphs.ColorIndex = 3;
com.schriftgestaltung.Glyphs.layer.leftMetricsKey = "==h";
com.schriftgestaltung.Glyphs.leftMetricsKey = n;
com.typemytype.robofont.layerData = {
background = {
anchors = (
{
name = bottom;
x = 108;
y = 0;
},
{
name = top;
x = 108;
y = 500;
},
{
name = topright;
x = 204;
y = 500;
},
{
name = center;
x = 148;
y = 250;
}
);
components = (
);
contours = (
{
points = (
{
segmentType = line;
smooth = 0;
x = 95;
y = 750;
},
{
segmentType = line;
smooth = 0;
x = 95;
y = 61;
},
{
segmentType = line;
smooth = 0;
x = 148;
y = -11;
},
{
segmentType = line;
smooth = 0;
x = 215;
y = 31;
},
{
segmentType = line;
smooth = 0;
x = 175;
y = 90;
},
{
segmentType = line;
smooth = 0;
x = 175;
y = 750;
}
);
}
);
lib = {
};
name = l;
unicodes = (
);
width = 275;
};
};
};
},
{
color = 10;
glyphname = lslash;
kernLeft = h;
kernRight = l;
lastChange = "2022-08-02 06:26:21 +0000";
layers = (
{
guides = (
{
pos = (285,538);
}
);
layerId = "6DBC133B-A4A9-4EFF-965F-6B79E3B68C3E";
shapes = (
{
pos = (20,0);
ref = l;
},
{
closed = 1;
nodes = (
(285,464,l),
(285,538,l),
(30,362,l),
(30,288,l)
);
}
);
width = 305;
},
{
guides = (
{
pos = (328,591);
}
);
layerId = "BE73C5E5-17BA-4B8B-9704-EF1C804AF4CB";
shapes = (
{
pos = (20,0);
ref = l;
},
{
closed = 1;
nodes = (
(328,452,l),
(328,591,l),
(23,379,l),
(23,240,l)
);
}
);
width = 336;
}
);
unicode = 322;
},
{
color = 6;
glyphname = m;
kernLeft = n;
kernRight = n;
lastChange = "2022-04-29 11:57:51 +0000";
layers = (
{
anchors = (
{
name = bottom;
pos = (428,0);
},
{
name = top;
pos = (428,510);
}
);
background = {
shapes = (
{
closed = 1;
nodes = (
(283,512,o),
(266,510,o),
(249,506,c),
(198,476,ls),
(182,466,o),
(175,471,o),
(175,484,cs),
(175,500,l),
(95,500,l),
(95,0,l),
(175,0,l),
(175,348,ls),
(175,404,o),
(205,440,o),
(287,440,cs),
(348,440,o),
(385,404,o),
(385,348,cs),
(385,0,l),
(465,0,l),
(465,348,ls),
(465,404,o),
(491,440,o),
(566,440,cs),
(645,440,o),
(675,404,o),
(675,348,cs),
(675,0,l),
(755,0,l),
(755,357,ls),
(755,449,o),
(699,512,o),
(587,512,cs),
(529,512,o),
(474,492,o),
(437,451,c),
(410,489,o),
(360,512,o),
(303,512,c)
);
}
);
};
layerId = "BE73C5E5-17BA-4B8B-9704-EF1C804AF4CB";
metricLeft = "=n";
metricRight = "=n";
shapes = (
{
closed = 1;
nodes = (
(215,0,l),
(215,323,ls),
(215,367,o),
(237,386,o),
(287,386,cs),
(335,386,o),
(355,367,o),
(355,323,cs),
(355,0,l),
(505,0,l),
(505,323,ls),
(505,367,o),
(527,386,o),
(577,386,cs),
(625,386,o),
(645,367,o),
(645,323,cs),
(645,0,l),
(795,0,l),
(795,355,ls),
(795,467,o),
(711,522,o),
(614,522,cs),
(563,522,o),
(497,505,o),
(471,473,c),
(425,510,o),
(392,522,o),
(334,522,cs),
(275,522,o),
(226,495,o),
(207,472,c),
(207,510,l),
(65,510,l),
(65,0,l)
);
}
);
width = 855;
},
{
anchors = (
{
name = bottom;
pos = (410,0);
},
{
name = top;
pos = (410,500);
}
);
background = {
shapes = (
{
closed = 1;
nodes = (
(283,512,o),
(266,510,o),
(249,506,c),
(198,476,ls),
(182,466,o),
(175,471,o),
(175,484,cs),
(175,500,l),
(95,500,l),
(95,0,l),
(175,0,l),
(175,348,ls),
(175,404,o),
(205,440,o),
(287,440,cs),
(348,440,o),
(385,404,o),
(385,348,cs),
(385,0,l),
(465,0,l),
(465,348,ls),
(465,404,o),
(491,440,o),
(566,440,cs),
(645,440,o),
(675,404,o),
(675,348,cs),
(675,0,l),
(755,0,l),
(755,357,ls),
(755,449,o),
(699,512,o),
(587,512,cs),
(529,512,o),
(474,492,o),
(437,451,c),
(410,489,o),
(360,512,o),
(303,512,c)
);
}
);
};
layerId = "6DBC133B-A4A9-4EFF-965F-6B79E3B68C3E";
metricLeft = "=n";
metricRight = "=n";
shapes = (
{
closed = 1;
nodes = (
(165,0,l),
(165,348,ls),
(165,404,o),
(195,440,o),
(277,440,cs),
(338,440,o),
(375,404,o),
(375,348,cs),
(375,0,l),
(455,0,l),
(455,348,ls),
(455,404,o),
(481,440,o),
(556,440,cs),
(635,440,o),
(665,404,o),
(665,348,cs),
(665,0,l),
(745,0,l),
(745,357,ls),
(745,449,o),
(689,512,o),
(577,512,cs),
(519,512,o),
(465,492,o),
(428,456,c),
(401,489,o),
(355,512,o),
(298,512,cs),
(239,512,o),
(192,485,o),
(165,460,c),
(165,500,l),
(85,500,l),
(85,0,l)
);
}
);
width = 825;
}
);
metricLeft = n;
metricRight = n;
unicode = 109;
userData = {
com.schriftgestaltung.Glyphs.ColorIndex = 3;
com.schriftgestaltung.Glyphs.layer.leftMetricsKey = "==n";
com.schriftgestaltung.Glyphs.layer.rightMetricsKey = "==n";
com.schriftgestaltung.Glyphs.leftMetricsKey = n;
com.schriftgestaltung.Glyphs.rightMetricsKey = n;
com.typemytype.robofont.layerData = {
background = {
anchors = (
);
components = (
);
contours = (
{
points = (
{
smooth = 0;
x = 283;
y = 512;
},
{
smooth = 0;
x = 266;
y = 510;
},
{
segmentType = curve;
smooth = 0;
x = 249;
y = 506;
},
{
segmentType = line;
smooth = 1;
x = 198;
y = 476;
},
{
smooth = 0;
x = 182;
y = 466;
},
{
smooth = 0;
x = 175;
y = 471;
},
{
segmentType = curve;
smooth = 1;
x = 175;
y = 484;
},
{
segmentType = line;
smooth = 0;
x = 175;
y = 500;
},
{
segmentType = line;
smooth = 0;
x = 95;
y = 500;
},
{
segmentType = line;
smooth = 0;
x = 95;
y = 0;
},
{
segmentType = line;
smooth = 0;
x = 175;
y = 0;
},
{
segmentType = line;
smooth = 1;
x = 175;
y = 348;
},
{
smooth = 0;
x = 175;
y = 404;
},
{
smooth = 0;
x = 205;
y = 440;
},
{
segmentType = curve;
smooth = 1;
x = 287;
y = 440;
},
{
smooth = 0;
x = 348;
y = 440;
},
{
smooth = 0;
x = 385;
y = 404;
},
{
segmentType = curve;
smooth = 1;
x = 385;
y = 348;
},
{
segmentType = line;
smooth = 0;
x = 385;
y = 0;
},
{
segmentType = line;
smooth = 0;
x = 465;
y = 0;
},
{
segmentType = line;
smooth = 1;
x = 465;
y = 348;
},
{
smooth = 0;
x = 465;
y = 404;
},
{
smooth = 0;
x = 491;
y = 440;
},
{
segmentType = curve;
smooth = 1;
x = 566;
y = 440;
},
{
smooth = 0;
x = 645;
y = 440;
},
{
smooth = 0;
x = 675;
y = 404;
},
{
segmentType = curve;
smooth = 1;
x = 675;
y = 348;
},
{
segmentType = line;
smooth = 0;
x = 675;
y = 0;
},
{
segmentType = line;
smooth = 0;
x = 755;
y = 0;
},
{
segmentType = line;
smooth = 1;
x = 755;
y = 357;
},
{
smooth = 0;
x = 755;
y = 449;
},
{
smooth = 0;
x = 699;
y = 512;
},
{
segmentType = curve;
smooth = 1;
x = 587;
y = 512;
},
{
smooth = 0;
x = 529;
y = 512;
},
{
smooth = 0;
x = 474;
y = 492;
},
{
segmentType = curve;
smooth = 0;
x = 437;
y = 451;
},
{
smooth = 0;
x = 410;
y = 489;
},
{
smooth = 0;
x = 360;
y = 512;
},
{
segmentType = curve;
smooth = 0;
x = 303;
y = 512;
}
);
}
);
lib = {
};
name = m;
unicodes = (
);
width = 825;
};
};
};
},
{
color = 6;
glyphname = n;
kernLeft = n;
kernRight = n;
lastChange = "2022-04-29 11:57:51 +0000";
layers = (
{
anchors = (
{
name = bottom;
pos = (284,0);
},
{
name = top;
pos = (284,510);
}
);
layerId = "BE73C5E5-17BA-4B8B-9704-EF1C804AF4CB";
shapes = (
{
closed = 1;
nodes = (
(215,0,l),
(215,314,ls),
(215,364,o),
(234,386,o),
(288,386,cs),
(343,386,o),
(357,364,o),
(357,314,cs),
(357,0,l),
(507,0,l),
(507,366,ls),
(507,473,o),
(425,522,o),
(336,522,cs),
(289,522,o),
(249,508,o),
(215,482,c),
(215,510,l),
(65,510,l),
(65,0,l)
);
}
);
width = 567;
},
{
anchors = (
{
name = bottom;
pos = (266,0);
},
{
name = top;
pos = (266,500);
}
);
layerId = "6DBC133B-A4A9-4EFF-965F-6B79E3B68C3E";
shapes = (
{
closed = 1;
nodes = (
(165,0,l),
(165,348,ls),
(165,404,o),
(204,440,o),
(272,440,cs),
(341,440,o),
(377,404,o),
(377,348,cs),
(377,0,l),
(457,0,l),
(457,357,ls),
(457,449,o),
(394,512,o),
(290,512,cs),
(236,512,o),
(192,492,o),
(165,471,c),
(165,500,l),
(85,500,l),
(85,0,l)
);
}
);
width = 537;
}
);
unicode = 110;
userData = {
com.schriftgestaltung.Glyphs.ColorIndex = 3;
};
},
{
color = 6;
glyphname = eng;
kernLeft = n;
kernRight = j;
lastChange = "2022-04-29 11:57:51 +0000";
layers = (
{
layerId = "6DBC133B-A4A9-4EFF-965F-6B79E3B68C3E";
shapes = (
{
closed = 1;
nodes = (
(403,-190,o),
(457,-124,o),
(457,0,cs),
(457,357,ls),
(457,449,o),
(394,512,o),
(290,512,cs),
(236,512,o),
(192,492,o),
(165,471,c),
(165,500,l),
(85,500,l),
(85,0,l),
(165,0,l),
(165,348,ls),
(165,404,o),
(204,440,o),
(272,440,cs),
(341,440,o),
(377,404,o),
(377,348,cs),
(377,0,ls),
(377,-86,o),
(341,-138,o),
(287,-154,c),
(315,-222,l)
);
}
);
width = 537;
},
{
layerId = "BE73C5E5-17BA-4B8B-9704-EF1C804AF4CB";
shapes = (
{
closed = 1;
nodes = (
(392,-215,o),
(507,-151,o),
(507,0,cs),
(507,366,ls),
(507,473,o),
(425,522,o),
(336,522,cs),
(289,522,o),
(249,508,o),
(215,482,c),
(215,510,l),
(65,510,l),
(65,0,l),
(215,0,l),
(215,314,ls),
(215,364,o),
(234,386,o),
(288,386,cs),
(343,386,o),
(357,364,o),
(357,314,cs),
(357,0,ls),
(357,-52,o),
(319,-77,o),
(257,-91,c),
(291,-222,l)
);
}
);
width = 567;
}
);
metricLeft = n;
metricRight = n;
unicode = 331;
},
{
color = 6;
glyphname = o;
kernLeft = o;
kernRight = o;
lastChange = "2022-08-02 06:19:17 +0000";
layers = (
{
anchors = (
{
name = bottom;
pos = (275,0);
},
{
name = center;
pos = (275,255);
},
{
name = ogonek;
pos = (494,10);
},
{
name = top;
pos = (275,510);
},
{
name = topright;
pos = (529,510);
}
);
background = {
shapes = (
{
closed = 1;
nodes = (
(368,512,o),
(299,438,o),
(287,338,cs),
(283,305,o),
(281,277,o),
(281,249,cs),
(281,221,o),
(283,194,o),
(287,162,cs),
(299,63,o),
(368,-11,o),
(488,-11,cs),
(608,-11,o),
(677,63,o),
(689,162,cs),
(693,194,o),
(695,221,o),
(695,249,cs),
(695,277,o),
(693,305,o),
(689,338,cs),
(677,438,o),
(608,512,o),
(488,512,cs)
);
},
{
closed = 1;
nodes = (
(566,440,o),
(608,391,o),
(613,333,cs),
(618,271,o),
(618,226,o),
(612,166,cs),
(606,108,o),
(566,61,o),
(488,61,cs),
(410,61,o),
(370,108,o),
(364,166,cs),
(358,226,o),
(358,271,o),
(363,333,cs),
(368,391,o),
(410,440,o),
(488,440,cs)
);
}
);
};
layerId = "BE73C5E5-17BA-4B8B-9704-EF1C804AF4CB";
shapes = (
{
closed = 1;
nodes = (
(406,-12,o),
(483,64,o),
(498,165,cs),
(502,197,o),
(504,225,o),
(504,253,cs),
(504,283,o),
(502,312,o),
(498,345,cs),
(485,447,o),
(406,522,o),
(274,522,cs),
(142,522,o),
(65,446,o),
(51,345,cs),
(46,312,o),
(45,283,o),
(45,253,cs),
(45,225,o),
(47,197,o),
(51,165,cs),
(64,64,o),
(142,-12,o),
(274,-12,cs)
);
},
{
closed = 1;
nodes = (
(224,112,o),
(197,146,o),
(193,188,cs),
(188,236,o),
(187,273,o),
(192,322,cs),
(196,364,o),
(224,399,o),
(274,399,cs),
(325,399,o),
(353,364,o),
(357,322,cs),
(362,272,o),
(362,236,o),
(356,187,cs),
(351,147,o),
(325,112,o),
(274,112,cs)
);
}
);
width = 549;
},
{
anchors = (
{
name = bottom;
pos = (255,0);
},
{
name = center;
pos = (255,250);
},
{
name = ogonek;
pos = (459,10);
},
{
name = top;
pos = (255,500);
},
{
name = topright;
pos = (490,500);
}
);
background = {
shapes = (
{
closed = 1;
nodes = (
(539,66,o),
(451,-8,o),
(332,-8,cs),
(213,-8,o),
(125,66,o),
(125,252,cs),
(125,438,o),
(213,512,o),
(332,512,cs),
(451,512,o),
(539,438,o),
(539,252,cs)
);
},
{
closed = 1;
nodes = (
(465,408,o),
(406,446,o),
(332,446,cs),
(259,446,o),
(199,406,o),
(199,252,cs),
(199,98,o),
(259,58,o),
(332,58,cs),
(406,58,o),
(465,96,o),
(465,252,cs)
);
}
);
};
layerId = "6DBC133B-A4A9-4EFF-965F-6B79E3B68C3E";
shapes = (
{
closed = 1;
nodes = (
(371,-11,o),
(437,63,o),
(449,162,cs),
(453,194,o),
(455,221,o),
(455,249,cs),
(455,277,o),
(453,305,o),
(449,338,cs),
(437,438,o),
(371,511,o),
(255,511,cs),
(139,511,o),
(73,438,o),
(61,338,cs),
(57,305,o),
(55,277,o),
(55,249,cs),
(55,221,o),
(57,194,o),
(61,162,cs),
(73,63,o),
(139,-11,o),
(255,-11,cs)
);
},
{
closed = 1;
nodes = (
(182,58,o),
(144,107,o),
(138,165,cs),
(132,225,o),
(133,271,o),
(137,333,cs),
(141,391,o),
(182,440,o),
(255,440,cs),
(328,440,o),
(367,391,o),
(372,333,cs),
(377,271,o),
(377,225,o),
(372,165,cs),
(367,107,o),
(328,58,o),
(255,58,cs)
);
}
);
width = 510;
}
);
unicode = 111;
userData = {
com.schriftgestaltung.Glyphs.ColorIndex = 3;
com.typemytype.robofont.layerData = {
background = {
anchors = (
);
components = (
);
contours = (
{
points = (
{
smooth = 0;
x = 539;
y = 66;
},
{
smooth = 0;
x = 451;
y = -8;
},
{
segmentType = curve;
smooth = 1;
x = 332;
y = -8;
},
{
smooth = 0;
x = 213;
y = -8;
},
{
smooth = 0;
x = 125;
y = 66;
},
{
segmentType = curve;
smooth = 1;
x = 125;
y = 252;
},
{
smooth = 0;
x = 125;
y = 438;
},
{
smooth = 0;
x = 213;
y = 512;
},
{
segmentType = curve;
smooth = 1;
x = 332;
y = 512;
},
{
smooth = 0;
x = 451;
y = 512;
},
{
smooth = 0;
x = 539;
y = 438;
},
{
segmentType = curve;
smooth = 1;
x = 539;
y = 252;
}
);
},
{
points = (
{
smooth = 0;
x = 465;
y = 408;
},
{
smooth = 0;
x = 406;
y = 446;
},
{
segmentType = curve;
smooth = 1;
x = 332;
y = 446;
},
{
smooth = 0;
x = 259;
y = 446;
},
{
smooth = 0;
x = 199;
y = 406;
},
{
segmentType = curve;
smooth = 1;
x = 199;
y = 252;
},
{
smooth = 0;
x = 199;
y = 98;
},
{
smooth = 0;
x = 259;
y = 58;
},
{
segmentType = curve;
smooth = 1;
x = 332;
y = 58;
},
{
smooth = 0;
x = 406;
y = 58;
},
{
smooth = 0;
x = 465;
y = 96;
},
{
segmentType = curve;
smooth = 1;
x = 465;
y = 252;
}
);
}
);
lib = {
};
name = o;
unicodes = (
);
width = 510;
};
};
};
},
{
color = 6;
glyphname = oe;
kernLeft = o;
kernRight = e;
lastChange = "2022-04-29 11:57:51 +0000";
layers = (
{
anchors = (
{
name = bottom;
pos = (432,0);
},
{
name = top;
pos = (432,510);
}
);
layerId = "BE73C5E5-17BA-4B8B-9704-EF1C804AF4CB";
shapes = (
{
closed = 1;
nodes = (
(333,-12,o),
(380,4,o),
(416,30,c),
(431,47,ls),
(436,53,o),
(442,53,o),
(447,47,cs),
(462,30,l),
(503,5,o),
(556,-10,o),
(619,-10,cs),
(673,-10,o),
(726,4,o),
(771,34,c),
(733,141,l),
(692,122,o),
(657,112,o),
(619,112,cs),
(560,112,o),
(513,132,o),
(507,200,c),
(506,206,o),
(506,213,o),
(506,219,c),
(780,219,l),
(801,271,l),
(801,431,o),
(731,520,o),
(585,520,cs),
(536,520,o),
(495,506,o),
(461,485,c),
(443,466,ls),
(438,461,o),
(431,460,o),
(426,466,cs),
(408,485,l),
(373,507,o),
(329,522,o),
(274,522,cs),
(142,522,o),
(65,446,o),
(51,345,cs),
(46,312,o),
(45,283,o),
(45,253,cs),
(45,225,o),
(47,197,o),
(51,165,cs),
(64,64,o),
(142,-12,o),
(274,-12,cs)
);
},
{
closed = 1;
nodes = (
(224,112,o),
(197,146,o),
(193,188,cs),
(188,236,o),
(187,273,o),
(192,322,cs),
(196,364,o),
(224,399,o),
(274,399,cs),
(325,399,o),
(353,364,o),
(357,322,cs),
(362,272,o),
(362,236,o),
(356,187,cs),
(351,147,o),
(325,112,o),
(274,112,cs)
);
},
{
closed = 1;
nodes = (
(514,372,o),
(536,403,o),
(587,403,cs),
(645,403,o),
(661,362,o),
(665,320,c),
(508,320,l)
);
}
);
width = 836;
},
{
anchors = (
{
name = bottom;
pos = (401,0);
},
{
name = top;
pos = (401,500);
}
);
layerId = "6DBC133B-A4A9-4EFF-965F-6B79E3B68C3E";
shapes = (
{
closed = 1;
nodes = (
(319,-11,o),
(368,13,o),
(398,49,c),
(410,80,ls),
(413,88,o),
(421,88,o),
(424,80,cs),
(437,49,l),
(468,12,o),
(517,-10,o),
(584,-10,cs),
(650,-10,o),
(688,4,o),
(743,43,c),
(719,104,l),
(681,75,o),
(635,58,o),
(584,58,cs),
(502,58,o),
(467,109,o),
(461,166,cs),
(458,190,o),
(457,212,o),
(457,233,c),
(741,232,l),
(761,285,l),
(761,374,o),
(737,510,o),
(575,510,cs),
(517,510,o),
(472,488,o),
(442,455,c),
(424,421,ls),
(420,414,o),
(413,414,o),
(410,421,cs),
(393,455,l),
(362,488,o),
(316,511,o),
(255,511,cs),
(139,511,o),
(73,438,o),
(61,338,cs),
(57,305,o),
(55,277,o),
(55,249,cs),
(55,221,o),
(57,194,o),
(61,162,cs),
(73,63,o),
(139,-11,o),
(255,-11,cs)
);
},
{
closed = 1;
nodes = (
(182,58,o),
(144,107,o),
(138,165,cs),
(132,225,o),
(133,271,o),
(137,333,cs),
(141,391,o),
(182,440,o),
(255,440,cs),
(328,440,o),
(367,391,o),
(372,333,cs),
(377,271,o),
(377,225,o),
(372,165,cs),
(367,107,o),
(328,58,o),
(255,58,cs)
);
},
{
closed = 1;
nodes = (
(458,385,o),
(499,440,o),
(575,440,cs),
(665,440,o),
(685,370,o),
(685,302,c),
(458,302,l)
);
}
);
width = 806;
}
);
metricLeft = o;
metricRight = e;
unicode = 339;
userData = {
com.schriftgestaltung.Glyphs.leftMetricsKey = o;
com.schriftgestaltung.Glyphs.rightMetricsKey = e;
};
},
{
color = 6;
glyphname = p;
kernLeft = n;
kernRight = o;
lastChange = "2022-04-29 11:57:51 +0000";
layers = (
{
anchors = (
{
name = bottom;
pos = (285,0);
},
{
name = top;
pos = (285,510);
}
);
layerId = "BE73C5E5-17BA-4B8B-9704-EF1C804AF4CB";
metricLeft = "=n";
metricRight = "=o";
shapes = (
{
closed = 1;
nodes = (
(215,-200,l),
(215,23,ls),
(215,34,o),
(222,39,o),
(236,31,cs),
(300,-6,l),
(311,-9,o),
(322,-10,o),
(334,-10,cs),
(450,-10,o),
(506,50,o),
(515,154,cs),
(518,195,o),
(520,226,o),
(520,257,cs),
(520,289,o),
(519,319,o),
(515,358,cs),
(504,463,o),
(446,522,o),
(324,522,cs),
(281,522,o),
(239,504,o),
(215,481,c),
(215,510,l),
(65,510,l),
(65,-200,l)
);
},
{
closed = 1;
nodes = (
(243,114,o),
(215,143,o),
(215,184,cs),
(215,328,ls),
(215,370,o),
(238,397,o),
(292,397,cs),
(338,397,o),
(362,372,o),
(365,341,cs),
(370,285,o),
(370,226,o),
(365,170,cs),
(362,139,o),
(341,114,o),
(292,114,cs)
);
}
);
width = 565;
},
{
anchors = (
{
name = bottom;
pos = (265,0);
},
{
name = top;
pos = (265,500);
}
);
layerId = "6DBC133B-A4A9-4EFF-965F-6B79E3B68C3E";
metricLeft = "=n";
metricRight = "=o";
shapes = (
{
closed = 1;
nodes = (
(165,-200,l),
(165,16,ls),
(165,28,o),
(175,34,o),
(186,27,cs),
(236,-5,l),
(252,-8,o),
(261,-10,o),
(284,-10,cs),
(400,-10,o),
(461,60,o),
(470,162,cs),
(473,197,o),
(474,224,o),
(474,251,cs),
(474,279,o),
(473,306,o),
(470,339,cs),
(461,440,o),
(400,510,o),
(284,510,cs),
(237,510,o),
(191,495,o),
(165,472,c),
(165,500,l),
(85,500,l),
(85,-200,l)
);
},
{
closed = 1;
nodes = (
(205,58,o),
(165,94,o),
(165,148,cs),
(165,352,ls),
(165,406,o),
(205,440,o),
(275,440,cs),
(355,440,o),
(386,393,o),
(392,333,cs),
(397,278,o),
(396,222,o),
(392,167,cs),
(387,107,o),
(355,58,o),
(275,58,cs)
);
}
);
width = 529;
}
);
metricLeft = n;
unicode = 112;
userData = {
com.schriftgestaltung.Glyphs.ColorIndex = 3;
com.schriftgestaltung.Glyphs.layer.leftMetricsKey = "==n";
com.schriftgestaltung.Glyphs.layer.rightMetricsKey = "==o";
com.schriftgestaltung.Glyphs.leftMetricsKey = n;
};
},
{
color = 6;
glyphname = thorn;
kernLeft = h;
kernRight = o;
lastChange = "2022-04-29 11:57:51 +0000";
layers = (
{
anchors = (
{
name = bottom;
pos = (285,0);
},
{
name = top;
pos = (285,510);
}
);
layerId = "BE73C5E5-17BA-4B8B-9704-EF1C804AF4CB";
shapes = (
{
closed = 1;
nodes = (
(215,-200,l),
(215,23,ls),
(215,34,o),
(222,39,o),
(236,31,cs),
(300,-6,l),
(311,-9,o),
(322,-10,o),
(334,-10,cs),
(450,-10,o),
(506,50,o),
(515,154,cs),
(518,195,o),
(520,226,o),
(520,257,cs),
(520,289,o),
(519,319,o),
(515,358,cs),
(504,463,o),
(446,522,o),
(324,522,cs),
(281,522,o),
(239,504,o),
(215,481,c),
(215,700,l),
(65,700,l),
(65,-200,l)
);
},
{
closed = 1;
nodes = (
(243,114,o),
(215,143,o),
(215,184,cs),
(215,328,ls),
(215,370,o),
(238,397,o),
(292,397,cs),
(338,397,o),
(362,372,o),
(365,341,cs),
(370,285,o),
(370,226,o),
(365,170,cs),
(362,139,o),
(341,114,o),
(292,114,cs)
);
}
);
width = 565;
},
{
anchors = (
{
name = bottom;
pos = (265,0);
},
{
name = top;
pos = (265,500);
}
);
layerId = "6DBC133B-A4A9-4EFF-965F-6B79E3B68C3E";
shapes = (
{
closed = 1;
nodes = (
(165,-200,l),
(165,16,ls),
(165,28,o),
(175,34,o),
(186,27,cs),
(236,-5,l),
(252,-8,o),
(261,-10,o),
(284,-10,cs),
(400,-10,o),
(461,60,o),
(470,162,cs),
(473,197,o),
(474,224,o),
(474,251,cs),
(474,279,o),
(473,306,o),
(470,339,cs),
(461,440,o),
(400,510,o),
(284,510,cs),
(237,510,o),
(191,495,o),
(165,472,c),
(165,700,l),
(85,700,l),
(85,-200,l)
);
},
{
closed = 1;
nodes = (
(205,58,o),
(165,94,o),
(165,148,cs),
(165,352,ls),
(165,406,o),
(205,440,o),
(275,440,cs),
(355,440,o),
(386,393,o),
(392,333,cs),
(397,278,o),
(396,222,o),
(392,167,cs),
(387,107,o),
(355,58,o),
(275,58,cs)
);
}
);
width = 529;
}
);
metricLeft = p;
metricRight = p;
unicode = 254;
userData = {
com.schriftgestaltung.Glyphs.leftMetricsKey = p;
com.schriftgestaltung.Glyphs.rightMetricsKey = p;
};
},
{
color = 6;
glyphname = q;
kernLeft = o;
kernRight = q;
lastChange = "2022-04-29 11:57:51 +0000";
layers = (
{
anchors = (
{
name = bottom;
pos = (285,0);
},
{
name = top;
pos = (285,510);
}
);
layerId = "BE73C5E5-17BA-4B8B-9704-EF1C804AF4CB";
metricLeft = "=o";
metricRight = "=i";
shapes = (
{
closed = 1;
nodes = (
(500,-200,l),
(500,510,l),
(350,510,l),
(350,481,l),
(326,504,o),
(284,522,o),
(241,522,cs),
(119,522,o),
(61,463,o),
(50,358,cs),
(46,319,o),
(45,289,o),
(45,257,cs),
(45,226,o),
(47,195,o),
(50,154,cs),
(59,50,o),
(115,-10,o),
(231,-10,cs),
(243,-10,o),
(254,-9,o),
(265,-6,c),
(329,31,ls),
(343,39,o),
(350,34,o),
(350,23,cs),
(350,-200,l)
);
},
{
closed = 1;
nodes = (
(224,114,o),
(203,139,o),
(200,170,cs),
(195,226,o),
(195,285,o),
(200,341,cs),
(203,372,o),
(227,397,o),
(273,397,cs),
(327,397,o),
(350,370,o),
(350,328,cs),
(350,184,ls),
(350,143,o),
(322,114,o),
(273,114,cs)
);
}
);
width = 565;
},
{
anchors = (
{
name = bottom;
pos = (265,0);
},
{
name = top;
pos = (265,500);
}
);
layerId = "6DBC133B-A4A9-4EFF-965F-6B79E3B68C3E";
metricLeft = "=o";
metricRight = "=i";
shapes = (
{
closed = 1;
nodes = (
(444,-200,l),
(444,500,l),
(364,500,l),
(364,472,l),
(338,495,o),
(292,510,o),
(245,510,cs),
(129,510,o),
(68,440,o),
(59,339,cs),
(56,306,o),
(55,279,o),
(55,251,cs),
(55,224,o),
(56,197,o),
(59,162,cs),
(68,60,o),
(129,-10,o),
(245,-10,cs),
(268,-10,o),
(277,-8,o),
(293,-5,c),
(345,27,ls),
(356,34,o),
(364,29,o),
(364,17,cs),
(364,-200,l)
);
},
{
closed = 1;
nodes = (
(174,58,o),
(142,107,o),
(137,167,cs),
(133,222,o),
(132,278,o),
(137,333,cs),
(143,393,o),
(174,440,o),
(254,440,cs),
(324,440,o),
(364,406,o),
(364,352,cs),
(364,148,ls),
(364,94,o),
(324,58,o),
(254,58,cs)
);
}
);
width = 529;
}
);
metricLeft = o;
metricRight = i;
unicode = 113;
userData = {
com.schriftgestaltung.Glyphs.ColorIndex = 3;
com.schriftgestaltung.Glyphs.layer.leftMetricsKey = "==o";
com.schriftgestaltung.Glyphs.layer.rightMetricsKey = "==i";
com.schriftgestaltung.Glyphs.leftMetricsKey = o;
com.schriftgestaltung.Glyphs.rightMetricsKey = n;
};
},
{
color = 6;
glyphname = r;
kernLeft = n;
kernRight = r;
lastChange = "2022-04-29 11:57:51 +0000";
layers = (
{
anchors = (
{
name = bottom;
pos = (143,0);
},
{
name = top;
pos = (212,500);
}
);
layerId = "BE73C5E5-17BA-4B8B-9704-EF1C804AF4CB";
shapes = (
{
closed = 1;
nodes = (
(226,0,l),
(226,271,ls),
(226,348,o),
(269,390,o),
(387,390,c),
(387,522,l),
(370,522,ls),
(287,522,o),
(236,494,o),
(202,465,cs),
(192,455,o),
(185,456,o),
(178,466,cs),
(140,522,l),
(20,443,l),
(80,355,l),
(80,0,l)
);
}
);
width = 407;
},
{
anchors = (
{
name = bottom;
pos = (176,0);
},
{
name = top;
pos = (176,500);
}
);
layerId = "6DBC133B-A4A9-4EFF-965F-6B79E3B68C3E";
shapes = (
{
closed = 1;
nodes = (
(170,0,l),
(170,318,ls),
(170,386,o),
(226,430,o),
(341,430,c),
(341,512,l),
(330,512,ls),
(262,512,o),
(208,489,o),
(172,453,cs),
(162,443,o),
(155,442,o),
(146,455,cs),
(108,512,l),
(35,468,l),
(90,386,l),
(90,0,l)
);
}
);
width = 351;
}
);
unicode = 114;
userData = {
com.schriftgestaltung.Glyphs.ColorIndex = 3;
};
},
{
color = 6;
glyphname = s;
kernLeft = s;
kernRight = s;
lastChange = "2022-04-29 11:57:51 +0000";
layers = (
{
anchors = (
{
name = bottom;
pos = (238,0);
},
{
name = top;
pos = (238,511);
}
);
background = {
shapes = (
{
closed = 1;
nodes = (
(246,523,cs),
(124,523,o),
(44,451,o),
(44,350,cs),
(44,256,o),
(113,203,o),
(209,198,cs),
(263,195,ls),
(298,193,o),
(309,176,o),
(309,155,cs),
(309,127,o),
(289,109,o),
(239,109,cs),
(187,109,o),
(153,111,o),
(86,154,c),
(44,46,l),
(122,-1,o),
(159,-11,o),
(238,-11,cs),
(360,-11,o),
(440,59,o),
(440,165,cs),
(440,259,o),
(373,316,o),
(275,321,cs),
(220,324,ls),
(188,326,o),
(175,339,o),
(175,360,cs),
(175,385,o),
(197,403,o),
(247,403,cs),
(302,403,o),
(341,396,o),
(384,368,c),
(426,476,l),
(373,510,o),
(322,523,o)
);
}
);
};
layerId = "BE73C5E5-17BA-4B8B-9704-EF1C804AF4CB";
shapes = (
{
closed = 1;
nodes = (
(356,-11,o),
(436,49,o),
(436,166,cs),
(436,269,o),
(369,316,o),
(271,321,cs),
(216,324,ls),
(185,326,o),
(170,339,o),
(170,360,cs),
(170,384,o),
(193,403,o),
(243,403,cs),
(298,403,o),
(337,396,o),
(380,368,c),
(422,476,l),
(369,510,o),
(318,522,o),
(242,522,cs),
(120,522,o),
(40,461,o),
(40,350,cs),
(40,246,o),
(109,203,o),
(205,198,cs),
(259,195,ls),
(293,193,o),
(305,176,o),
(305,155,cs),
(305,129,o),
(285,109,o),
(235,109,cs),
(183,109,o),
(149,111,o),
(82,154,c),
(40,46,l),
(105,6,o),
(155,-11,o),
(234,-11,cs)
);
}
);
width = 476;
},
{
anchors = (
{
name = bottom;
pos = (226,0);
},
{
name = top;
pos = (226,500);
}
);
background = {
shapes = (
{
closed = 1;
nodes = (
(246,523,cs),
(124,523,o),
(44,451,o),
(44,350,cs),
(44,256,o),
(113,203,o),
(209,198,cs),
(263,195,ls),
(298,193,o),
(309,176,o),
(309,155,cs),
(309,127,o),
(289,109,o),
(239,109,cs),
(187,109,o),
(153,111,o),
(86,154,c),
(44,46,l),
(122,-1,o),
(159,-11,o),
(238,-11,cs),
(360,-11,o),
(440,59,o),
(440,165,cs),
(440,259,o),
(373,316,o),
(275,321,cs),
(220,324,ls),
(188,326,o),
(175,339,o),
(175,360,cs),
(175,385,o),
(197,403,o),
(247,403,cs),
(302,403,o),
(341,396,o),
(384,368,c),
(426,476,l),
(373,510,o),
(322,523,o)
);
}
);
};
layerId = "6DBC133B-A4A9-4EFF-965F-6B79E3B68C3E";
shapes = (
{
closed = 1;
nodes = (
(345,-12,o),
(412,57,o),
(412,146,cs),
(412,228,o),
(358,285,o),
(259,292,cs),
(201,296,ls),
(161,299,o),
(131,320,o),
(131,360,cs),
(131,412,o),
(168,440,o),
(236,440,cs),
(291,440,o),
(335,424,o),
(366,403,c),
(392,468,l),
(347,498,o),
(292,512,o),
(236,512,cs),
(125,512,o),
(55,449,o),
(55,357,cs),
(55,271,o),
(114,229,o),
(192,224,cs),
(251,220,ls),
(304,216,o),
(336,186,o),
(336,146,cs),
(336,92,o),
(299,60,o),
(229,60,cs),
(175,60,o),
(130,78,o),
(82,112,c),
(55,44,l),
(104,9,o),
(165,-12,o),
(229,-12,cs)
);
}
);
width = 452;
}
);
unicode = 115;
userData = {
com.schriftgestaltung.Glyphs.ColorIndex = 3;
com.typemytype.robofont.layerData = {
background = {
anchors = (
);
components = (
);
contours = (
{
points = (
{
segmentType = curve;
smooth = 1;
x = 246;
y = 523;
},
{
smooth = 0;
x = 124;
y = 523;
},
{
smooth = 0;
x = 44;
y = 451;
},
{
segmentType = curve;
smooth = 1;
x = 44;
y = 350;
},
{
smooth = 0;
x = 44;
y = 256;
},
{
smooth = 0;
x = 113;
y = 203;
},
{
segmentType = curve;
smooth = 1;
x = 209;
y = 198;
},
{
segmentType = line;
smooth = 1;
x = 263;
y = 195;
},
{
smooth = 0;
x = 298;
y = 193;
},
{
smooth = 0;
x = 309;
y = 176;
},
{
segmentType = curve;
smooth = 1;
x = 309;
y = 155;
},
{
smooth = 0;
x = 309;
y = 127;
},
{
smooth = 0;
x = 289;
y = 109;
},
{
segmentType = curve;
smooth = 1;
x = 239;
y = 109;
},
{
smooth = 0;
x = 187;
y = 109;
},
{
smooth = 0;
x = 153;
y = 111;
},
{
segmentType = curve;
smooth = 0;
x = 86;
y = 154;
},
{
segmentType = line;
smooth = 0;
x = 44;
y = 46;
},
{
smooth = 0;
x = 122;
y = -1;
},
{
smooth = 0;
x = 159;
y = -11;
},
{
segmentType = curve;
smooth = 1;
x = 238;
y = -11;
},
{
smooth = 0;
x = 360;
y = -11;
},
{
smooth = 0;
x = 440;
y = 59;
},
{
segmentType = curve;
smooth = 1;
x = 440;
y = 165;
},
{
smooth = 0;
x = 440;
y = 259;
},
{
smooth = 0;
x = 373;
y = 316;
},
{
segmentType = curve;
smooth = 1;
x = 275;
y = 321;
},
{
segmentType = line;
smooth = 1;
x = 220;
y = 324;
},
{
smooth = 0;
x = 188;
y = 326;
},
{
smooth = 0;
x = 175;
y = 339;
},
{
segmentType = curve;
smooth = 1;
x = 175;
y = 360;
},
{
smooth = 0;
x = 175;
y = 385;
},
{
smooth = 0;
x = 197;
y = 403;
},
{
segmentType = curve;
smooth = 1;
x = 247;
y = 403;
},
{
smooth = 0;
x = 302;
y = 403;
},
{
smooth = 0;
x = 341;
y = 396;
},
{
segmentType = curve;
smooth = 0;
x = 384;
y = 368;
},
{
segmentType = line;
smooth = 0;
x = 426;
y = 476;
},
{
smooth = 0;
x = 373;
y = 510;
},
{
smooth = 0;
x = 322;
y = 523;
}
);
}
);
lib = {
};
name = s;
unicodes = (
);
width = 452;
};
};
};
},
{
color = 6;
glyphname = germandbls;
kernLeft = h;
kernRight = germandbls;
lastChange = "2022-04-29 11:57:51 +0000";
layers = (
{
anchors = (
{
name = bottom;
pos = (368,0);
},
{
name = top;
pos = (368,510);
}
);
layerId = "BE73C5E5-17BA-4B8B-9704-EF1C804AF4CB";
shapes = (
{
closed = 1;
nodes = (
(615,-11,o),
(695,49,o),
(695,166,cs),
(695,269,o),
(628,315,o),
(530,321,cs),
(478,324,ls),
(450,326,o),
(437,339,o),
(437,360,cs),
(437,376,o),
(447,390,o),
(468,396,cs),
(502,406,ls),
(584,430,o),
(634,477,o),
(634,561,cs),
(634,653,o),
(552,753,o),
(364,753,cs),
(183,753,o),
(65,662,o),
(65,506,cs),
(65,0,l),
(225,0,l),
(225,506,ls),
(225,572,o),
(262,617,o),
(368,617,cs),
(458,617,o),
(494,590,o),
(494,560,cs),
(494,541,o),
(485,527,o),
(464,521,cs),
(429,511,ls),
(347,487,o),
(299,437,o),
(299,350,cs),
(299,246,o),
(368,204,o),
(464,198,cs),
(512,195,ls),
(546,193,o),
(558,176,o),
(558,155,cs),
(558,129,o),
(538,109,o),
(488,109,cs),
(436,109,o),
(408,111,o),
(341,154,c),
(299,46,l),
(364,6,o),
(414,-11,o),
(493,-11,cs)
);
}
);
width = 735;
},
{
anchors = (
{
name = bottom;
pos = (326,0);
},
{
name = top;
pos = (326,500);
}
);
layerId = "6DBC133B-A4A9-4EFF-965F-6B79E3B68C3E";
shapes = (
{
closed = 1;
nodes = (
(545,-12,o),
(612,57,o),
(612,146,cs),
(612,228,o),
(558,285,o),
(459,292,cs),
(405,296,ls),
(361,299,o),
(331,321,o),
(331,361,cs),
(331,399,o),
(352,420,o),
(401,436,cs),
(440,449,ls),
(516,474,o),
(557,530,o),
(557,593,cs),
(557,678,o),
(487,753,o),
(333,753,cs),
(159,753,o),
(85,652,o),
(85,542,cs),
(85,0,l),
(162,0,l),
(162,545,ls),
(162,632,o),
(226,684,o),
(332,684,cs),
(436,684,o),
(479,634,o),
(479,589,cs),
(479,555,o),
(461,528,o),
(414,514,cs),
(380,504,ls),
(300,480,o),
(255,431,o),
(255,358,cs),
(255,272,o),
(314,229,o),
(396,224,cs),
(451,220,ls),
(504,216,o),
(536,186,o),
(536,146,cs),
(536,92,o),
(499,60,o),
(429,60,cs),
(375,60,o),
(330,78,o),
(282,112,c),
(255,44,l),
(304,9,o),
(365,-12,o),
(429,-12,cs)
);
}
);
width = 652;
}
);
metricLeft = l;
metricRight = s;
unicode = 223;
userData = {
com.schriftgestaltung.Glyphs.leftMetricsKey = l;
com.schriftgestaltung.Glyphs.rightMetricsKey = s;
};
},
{
color = 6;
glyphname = t;
kernLeft = t;
kernRight = t;
lastChange = "2022-04-29 11:57:51 +0000";
layers = (
{
anchors = (
{
name = bottom;
pos = (189,0);
},
{
name = center;
pos = (189,255);
},
{
name = top;
pos = (189,510);
},
{
name = topright;
pos = (352,750);
}
);
layerId = "BE73C5E5-17BA-4B8B-9704-EF1C804AF4CB";
shapes = (
{
closed = 1;
nodes = (
(337,1,l),
(337,130,l),
(261,130,ls),
(252,130,o),
(245,137,o),
(245,146,cs),
(245,390,l),
(328,390,l),
(328,510,l),
(245,510,l),
(245,630,l),
(123,630,l),
(117,596,ls),
(103,519,o),
(102,510,o),
(83,510,cs),
(20,510,l),
(20,390,l),
(99,390,l),
(99,120,ls),
(99,50,o),
(149,1,o),
(219,1,cs)
);
}
);
width = 377;
},
{
anchors = (
{
name = bottom;
pos = (170,0);
},
{
name = center;
pos = (170,250);
},
{
name = top;
pos = (170,500);
},
{
name = topright;
pos = (308,750);
}
);
layerId = "6DBC133B-A4A9-4EFF-965F-6B79E3B68C3E";
shapes = (
{
closed = 1;
nodes = (
(300,0,l),
(300,70,l),
(211,70,ls),
(190,70,o),
(177,85,o),
(177,108,cs),
(177,430,l),
(300,430,l),
(300,500,l),
(177,500,l),
(177,630,l),
(129,630,l),
(126,613,ls),
(107,507,o),
(104,500,o),
(86,500,cs),
(10,500,l),
(10,430,l),
(97,430,l),
(97,108,ls),
(97,42,o),
(142,0,o),
(211,0,cs)
);
}
);
width = 340;
}
);
unicode = 116;
userData = {
com.schriftgestaltung.Glyphs.ColorIndex = 3;
};
},
{
color = 6;
glyphname = u;
kernLeft = u;
kernRight = u;
lastChange = "2022-04-29 11:57:51 +0000";
layers = (
{
anchors = (
{
name = bottom;
pos = (286,0);
},
{
name = ogonek;
pos = (502,0);
},
{
name = top;
pos = (286,510);
},
{
name = topright;
pos = (552,510);
}
);
layerId = "BE73C5E5-17BA-4B8B-9704-EF1C804AF4CB";
metricRight = "=i";
shapes = (
{
closed = 1;
nodes = (
(243,-10,o),
(254,-9,o),
(265,-6,c),
(329,31,ls),
(343,39,o),
(350,34,o),
(350,23,cs),
(350,0,l),
(502,0,l),
(502,511,l),
(352,511,l),
(352,197,ls),
(352,147,o),
(333,125,o),
(279,125,cs),
(224,125,o),
(210,147,o),
(210,197,cs),
(210,511,l),
(60,511,l),
(60,145,ls),
(60,41,o),
(142,-10,o),
(231,-10,cs)
);
}
);
width = 567;
},
{
anchors = (
{
name = bottom;
pos = (264,0);
},
{
name = ogonek;
pos = (442,0);
},
{
name = top;
pos = (264,500);
},
{
name = topright;
pos = (512,500);
}
);
layerId = "6DBC133B-A4A9-4EFF-965F-6B79E3B68C3E";
shapes = (
{
closed = 1;
nodes = (
(257,-12,o),
(275,-10,o),
(291,-5,c),
(342,27,ls),
(353,34,o),
(362,31,o),
(362,18,cs),
(362,0,l),
(442,0,l),
(442,500,l),
(362,500,l),
(362,152,ls),
(362,96,o),
(323,60,o),
(255,60,cs),
(186,60,o),
(150,96,o),
(150,152,cs),
(150,500,l),
(70,500,l),
(70,143,ls),
(70,49,o),
(131,-12,o),
(233,-12,cs)
);
}
);
width = 527;
}
);
metricRight = i;
unicode = 117;
userData = {
com.schriftgestaltung.Glyphs.ColorIndex = 3;
com.schriftgestaltung.Glyphs.rightMetricsKey = i;
};
},
{
color = 6;
glyphname = v;
kernLeft = v;
kernRight = v;
lastChange = "2022-04-29 11:57:51 +0000";
layers = (
{
anchors = (
{
name = bottom;
pos = (247,0);
},
{
name = top;
pos = (247,510);
}
);
layerId = "BE73C5E5-17BA-4B8B-9704-EF1C804AF4CB";
shapes = (
{
closed = 1;
nodes = (
(353,0,l),
(474,510,l),
(327,510,l),
(263,192,l),
(255,114,ls),
(254,102,o),
(239,102,o),
(238,114,cs),
(230,192,l),
(167,510,l),
(20,510,l),
(140,0,l)
);
}
);
width = 494;
},
{
anchors = (
{
name = bottom;
pos = (235,0);
},
{
name = top;
pos = (235,500);
}
);
layerId = "6DBC133B-A4A9-4EFF-965F-6B79E3B68C3E";
shapes = (
{
closed = 1;
nodes = (
(290,0,l),
(440,500,l),
(357,500,l),
(248,120,l),
(240,71,ls),
(238,60,o),
(230,60,o),
(228,71,cs),
(221,120,l),
(114,500,l),
(30,500,l),
(177,0,l)
);
}
);
width = 470;
}
);
unicode = 118;
userData = {
com.schriftgestaltung.Glyphs.ColorIndex = 3;
};
},
{
color = 6;
glyphname = w;
kernLeft = w;
kernRight = w;
lastChange = "2022-04-29 11:57:51 +0000";
layers = (
{
anchors = (
{
name = bottom;
pos = (340,0);
},
{
name = top;
pos = (340,510);
}
);
layerId = "BE73C5E5-17BA-4B8B-9704-EF1C804AF4CB";
shapes = (
{
closed = 1;
nodes = (
(255,0,l),
(331,237,ls),
(334,247,o),
(346,247,o),
(349,237,cs),
(425,0,l),
(560,0,l),
(640,510,l),
(500,510,l),
(470,290,l),
(470,202,ls),
(470,186,o),
(456,188,o),
(453,198,cs),
(376,510,l),
(304,510,l),
(227,198,ls),
(224,188,o),
(210,187,o),
(210,202,cs),
(210,290,l),
(180,510,l),
(40,510,l),
(120,0,l)
);
}
);
width = 680;
},
{
anchors = (
{
name = bottom;
pos = (290,0);
},
{
name = top;
pos = (290,500);
}
);
layerId = "6DBC133B-A4A9-4EFF-965F-6B79E3B68C3E";
shapes = (
{
closed = 1;
nodes = (
(197,3,l),
(280,329,ls),
(284,345,o),
(296,345,o),
(300,329,cs),
(382,3,l),
(460,3,l),
(540,500,l),
(469,500,l),
(419,199,l),
(416,146,ls),
(415,134,o),
(405,133,o),
(402,146,cs),
(318,500,l),
(261,500,l),
(177,146,ls),
(174,133,o),
(164,134,o),
(163,146,cs),
(160,199,l),
(112,500,l),
(40,500,l),
(119,3,l)
);
}
);
width = 580;
}
);
unicode = 119;
userData = {
com.schriftgestaltung.Glyphs.ColorIndex = 3;
};
},
{
color = 6;
glyphname = x;
kernLeft = x;
kernRight = x;
lastChange = "2022-04-29 11:57:51 +0000";
layers = (
{
anchors = (
{
name = bottom;
pos = (254,0);
},
{
name = top;
pos = (254,510);
}
);
guides = (
{
pos = (200,346);
}
);
layerId = "BE73C5E5-17BA-4B8B-9704-EF1C804AF4CB";
metricLeft = "=v";
metricRight = "=v";
shapes = (
{
closed = 1;
nodes = (
(176,0,l),
(235,140,l),
(246,188,ls),
(249,200,o),
(259,200,o),
(263,188,c),
(275,140,l),
(334,0,l),
(488,0,l),
(365,255,l),
(488,510,l),
(334,510,l),
(275,370,l),
(263,322,l),
(259,310,o),
(249,310,o),
(246,322,cs),
(235,370,l),
(176,510,l),
(20,510,l),
(143,255,l),
(20,0,l)
);
}
);
width = 508;
},
{
anchors = (
{
name = bottom;
pos = (236,0);
},
{
name = top;
pos = (236,500);
}
);
guides = (
{
pos = (200,346);
}
);
layerId = "6DBC133B-A4A9-4EFF-965F-6B79E3B68C3E";
metricLeft = "=v";
metricRight = "=v";
shapes = (
{
closed = 1;
nodes = (
(124,0,l),
(212,152,l),
(230,196,ls),
(233,203,o),
(241,203,o),
(244,196,cs),
(262,152,l),
(348,0,l),
(442,0,l),
(286,250,l),
(442,500,l),
(348,500,l),
(262,348,l),
(244,304,ls),
(241,297,o),
(233,297,o),
(230,304,cs),
(212,348,l),
(124,500,l),
(30,500,l),
(188,250,l),
(30,0,l)
);
}
);
width = 472;
}
);
metricLeft = V;
metricRight = V;
unicode = 120;
userData = {
com.schriftgestaltung.Glyphs.ColorIndex = 3;
com.schriftgestaltung.Glyphs.layer.leftMetricsKey = "==v";
com.schriftgestaltung.Glyphs.layer.rightMetricsKey = "==v";
com.schriftgestaltung.Glyphs.leftMetricsKey = V;
com.schriftgestaltung.Glyphs.rightMetricsKey = V;
com.typemytype.robofont.guides = (
{
angle = 0;
isGlobal = 0;
x = 200;
y = 346;
}
);
};
},
{
color = 6;
glyphname = y;
kernLeft = y;
kernRight = y;
lastChange = "2022-04-29 11:57:51 +0000";
layers = (
{
anchors = (
{
name = bottom;
pos = (242,0);
},
{
name = top;
pos = (242,510);
}
);
layerId = "BE73C5E5-17BA-4B8B-9704-EF1C804AF4CB";
metricRight = "=v";
shapes = (
{
closed = 1;
nodes = (
(183,-210,o),
(270,-142,o),
(298,-43,cs),
(463,510,l),
(313,510,l),
(263,293,l),
(252,200,ls),
(251,188,o),
(236,188,o),
(235,200,cs),
(225,293,l),
(163,510,l),
(10,510,l),
(177,56,l),
(162,2,ls),
(149,-46,o),
(102,-80,o),
(32,-87,c),
(68,-214,l)
);
}
);
width = 483;
},
{
anchors = (
{
name = bottom;
pos = (235,0);
},
{
name = top;
pos = (235,500);
}
);
layerId = "6DBC133B-A4A9-4EFF-965F-6B79E3B68C3E";
metricRight = "=v";
shapes = (
{
closed = 1;
nodes = (
(182,-191,o),
(235,-131,o),
(262,-48,cs),
(439,500,l),
(356,500,l),
(259,185,l),
(247,131,ls),
(245,120,o),
(235,120,o),
(233,131,cs),
(224,185,l),
(104,500,l),
(20,500,l),
(200,27,l),
(187,-16,ls),
(167,-82,o),
(141,-128,o),
(72,-148,c),
(101,-220,l)
);
}
);
width = 469;
}
);
metricRight = v;
unicode = 121;
userData = {
com.schriftgestaltung.Glyphs.ColorIndex = 3;
com.schriftgestaltung.Glyphs.layer.rightMetricsKey = "==v";
com.schriftgestaltung.Glyphs.rightMetricsKey = v;
};
},
{
color = 6;
glyphname = z;
kernLeft = z;
kernRight = z;
lastChange = "2022-04-29 11:57:51 +0000";
layers = (
{
anchors = (
{
name = bottom;
pos = (240,0);
},
{
name = top;
pos = (240,510);
}
);
layerId = "BE73C5E5-17BA-4B8B-9704-EF1C804AF4CB";
shapes = (
{
closed = 1;
nodes = (
(434,0,l),
(434,120,l),
(218,120,ls),
(209,120,o),
(204,127,o),
(215,136,cs),
(248,164,l),
(434,407,l),
(434,510,l),
(45,510,l),
(45,390,l),
(260,390,ls),
(269,390,o),
(274,383,o),
(263,374,cs),
(230,346,l),
(45,104,l),
(45,0,l)
);
}
);
width = 479;
},
{
anchors = (
{
name = bottom;
pos = (223,0);
},
{
name = top;
pos = (223,500);
}
);
layerId = "6DBC133B-A4A9-4EFF-965F-6B79E3B68C3E";
shapes = (
{
closed = 1;
nodes = (
(395,0,l),
(395,70,l),
(155,70,ls),
(149,70,o),
(140,74,o),
(152,86,cs),
(184,119,l),
(395,452,l),
(395,500,l),
(50,500,l),
(50,430,l),
(290,430,ls),
(296,430,o),
(306,427,o),
(293,414,cs),
(261,381,l),
(50,48,l),
(50,0,l)
);
}
);
width = 445;
}
);
unicode = 122;
userData = {
com.schriftgestaltung.Glyphs.ColorIndex = 3;
};
},
{
color = 6;
glyphname = f_f;
kernLeft = f;
kernRight = f;
lastChange = "2022-04-29 11:57:51 +0000";
layers = (
{
anchors = (
{
name = caret_1;
pos = (365,0);
}
);
layerId = "BE73C5E5-17BA-4B8B-9704-EF1C804AF4CB";
metricRight = "=f";
shapes = (
{
closed = 1;
nodes = (
(596,0,l),
(596,386,l),
(700,386,l),
(700,510,l),
(596,510,l),
(596,576,ls),
(596,612,o),
(620,637,o),
(689,637,cs),
(717,637,o),
(752,629,o),
(783,608,c),
(830,700,l),
(791,733,o),
(732,753,o),
(667,753,cs),
(533,753,o),
(446,688,o),
(446,576,cs),
(446,510,l),
(360,510,l),
(360,386,l),
(446,386,l),
(446,0,l)
);
},
{
closed = 1;
nodes = (
(256,0,l),
(256,386,l),
(360,386,l),
(360,510,l),
(256,510,l),
(256,566,ls),
(256,602,o),
(280,627,o),
(349,627,cs),
(380,627,o),
(419,616,o),
(453,588,c),
(500,690,l),
(459,723,o),
(396,743,o),
(327,743,cs),
(193,743,o),
(106,674,o),
(106,556,cs),
(106,510,l),
(20,510,l),
(20,386,l),
(106,386,l),
(106,0,l)
);
}
);
width = 730;
},
{
anchors = (
{
name = caret_1;
pos = (333,0);
}
);
layerId = "6DBC133B-A4A9-4EFF-965F-6B79E3B68C3E";
metricRight = "=f";
shapes = (
{
closed = 1;
nodes = (
(509,0,l),
(509,430,l),
(630,430,l),
(630,500,l),
(509,500,l),
(509,585,ls),
(509,647,o),
(556,684,o),
(634,684,cs),
(679,684,o),
(716,669,o),
(746,640,c),
(780,703,l),
(745,732,o),
(692,753,o),
(630,753,cs),
(491,753,o),
(432,671,o),
(432,585,cs),
(432,500,l),
(330,500,l),
(330,430,l),
(432,430,l),
(432,0,l)
);
},
{
closed = 1;
nodes = (
(209,0,l),
(209,430,l),
(330,430,l),
(330,500,l),
(209,500,l),
(209,575,ls),
(209,637,o),
(256,674,o),
(334,674,cs),
(383,674,o),
(423,656,o),
(456,620,c),
(480,693,l),
(445,722,o),
(392,743,o),
(330,743,cs),
(191,743,o),
(132,661,o),
(132,575,cs),
(132,500,l),
(30,500,l),
(30,430,l),
(132,430,l),
(132,0,l)
);
}
);
width = 665;
}
);
metricLeft = f;
metricRight = f;
userData = {
com.schriftgestaltung.Glyphs.layer.rightMetricsKey = "==f";
com.schriftgestaltung.Glyphs.leftMetricsKey = f;
com.schriftgestaltung.Glyphs.rightMetricsKey = f;
};
},
{
color = 6;
glyphname = f_f_i;
kernLeft = f;
kernRight = i;
lastChange = "2022-04-29 11:57:51 +0000";
layers = (
{
anchors = (
{
name = caret_1;
pos = (329,0);
},
{
name = caret_2;
pos = (657,0);
}
);
layerId = "BE73C5E5-17BA-4B8B-9704-EF1C804AF4CB";
metricRight = "=i";
shapes = (
{
closed = 1;
nodes = (
(256,0,l),
(256,386,l),
(360,386,l),
(360,510,l),
(256,510,l),
(256,566,ls),
(256,602,o),
(280,627,o),
(349,627,cs),
(380,627,o),
(419,616,o),
(453,588,c),
(500,690,l),
(459,723,o),
(396,743,o),
(327,743,cs),
(193,743,o),
(106,674,o),
(106,556,cs),
(106,510,l),
(20,510,l),
(20,386,l),
(106,386,l),
(106,0,l)
);
},
{
closed = 1;
nodes = (
(596,0,l),
(596,386,l),
(700,386,l),
(700,510,l),
(596,510,l),
(596,576,ls),
(596,612,o),
(620,637,o),
(689,637,cs),
(717,637,o),
(752,629,o),
(783,608,c),
(830,700,l),
(791,733,o),
(732,753,o),
(667,753,cs),
(533,753,o),
(446,694,o),
(446,576,cs),
(446,510,l),
(360,510,l),
(360,386,l),
(446,386,l),
(446,0,l)
);
},
{
closed = 1;
nodes = (
(916,0,l),
(916,510,l),
(676,510,l),
(676,386,l),
(766,386,l),
(766,0,l)
);
},
{
closed = 1;
nodes = (
(916,578,l),
(916,700,l),
(766,700,l),
(766,578,l)
);
}
);
width = 981;
},
{
anchors = (
{
name = caret_1;
pos = (297,0);
},
{
name = caret_2;
pos = (595,0);
}
);
layerId = "6DBC133B-A4A9-4EFF-965F-6B79E3B68C3E";
metricRight = "=i";
shapes = (
{
closed = 1;
nodes = (
(209,0,l),
(209,430,l),
(330,430,l),
(330,500,l),
(209,500,l),
(209,575,ls),
(209,637,o),
(256,674,o),
(334,674,cs),
(383,674,o),
(423,656,o),
(456,620,c),
(480,693,l),
(445,722,o),
(392,743,o),
(330,743,cs),
(191,743,o),
(132,661,o),
(132,575,cs),
(132,500,l),
(30,500,l),
(30,430,l),
(132,430,l),
(132,0,l)
);
},
{
closed = 1;
nodes = (
(509,0,l),
(509,430,l),
(630,430,l),
(630,500,l),
(509,500,l),
(509,585,ls),
(509,647,o),
(556,684,o),
(634,684,cs),
(675,684,o),
(709,669,o),
(736,640,c),
(770,700,l),
(737,732,o),
(688,753,o),
(630,753,cs),
(491,753,o),
(432,671,o),
(432,585,cs),
(432,500,l),
(330,500,l),
(330,430,l),
(432,430,l),
(432,0,l)
);
},
{
closed = 1;
nodes = (
(802,0,l),
(802,500,l),
(602,500,l),
(602,430,l),
(722,430,l),
(722,0,l)
);
},
{
closed = 1;
nodes = (
(802,600,l),
(802,700,l),
(722,700,l),
(722,600,l)
);
}
);
width = 887;
}
);
metricLeft = f;
metricRight = i;
userData = {
com.schriftgestaltung.Glyphs.layer.rightMetricsKey = "==i";
com.schriftgestaltung.Glyphs.leftMetricsKey = f;
com.schriftgestaltung.Glyphs.rightMetricsKey = i;
};
},
{
color = 6;
glyphname = f_f_l;
kernLeft = f;
kernRight = l;
lastChange = "2022-04-29 11:57:51 +0000";
layers = (
{
anchors = (
{
name = caret_1;
pos = (340,0);
},
{
name = caret_2;
pos = (681,0);
}
);
layerId = "BE73C5E5-17BA-4B8B-9704-EF1C804AF4CB";
metricLeft = "=f";
shapes = (
{
closed = 1;
nodes = (
(256,0,l),
(256,386,l),
(360,386,l),
(360,510,l),
(256,510,l),
(256,566,ls),
(256,602,o),
(280,627,o),
(349,627,cs),
(380,627,o),
(419,616,o),
(453,588,c),
(500,690,l),
(459,723,o),
(396,743,o),
(327,743,cs),
(193,743,o),
(106,674,o),
(106,556,cs),
(106,510,l),
(20,510,l),
(20,386,l),
(106,386,l),
(106,0,l)
);
},
{
closed = 1;
nodes = (
(596,0,l),
(596,386,l),
(720,386,l),
(720,510,l),
(596,510,l),
(596,576,ls),
(596,612,o),
(614,637,o),
(669,637,cs),
(703,637,o),
(746,626,o),
(783,598,c),
(820,690,l),
(781,729,o),
(719,753,o),
(654,753,cs),
(529,753,o),
(446,694,o),
(446,576,cs),
(446,510,l),
(360,510,l),
(360,386,l),
(446,386,l),
(446,0,l)
);
},
{
closed = 1;
nodes = (
(991,1,l),
(991,130,l),
(937,130,ls),
(928,130,o),
(921,137,o),
(921,146,cs),
(921,750,l),
(775,750,l),
(775,120,ls),
(775,50,o),
(825,1,o),
(895,1,cs)
);
}
);
width = 1016;
},
{
anchors = (
{
name = caret_1;
pos = (298,0);
},
{
name = caret_2;
pos = (597,0);
}
);
layerId = "6DBC133B-A4A9-4EFF-965F-6B79E3B68C3E";
shapes = (
{
closed = 1;
nodes = (
(209,0,l),
(209,430,l),
(330,430,l),
(330,500,l),
(209,500,l),
(209,575,ls),
(209,637,o),
(256,674,o),
(334,674,cs),
(383,674,o),
(423,656,o),
(456,620,c),
(480,693,l),
(445,722,o),
(392,743,o),
(330,743,cs),
(191,743,o),
(132,661,o),
(132,575,cs),
(132,500,l),
(30,500,l),
(30,430,l),
(132,430,l),
(132,0,l)
);
},
{
closed = 1;
nodes = (
(509,0,l),
(509,430,l),
(630,430,l),
(630,500,l),
(509,500,l),
(509,585,ls),
(509,647,o),
(552,684,o),
(614,684,cs),
(651,684,o),
(691,669,o),
(716,628,c),
(740,691,l),
(711,732,o),
(660,753,o),
(610,753,cs),
(488,753,o),
(432,671,o),
(432,585,cs),
(432,500,l),
(330,500,l),
(330,430,l),
(432,430,l),
(432,0,l)
);
},
{
closed = 1;
nodes = (
(860,0,l),
(860,70,l),
(819,70,ls),
(798,70,o),
(785,85,o),
(785,108,cs),
(785,750,l),
(705,750,l),
(705,108,ls),
(705,42,o),
(750,0,o),
(819,0,cs)
);
}
);
width = 895;
}
);
metricLeft = f;
metricRight = l;
userData = {
com.schriftgestaltung.Glyphs.leftMetricsKey = f;
com.schriftgestaltung.Glyphs.rightMetricsKey = l;
};
},
{
color = 6;
glyphname = fi;
kernLeft = f;
kernRight = i;
lastChange = "2022-04-29 11:57:51 +0000";
layers = (
{
anchors = (
{
name = caret_1;
pos = (325,0);
}
);
layerId = "BE73C5E5-17BA-4B8B-9704-EF1C804AF4CB";
shapes = (
{
closed = 1;
nodes = (
(256,0,l),
(256,386,l),
(360,386,l),
(360,510,l),
(256,510,l),
(256,576,ls),
(256,612,o),
(280,637,o),
(349,637,cs),
(374,637,o),
(406,627,o),
(434,601,c),
(490,700,l),
(451,733,o),
(392,753,o),
(327,753,cs),
(193,753,o),
(106,684,o),
(106,566,cs),
(106,510,l),
(20,510,l),
(20,386,l),
(106,386,l),
(106,0,l)
);
},
{
closed = 1;
nodes = (
(580,0,l),
(580,510,l),
(340,510,l),
(340,386,l),
(430,386,l),
(430,0,l)
);
},
{
closed = 1;
nodes = (
(580,578,l),
(580,700,l),
(430,700,l),
(430,578,l)
);
}
);
width = 645;
},
{
anchors = (
{
name = caret_1;
pos = (301,0);
}
);
layerId = "6DBC133B-A4A9-4EFF-965F-6B79E3B68C3E";
shapes = (
{
closed = 1;
nodes = (
(209,0,l),
(209,430,l),
(330,430,l),
(330,500,l),
(209,500,l),
(209,585,ls),
(209,647,o),
(256,684,o),
(334,684,cs),
(375,684,o),
(409,669,o),
(436,637,c),
(470,700,l),
(437,732,o),
(388,753,o),
(330,753,cs),
(191,753,o),
(132,671,o),
(132,585,cs),
(132,500,l),
(30,500,l),
(30,430,l),
(132,430,l),
(132,0,l)
);
},
{
closed = 1;
nodes = (
(512,0,l),
(512,500,l),
(312,500,l),
(312,430,l),
(432,430,l),
(432,0,l)
);
},
{
closed = 1;
nodes = (
(512,600,l),
(512,700,l),
(432,700,l),
(432,600,l)
);
}
);
width = 597;
}
);
metricLeft = f;
metricRight = i;
unicode = 64257;
userData = {
com.schriftgestaltung.Glyphs.leftMetricsKey = f;
com.schriftgestaltung.Glyphs.rightMetricsKey = i;
};
},
{
color = 6;
glyphname = fl;
kernLeft = f;
kernRight = l;
lastChange = "2022-04-29 11:57:51 +0000";
layers = (
{
anchors = (
{
name = caret_1;
pos = (341,0);
}
);
layerId = "BE73C5E5-17BA-4B8B-9704-EF1C804AF4CB";
shapes = (
{
closed = 1;
nodes = (
(256,0,l),
(256,386,l),
(360,386,l),
(360,510,l),
(256,510,l),
(256,576,ls),
(256,612,o),
(274,637,o),
(329,637,cs),
(363,637,o),
(406,626,o),
(443,598,c),
(480,690,l),
(441,729,o),
(379,753,o),
(314,753,cs),
(189,753,o),
(106,684,o),
(106,566,cs),
(106,510,l),
(20,510,l),
(20,386,l),
(106,386,l),
(106,0,l)
);
},
{
closed = 1;
nodes = (
(651,1,l),
(651,130,l),
(597,130,ls),
(588,130,o),
(581,137,o),
(581,146,cs),
(581,750,l),
(435,750,l),
(435,120,ls),
(435,50,o),
(485,1,o),
(555,1,cs)
);
}
);
width = 676;
},
{
anchors = (
{
name = caret_1;
pos = (308,0);
}
);
layerId = "6DBC133B-A4A9-4EFF-965F-6B79E3B68C3E";
shapes = (
{
closed = 1;
nodes = (
(209,0,l),
(209,430,l),
(340,430,l),
(340,500,l),
(209,500,l),
(209,585,ls),
(209,647,o),
(252,684,o),
(314,684,cs),
(355,684,o),
(399,669,o),
(426,625,c),
(450,688,l),
(419,734,o),
(364,755,o),
(310,755,cs),
(188,755,o),
(132,673,o),
(132,585,cs),
(132,500,l),
(30,500,l),
(30,430,l),
(132,430,l),
(132,0,l)
);
},
{
closed = 1;
nodes = (
(580,0,l),
(580,70,l),
(539,70,ls),
(518,70,o),
(505,85,o),
(505,108,cs),
(505,750,l),
(425,750,l),
(425,108,ls),
(425,42,o),
(470,0,o),
(539,0,cs)
);
}
);
width = 615;
}
);
metricLeft = f;
metricRight = l;
unicode = 64258;
userData = {
com.schriftgestaltung.Glyphs.leftMetricsKey = f;
com.schriftgestaltung.Glyphs.rightMetricsKey = l;
};
},
{
color = 6;
glyphname = ordfeminine;
kernLeft = ordfeminine;
kernRight = ordfeminine;
lastChange = "2022-04-29 11:57:51 +0000";
layers = (
{
layerId = "BE73C5E5-17BA-4B8B-9704-EF1C804AF4CB";
shapes = (
{
closed = 1;
nodes = (
(426,407,l),
(384,476,l),
(384,649,ls),
(384,742,o),
(325,810,o),
(198,810,cs),
(140,810,o),
(88,793,o),
(43,768,c),
(81,665,l),
(115,684,o),
(151,698,o),
(187,698,cs),
(235,698,o),
(259,682,o),
(259,649,cs),
(259,611,l),
(192,611,ls),
(108,611,o),
(40,567,o),
(40,484,cs),
(40,409,o),
(90,354,o),
(173,354,cs),
(218,354,o),
(251,369,o),
(277,389,cs),
(285,395,o),
(292,394,o),
(298,386,cs),
(325,350,l)
);
},
{
closed = 1;
nodes = (
(179,450,o),
(160,466,o),
(160,485,cs),
(160,504,o),
(170,515,o),
(193,515,cs),
(218,515,l),
(244,524,ls),
(253,527,o),
(259,525,o),
(259,519,cs),
(259,513,ls),
(259,476,o),
(239,450,o),
(205,450,cs)
);
}
);
width = 451;
},
{
layerId = "6DBC133B-A4A9-4EFF-965F-6B79E3B68C3E";
shapes = (
{
closed = 1;
nodes = (
(393,397,l),
(360,451,l),
(360,662,ls),
(360,741,o),
(309,800,o),
(207,800,cs),
(152,800,o),
(109,787,o),
(65,756,c),
(89,692,l),
(126,719,o),
(157,731,o),
(201,731,cs),
(261,731,o),
(288,702,o),
(288,656,cs),
(288,599,l),
(192,599,ls),
(109,599,o),
(55,556,o),
(55,480,cs),
(55,409,o),
(106,361,o),
(187,361,cs),
(235,361,o),
(262,379,o),
(289,402,cs),
(294,406,o),
(299,405,o),
(303,400,cs),
(330,360,l)
);
},
{
closed = 1;
nodes = (
(155,424,o),
(129,448,o),
(129,482,cs),
(129,516,o),
(154,536,o),
(196,536,cs),
(226,536,l),
(272,546,ls),
(282,548,o),
(288,544,o),
(288,534,cs),
(288,501,ls),
(288,454,o),
(252,424,o),
(193,424,cs)
);
}
);
width = 443;
}
);
unicode = 170;
},
{
color = 6;
glyphname = ordmasculine;
kernLeft = ordmasculine;
kernRight = ordmasculine;
lastChange = "2022-04-29 11:57:51 +0000";
layers = (
{
layerId = "BE73C5E5-17BA-4B8B-9704-EF1C804AF4CB";
shapes = (
{
closed = 1;
nodes = (
(346,344,o),
(413,413,o),
(425,499,cs),
(429,527,o),
(429,553,o),
(429,577,cs),
(429,604,o),
(427,629,o),
(425,657,cs),
(419,747,o),
(346,813,o),
(237,813,cs),
(127,813,o),
(61,746,o),
(49,657,cs),
(46,628,o),
(45,604,o),
(45,577,cs),
(45,553,o),
(47,527,o),
(49,499,cs),
(56,410,o),
(127,344,o),
(237,344,cs)
);
},
{
closed = 1;
nodes = (
(204,462,o),
(187,489,o),
(185,524,cs),
(183,564,o),
(180,594,o),
(184,635,cs),
(188,669,o),
(204,698,o),
(237,698,cs),
(270,698,o),
(287,670,o),
(290,635,cs),
(294,594,o),
(295,564,o),
(289,523,cs),
(285,491,o),
(270,462,o),
(237,462,cs)
);
}
);
width = 474;
},
{
layerId = "6DBC133B-A4A9-4EFF-965F-6B79E3B68C3E";
shapes = (
{
closed = 1;
nodes = (
(329,354,o),
(386,419,o),
(397,503,cs),
(401,530,o),
(402,553,o),
(402,577,cs),
(402,602,o),
(400,628,o),
(397,654,cs),
(388,740,o),
(329,802,o),
(229,802,cs),
(128,802,o),
(70,741,o),
(60,654,cs),
(57,626,o),
(55,602,o),
(55,577,cs),
(55,553,o),
(56,531,o),
(60,503,cs),
(72,418,o),
(128,354,o),
(229,354,cs)
);
},
{
closed = 1;
nodes = (
(169,420,o),
(138,459,o),
(133,508,cs),
(128,558,o),
(128,596,o),
(132,648,cs),
(136,696,o),
(169,737,o),
(229,737,cs),
(288,737,o),
(320,696,o),
(324,648,cs),
(329,596,o),
(327,558,o),
(323,507,cs),
(320,459,o),
(288,420,o),
(229,420,cs)
);
}
);
width = 457;
}
);
unicode = 186;
},
{
color = 6;
glyphname = "Be-cy";
kernLeft = H;
kernRight = B;
lastChange = "2022-04-29 11:57:51 +0000";
layers = (
{
background = {
shapes = (
{
closed = 1;
nodes = (
(70,700,l),
(70,0,l),
(329,0,ls),
(471,0,o),
(552,72,o),
(552,198,cs),
(552,281,o),
(513,341,o),
(445,362,c),
(501,389,o),
(533,442,o),
(533,509,cs),
(533,631,o),
(451,700,o),
(309,700,cs)
);
},
{
closed = 1;
nodes = (
(379,285,o),
(407,252,o),
(407,205,cs),
(407,156,o),
(379,130,o),
(329,130,cs),
(215,130,l),
(215,285,l),
(329,285,ls)
);
},
{
closed = 1;
nodes = (
(360,570,o),
(389,543,o),
(389,495,cs),
(389,448,o),
(360,415,o),
(309,415,cs),
(215,415,l),
(215,570,l),
(309,570,ls)
);
}
);
};
layerId = "BE73C5E5-17BA-4B8B-9704-EF1C804AF4CB";
shapes = (
{
closed = 1;
nodes = (
(319,0,ls),
(467,0,o),
(552,76,o),
(552,218,cs),
(552,340,o),
(486,435,o),
(319,435,cs),
(215,435,l),
(215,560,l),
(509,560,l),
(509,700,l),
(70,700,l),
(70,0,l)
);
},
{
closed = 1;
nodes = (
(215,305,l),
(319,305,ls),
(375,305,o),
(407,268,o),
(407,215,cs),
(407,159,o),
(375,130,o),
(319,130,cs),
(215,130,l)
);
}
);
width = 592;
},
{
background = {
anchors = (
{
name = bottom;
pos = (282,0);
},
{
name = center;
pos = (310,530);
},
{
name = top;
pos = (282,670);
},
{
name = topleft;
pos = (20,700);
}
);
shapes = (
{
closed = 1;
nodes = (
(90,700,l),
(90,0,l),
(307,0,ls),
(437,0,o),
(513,69,o),
(513,190,cs),
(513,269,o),
(471,331,o),
(404,355,c),
(462,382,o),
(499,436,o),
(499,510,cs),
(499,631,o),
(428,700,o),
(307,700,cs)
);
},
{
closed = 1;
nodes = (
(389,316,o),
(435,269,o),
(435,190,cs),
(435,115,o),
(389,70,o),
(308,70,cs),
(168,70,l),
(168,316,l),
(308,316,ls)
);
},
{
closed = 1;
nodes = (
(380,630,o),
(421,584,o),
(421,510,cs),
(421,432,o),
(380,386,o),
(308,386,cs),
(168,386,l),
(168,630,l),
(308,630,ls)
);
}
);
};
layerId = "6DBC133B-A4A9-4EFF-965F-6B79E3B68C3E";
shapes = (
{
closed = 1;
nodes = (
(297,0,ls),
(427,0,o),
(513,69,o),
(513,200,cs),
(513,325,o),
(438,406,o),
(298,406,cs),
(168,406,l),
(168,622,l),
(462,622,l),
(462,700,l),
(90,700,l),
(90,0,l)
);
},
{
closed = 1;
nodes = (
(168,336,l),
(298,336,ls),
(379,336,o),
(435,289,o),
(435,200,cs),
(435,115,o),
(379,70,o),
(298,70,cs),
(168,70,l)
);
}
);
width = 563;
}
);
metricLeft = H;
metricRight = B;
unicode = 1041;
userData = {
com.schriftgestaltung.Glyphs.ColorIndex = 4;
com.schriftgestaltung.Glyphs.leftMetricsKey = H;
com.schriftgestaltung.Glyphs.rightMetricsKey = B;
com.typemytype.robofont.layerData = {
background = {
anchors = (
{
name = bottom;
x = 282;
y = 0;
},
{
name = top;
x = 282;
y = 670;
},
{
name = topleft;
x = 20;
y = 700;
},
{
name = center;
x = 310;
y = 530;
}
);
components = (
);
contours = (
{
points = (
{
segmentType = line;
smooth = 0;
x = 90;
y = 700;
},
{
segmentType = line;
smooth = 0;
x = 90;
y = 0;
},
{
segmentType = line;
smooth = 1;
x = 307;
y = 0;
},
{
smooth = 0;
x = 437;
y = 0;
},
{
smooth = 0;
x = 513;
y = 69;
},
{
segmentType = curve;
smooth = 1;
x = 513;
y = 190;
},
{
smooth = 0;
x = 513;
y = 269;
},
{
smooth = 0;
x = 471;
y = 331;
},
{
segmentType = curve;
smooth = 0;
x = 404;
y = 355;
},
{
smooth = 0;
x = 462;
y = 382;
},
{
smooth = 0;
x = 499;
y = 436;
},
{
segmentType = curve;
smooth = 1;
x = 499;
y = 510;
},
{
smooth = 0;
x = 499;
y = 631;
},
{
smooth = 0;
x = 428;
y = 700;
},
{
segmentType = curve;
smooth = 1;
x = 307;
y = 700;
}
);
},
{
points = (
{
smooth = 0;
x = 389;
y = 316;
},
{
smooth = 0;
x = 435;
y = 269;
},
{
segmentType = curve;
smooth = 1;
x = 435;
y = 190;
},
{
smooth = 0;
x = 435;
y = 115;
},
{
smooth = 0;
x = 389;
y = 70;
},
{
segmentType = curve;
smooth = 1;
x = 308;
y = 70;
},
{
segmentType = line;
smooth = 0;
x = 168;
y = 70;
},
{
segmentType = line;
smooth = 0;
x = 168;
y = 316;
},
{
segmentType = line;
smooth = 1;
x = 308;
y = 316;
}
);
},
{
points = (
{
smooth = 0;
x = 380;
y = 630;
},
{
smooth = 0;
x = 421;
y = 584;
},
{
segmentType = curve;
smooth = 1;
x = 421;
y = 510;
},
{
smooth = 0;
x = 421;
y = 432;
},
{
smooth = 0;
x = 380;
y = 386;
},
{
segmentType = curve;
smooth = 1;
x = 308;
y = 386;
},
{
segmentType = line;
smooth = 0;
x = 168;
y = 386;
},
{
segmentType = line;
smooth = 0;
x = 168;
y = 630;
},
{
segmentType = line;
smooth = 1;
x = 308;
y = 630;
}
);
}
);
lib = {
};
name = "Be-cy";
unicodes = (
);
width = 563;
};
};
public.markColor = "0.67,0.95,0.38,1";
};
},
{
color = 6;
glyphname = "Ge-cy";
kernLeft = H;
kernRight = "Ge-cy";
lastChange = "2022-04-29 11:57:51 +0000";
layers = (
{
anchors = (
{
name = bottomright;
pos = (464,0);
},
{
name = center;
pos = (71,352);
},
{
name = top;
pos = (242,700);
}
);
layerId = "BE73C5E5-17BA-4B8B-9704-EF1C804AF4CB";
shapes = (
{
closed = 1;
nodes = (
(230,0,l),
(230,560,l),
(454,560,l),
(454,700,l),
(70,700,l),
(70,0,l)
);
}
);
width = 474;
},
{
anchors = (
{
name = bottomright;
pos = (432,0);
},
{
name = center;
pos = (161,352);
},
{
name = top;
pos = (226,700);
}
);
layerId = "6DBC133B-A4A9-4EFF-965F-6B79E3B68C3E";
shapes = (
{
closed = 1;
nodes = (
(173,0,l),
(173,622,l),
(422,622,l),
(422,700,l),
(90,700,l),
(90,0,l)
);
}
);
width = 432;
}
);
unicode = 1043;
userData = {
com.schriftgestaltung.Glyphs.ColorIndex = 4;
public.markColor = "0.67,0.95,0.38,1";
};
},
{
color = 6;
glyphname = "Gheupturn-cy";
kernLeft = H;
kernRight = "Ge-cy";
lastChange = "2022-04-29 11:57:51 +0000";
layers = (
{
layerId = "BE73C5E5-17BA-4B8B-9704-EF1C804AF4CB";
shapes = (
{
closed = 1;
nodes = (
(230,0,l),
(230,560,l),
(454,560,l),
(454,840,l),
(304,840,l),
(304,700,l),
(70,700,l),
(70,0,l)
);
}
);
width = 474;
},
{
layerId = "6DBC133B-A4A9-4EFF-965F-6B79E3B68C3E";
shapes = (
{
closed = 1;
nodes = (
(173,0,l),
(173,622,l),
(422,622,l),
(422,840,l),
(349,840,l),
(349,700,l),
(90,700,l),
(90,0,l)
);
}
);
width = 432;
}
);
metricLeft = H;
metricRight = "Ge-cy";
unicode = 1168;
userData = {
com.schriftgestaltung.Glyphs.ColorIndex = 6;
com.schriftgestaltung.Glyphs.layer.rightMetricsKey = "==L";
com.schriftgestaltung.Glyphs.leftMetricsKey = H;
com.schriftgestaltung.Glyphs.rightMetricsKey = "Ge-cy";
public.markColor = "0,0.67,0.91,1";
};
},
{
color = 3;
glyphname = "Ghestroke-cy";
kernLeft = "Ghestroke-cy";
kernRight = "Ge-cy";
lastChange = "2022-04-29 11:57:51 +0000";
layers = (
{
background = {
shapes = (
{
closed = 1;
nodes = (
(370,296,l),
(370,410,l),
(10,410,l),
(10,296,l)
);
}
);
};
layerId = "BE73C5E5-17BA-4B8B-9704-EF1C804AF4CB";
shapes = (
{
closed = 1;
nodes = (
(340,295,l),
(340,409,l),
(0,409,l),
(0,295,l)
);
},
{
pos = (10,0);
ref = "Ge-cy";
}
);
width = 484;
},
{
layerId = "6DBC133B-A4A9-4EFF-965F-6B79E3B68C3E";
shapes = (
{
closed = 1;
nodes = (
(306,317,l),
(306,386,l),
(15,386,l),
(15,317,l)
);
},
{
alignment = -1;
ref = "Ge-cy";
}
);
width = 432;
}
);
metricRight = "Ge-cy";
unicode = 1170;
userData = {
com.schriftgestaltung.Glyphs.ColorIndex = 3;
com.schriftgestaltung.Glyphs.rightMetricsKey = "Ge-cy";
public.markColor = "0.97,1,0,1";
};
},
{
color = 6;
glyphname = "Ghemiddlehook-cy";
kernLeft = "Ghemiddlehook-cy";
kernRight = "Ghemiddlehook-cy";
lastChange = "2022-04-29 11:57:51 +0000";
layers = (
{
background = {
shapes = (
{
ref = "Be-cy";
}
);
};
layerId = "BE73C5E5-17BA-4B8B-9704-EF1C804AF4CB";
shapes = (
{
closed = 1;
nodes = (
(499,-149,o),
(571,-24,o),
(571,142,cs),
(571,332,o),
(478,411,o),
(360,411,cs),
(342,411,o),
(325,410,o),
(308,407,c),
(250,381,ls),
(236,375,o),
(230,380,o),
(230,391,cs),
(230,560,l),
(539,560,l),
(539,700,l),
(70,700,l),
(70,0,l),
(230,0,l),
(230,260,l),
(247,267,o),
(279,276,o),
(313,276,cs),
(371,276,o),
(409,233,o),
(409,142,cs),
(409,57,o),
(389,-19,o),
(339,-19,cs),
(329,-19,o),
(315,-17,o),
(306,-14,c),
(278,-139,l),
(298,-144,o),
(331,-149,o),
(361,-149,cs)
);
}
);
width = 611;
},
{
background = {
shapes = (
{
ref = "Be-cy";
}
);
};
layerId = "6DBC133B-A4A9-4EFF-965F-6B79E3B68C3E";
shapes = (
{
closed = 1;
nodes = (
(459,-149,o),
(518,-20,o),
(518,141,cs),
(518,329,o),
(417,395,o),
(319,395,cs),
(297,395,o),
(263,391,o),
(244,386,c),
(193,364,ls),
(182,359,o),
(173,363,o),
(173,376,cs),
(173,622,l),
(496,622,l),
(496,700,l),
(90,700,l),
(90,0,l),
(173,0,l),
(173,291,l),
(200,307,o),
(245,320,o),
(303,320,cs),
(384,320,o),
(435,267,o),
(435,141,cs),
(435,36,o),
(407,-78,o),
(307,-78,cs),
(297,-78,o),
(283,-76,o),
(274,-73,c),
(254,-139,l),
(267,-144,o),
(287,-149,o),
(307,-149,cs)
);
}
);
width = 568;
}
);
metricLeft = "En-cy";
metricRight = "Be-cy";
unicode = 1172;
userData = {
com.schriftgestaltung.Glyphs.ColorIndex = 3;
com.schriftgestaltung.Glyphs.leftMetricsKey = "En-cy";
com.schriftgestaltung.Glyphs.rightMetricsKey = "Be-cy";
com.typemytype.robofont.layerData = {
background = {
anchors = (
);
components = (
{
baseGlyph = "Be-cy";
transformation = (
1,
0,
0,
1,
0,
0
);
}
);
contours = (
);
lib = {
};
name = "Ghemiddlehook-cy";
unicodes = (
);
width = 568;
};
};
public.markColor = "0.97,1,0,1";
};
},
{
color = 3;
glyphname = "De-cy";
kernLeft = "De-cy";
kernRight = "De-cy";
lastChange = "2022-04-29 11:57:51 +0000";
layers = (
{
background = {
anchors = (
{
name = bottom;
pos = (337,0);
},
{
name = center;
pos = (369,350);
},
{
name = top;
pos = (369,700);
}
);
shapes = (
{
closed = 1;
nodes = (
(170,-140,l),
(170,0,l),
(516,0,l),
(516,-140,l),
(666,-140,l),
(666,140,l),
(596,140,l),
(596,700,l),
(159,700,l),
(156,610,ls),
(150,431,o),
(125,256,o),
(70,140,c),
(20,140,l),
(20,-140,l)
);
},
{
closed = 1;
nodes = (
(217,140,o),
(212,148,o),
(217,156,cs),
(246,203,l),
(281,297,o),
(299,427,o),
(303,560,c),
(436,560,l),
(436,140,l),
(228,140,ls)
);
}
);
};
layerId = "BE73C5E5-17BA-4B8B-9704-EF1C804AF4CB";
shapes = (
{
closed = 1;
nodes = (
(170,-140,l),
(170,0,l),
(581,0,l),
(581,700,l),
(144,700,l),
(142,521,o),
(137,394,o),
(129,308,cs),
(121,223,o),
(94,167,o),
(55,140,c),
(20,140,l),
(20,-140,l)
);
},
{
closed = 1;
nodes = (
(227,140,o),
(223,148,o),
(229,158,cs),
(260,209,l),
(266,239,o),
(273,272,o),
(276,304,cs),
(281,353,o),
(288,438,o),
(290,560,c),
(427,560,l),
(427,140,l),
(239,140,l)
);
},
{
pos = (447,0);
ref = Descender;
}
);
width = 686;
},
{
background = {
shapes = (
{
pos = (10,0);
ref = "El-cy";
}
);
};
layerId = "6DBC133B-A4A9-4EFF-965F-6B79E3B68C3E";
shapes = (
{
closed = 1;
nodes = (
(93,-140,l),
(93,0,l),
(524,0,l),
(527,700,l),
(150,700,l),
(148,492,o),
(142,344,o),
(133,244,cs),
(125,159,o),
(98,103,o),
(59,76,c),
(20,76,l),
(20,-140,l)
);
},
{
closed = 1;
nodes = (
(163,76,o),
(159,84,o),
(165,94,cs),
(196,145,l),
(202,175,o),
(209,208,o),
(212,240,cs),
(219,312,o),
(226,439,o),
(228,622,c),
(444,622,l),
(444,76,l),
(175,76,ls)
);
},
{
pos = (458,0);
ref = Descender;
}
);
width = 627;
}
);
unicode = 1044;
userData = {
com.schriftgestaltung.Glyphs.ColorIndex = 4;
com.typemytype.robofont.layerData = {
background = {
anchors = (
);
components = (
{
baseGlyph = "El-cy";
transformation = (
1,
0,
0,
1,
10,
0
);
}
);
contours = (
);
lib = {
};
name = "De-cy";
unicodes = (
);
width = 627;
};
};
public.markColor = "0.67,0.95,0.38,1";
};
},
{
color = 6;
glyphname = "Zhe-cy";
kernLeft = X;
kernRight = X;
lastChange = "2022-04-29 11:57:51 +0000";
layers = (
{
anchors = (
{
name = bottomright;
pos = (856,0);
},
{
name = top;
pos = (438,700);
}
);
layerId = "BE73C5E5-17BA-4B8B-9704-EF1C804AF4CB";
shapes = (
{
closed = 1;
nodes = (
(192,0,l),
(303,285,l),
(360,285,l),
(360,0,l),
(516,0,l),
(516,285,l),
(573,285,l),
(684,0,l),
(851,0,l),
(708,360,l),
(856,700,l),
(687,700,l),
(573,415,l),
(516,415,l),
(516,700,l),
(360,700,l),
(360,415,l),
(303,415,l),
(189,700,l),
(20,700,l),
(168,360,l),
(25,0,l)
);
}
);
width = 876;
},
{
anchors = (
{
name = bottomright;
pos = (772,0);
},
{
name = top;
pos = (396,670);
}
);
layerId = "6DBC133B-A4A9-4EFF-965F-6B79E3B68C3E";
shapes = (
{
closed = 1;
nodes = (
(118,0,l),
(279,312,l),
(354,312,l),
(354,0,l),
(436,0,l),
(436,312,l),
(511,312,l),
(672,0,l),
(762,0,l),
(577,356,l),
(755,700,l),
(670,700,l),
(511,387,l),
(436,387,l),
(436,700,l),
(354,700,l),
(354,387,l),
(279,387,l),
(120,700,l),
(30,700,l),
(213,353,l),
(30,0,l)
);
}
);
width = 792;
}
);
metricRight = K;
unicode = 1046;
userData = {
com.schriftgestaltung.Glyphs.ColorIndex = 6;
com.schriftgestaltung.Glyphs.rightMetricsKey = K;
public.markColor = "0,0.67,0.91,1";
};
},
{
color = 6;
glyphname = "Ze-cy";
kernLeft = X;
kernRight = B;
lastChange = "2022-04-29 11:57:51 +0000";
layers = (
{
anchors = (
{
name = bottom;
pos = (270,0);
},
{
name = top;
pos = (250,700);
}
);
background = {
shapes = (
{
closed = 1;
nodes = (
(360,-10,o),
(499,55,o),
(499,197,cs),
(499,282,o),
(458,330,o),
(404,357,c),
(450,387,o),
(479,436,o),
(479,512,cs),
(479,656,o),
(349,712,o),
(240,712,cs),
(165,712,o),
(100,701,o),
(32,659,c),
(75,541,l),
(125,568,o),
(180,578,o),
(231,578,cs),
(295,578,o),
(331,545,o),
(331,497,cs),
(331,450,o),
(305,422,o),
(247,422,cs),
(131,422,l),
(131,292,l),
(237,292,ls),
(319,292,o),
(351,254,o),
(351,207,cs),
(351,156,o),
(313,127,o),
(244,127,cs),
(167,127,o),
(125,142,o),
(67,191,c),
(20,64,l),
(91,7,o),
(162,-10,o),
(255,-10,cs)
);
}
);
};
layerId = "BE73C5E5-17BA-4B8B-9704-EF1C804AF4CB";
shapes = (
{
closed = 1;
nodes = (
(395,-10,o),
(499,72,o),
(499,197,cs),
(499,282,o),
(458,330,o),
(404,357,c),
(450,387,o),
(479,436,o),
(479,512,cs),
(479,656,o),
(353,712,o),
(247,712,cs),
(172,712,o),
(107,701,o),
(39,659,c),
(82,541,l),
(132,568,o),
(187,578,o),
(238,578,cs),
(298,578,o),
(331,545,o),
(331,497,cs),
(331,450,o),
(305,422,o),
(247,422,cs),
(131,422,l),
(131,292,l),
(237,292,ls),
(319,292,o),
(351,254,o),
(351,207,cs),
(351,156,o),
(313,127,o),
(244,127,cs),
(167,127,o),
(125,142,o),
(67,191,c),
(20,64,l),
(91,7,o),
(162,-10,o),
(255,-10,cs)
);
}
);
width = 539;
},
{
anchors = (
{
name = bottom;
pos = (254,0);
},
{
name = top;
pos = (244,670);
}
);
background = {
shapes = (
{
pos = (5,0);
ref = three;
}
);
};
layerId = "6DBC133B-A4A9-4EFF-965F-6B79E3B68C3E";
shapes = (
{
closed = 1;
nodes = (
(354,-6,o),
(468,45,o),
(468,197,cs),
(468,285,o),
(405,344,o),
(346,360,c),
(399,375,o),
(451,432,o),
(451,516,cs),
(451,659,o),
(335,706,o),
(248,706,cs),
(175,706,o),
(115,688,o),
(53,652,c),
(80,583,l),
(123,613,o),
(191,629,o),
(245,629,cs),
(324,629,o),
(370,587,o),
(370,516,cs),
(370,438,o),
(330,390,o),
(240,390,cs),
(128,390,l),
(128,314,l),
(240,314,ls),
(340,314,o),
(386,272,o),
(386,197,cs),
(386,118,o),
(336,71,o),
(226,71,cs),
(170,71,o),
(102,98,o),
(59,136,c),
(30,67,l),
(90,19,o),
(155,-6,o),
(237,-6,cs)
);
}
);
width = 518;
}
);
metricRight = B;
unicode = 1047;
userData = {
com.schriftgestaltung.Glyphs.ColorIndex = 4;
com.schriftgestaltung.Glyphs.rightMetricsKey = B;
com.typemytype.robofont.layerData = {
background = {
anchors = (
);
components = (
{
baseGlyph = three;
transformation = (
1,
0,
0,
1,
5,
0
);
}
);
contours = (
);
lib = {
};
name = "Ze-cy";
unicodes = (
);
width = 518;
};
};
public.markColor = "0.67,0.95,0.38,1";
};
},
{
color = 6;
glyphname = "Ii-cy";
kernLeft = H;
kernRight = H;
lastChange = "2022-04-29 11:57:51 +0000";
layers = (
{
anchors = (
{
name = bottomright;
pos = (575,0);
},
{
name = top;
pos = (323,700);
}
);
background = {
shapes = (
{
closed = 1;
nodes = (
(410,700,l),
(411,420,l),
(230,420,l),
(230,700,l),
(70,700,l),
(70,0,l),
(230,0,l),
(230,280,l),
(411,280,l),
(410,0,l),
(570,0,l),
(570,700,l)
);
}
);
};
layerId = "BE73C5E5-17BA-4B8B-9704-EF1C804AF4CB";
shapes = (
{
closed = 1;
nodes = (
(215,0,l),
(418,399,ls),
(423,409,o),
(436,403,o),
(434,393,cs),
(420,305,l),
(420,0,l),
(575,0,l),
(575,700,l),
(430,700,l),
(226,301,ls),
(221,291,o),
(208,297,o),
(210,307,cs),
(225,395,l),
(225,700,l),
(70,700,l),
(70,0,l)
);
}
);
width = 645;
},
{
anchors = (
{
name = bottomright;
pos = (543,0);
},
{
name = top;
pos = (312,670);
}
);
background = {
shapes = (
{
closed = 1;
nodes = (
(447,700,l),
(447,389,l),
(173,389,l),
(173,700,l),
(90,700,l),
(90,0,l),
(173,0,l),
(173,311,l),
(447,311,l),
(447,0,l),
(530,0,l),
(530,700,l)
);
}
);
};
layerId = "6DBC133B-A4A9-4EFF-965F-6B79E3B68C3E";
shapes = (
{
closed = 1;
nodes = (
(163,0,l),
(462,534,ls),
(469,546,o),
(478,542,o),
(476,531,cs),
(466,466,l),
(466,0,l),
(549,0,l),
(549,700,l),
(476,700,l),
(175,162,ls),
(170,152,o),
(161,158,o),
(162,167,cs),
(173,234,l),
(173,700,l),
(90,700,l),
(90,0,l)
);
}
);
width = 639;
}
);
metricLeft = H;
metricRight = H;
unicode = 1048;
userData = {
com.schriftgestaltung.Glyphs.ColorIndex = 6;
com.schriftgestaltung.Glyphs.leftMetricsKey = H;
com.schriftgestaltung.Glyphs.rightMetricsKey = H;
com.typemytype.robofont.layerData = {
background = {
anchors = (
);
components = (
);
contours = (
{
points = (
{
segmentType = line;
smooth = 0;
x = 447;
y = 700;
},
{
segmentType = line;
smooth = 0;
x = 447;
y = 389;
},
{
segmentType = line;
smooth = 0;
x = 173;
y = 389;
},
{
segmentType = line;
smooth = 0;
x = 173;
y = 700;
},
{
segmentType = line;
smooth = 0;
x = 90;
y = 700;
},
{
segmentType = line;
smooth = 0;
x = 90;
y = 0;
},
{
segmentType = line;
smooth = 0;
x = 173;
y = 0;
},
{
segmentType = line;
smooth = 0;
x = 173;
y = 311;
},
{
segmentType = line;
smooth = 0;
x = 447;
y = 311;
},
{
segmentType = line;
smooth = 0;
x = 447;
y = 0;
},
{
segmentType = line;
smooth = 0;
x = 530;
y = 0;
},
{
segmentType = line;
smooth = 0;
x = 530;
y = 700;
}
);
}
);
lib = {
};
name = "Ii-cy";
unicodes = (
);
width = 639;
};
};
public.markColor = "0,0.67,0.91,1";
};
},
{
color = 3;
glyphname = "Iishorttail-cy";
kernLeft = H;
kernRight = "Iishorttail-cy";
lastChange = "2022-04-29 11:57:51 +0000";
layers = (
{
layerId = "BE73C5E5-17BA-4B8B-9704-EF1C804AF4CB";
shapes = (
{
closed = 1;
nodes = (
(545,-140,l),
(655,110,l),
(655,140,l),
(518,140,l),
(395,-140,l)
);
},
{
ref = "Iishort-cy";
}
);
width = 660;
},
{
layerId = "6DBC133B-A4A9-4EFF-965F-6B79E3B68C3E";
shapes = (
{
closed = 1;
nodes = (
(522,-140,l),
(619,57,l),
(619,76,l),
(549,76,l),
(443,-140,l)
);
},
{
ref = "Iishort-cy";
}
);
width = 634;
}
);
metricLeft = "En-cy";
unicode = 1162;
userData = {
com.schriftgestaltung.Glyphs.ColorIndex = 4;
com.schriftgestaltung.Glyphs.leftMetricsKey = "En-cy";
public.markColor = "0.67,0.95,0.38,1";
};
},
{
color = 6;
glyphname = "El-cy";
kernLeft = "El-cy";
kernRight = H;
lastChange = "2022-04-29 11:57:51 +0000";
layers = (
{
background = {
shapes = (
{
closed = 1;
nodes = (
(208,9,o),
(246,101,o),
(260,560,c),
(410,560,l),
(410,0,l),
(570,0,l),
(570,700,l),
(116,700,l),
(111,561,ls),
(98,202,o),
(89,128,o),
(-15,112,c),
(65,-15,l)
);
},
{
pos = (-29,210);
ref = j;
}
);
};
layerId = "BE73C5E5-17BA-4B8B-9704-EF1C804AF4CB";
shapes = (
{
closed = 1;
nodes = (
(160,9,o),
(234,77,o),
(251,184,cs),
(266,277,o),
(267,405,o),
(271,560,c),
(410,560,l),
(410,0,l),
(570,0,l),
(570,700,l),
(123,700,l),
(121,492,o),
(115,341,o),
(104,227,cs),
(98,166,o),
(66,130,o),
(10,120,c),
(46,-12,l)
);
}
);
width = 640;
},
{
background = {
shapes = (
{
closed = 0;
nodes = (
(513,76,l),
(513,700,l),
(144,700,l),
(144,622,ls),
(144,430,o),
(125,220,o),
(46,76,c)
);
},
{
closed = 0;
nodes = (
(153,129,l),
(202,258,o),
(223,439,o),
(223,622,c),
(430,622,l),
(430,76,l)
);
}
);
};
layerId = "6DBC133B-A4A9-4EFF-965F-6B79E3B68C3E";
shapes = (
{
closed = 1;
nodes = (
(130,7,o),
(189,75,o),
(201,184,cs),
(213,292,o),
(217,441,o),
(221,622,c),
(427,622,l),
(427,0,l),
(510,0,l),
(510,700,l),
(142,700,l),
(140,482,o),
(135,324,o),
(122,205,cs),
(113,120,o),
(76,73,o),
(10,57,c),
(41,-16,l)
);
}
);
width = 600;
}
);
metricLeft = J;
metricRight = H;
unicode = 1051;
userData = {
com.schriftgestaltung.Glyphs.ColorIndex = 4;
com.schriftgestaltung.Glyphs.leftMetricsKey = J;
com.schriftgestaltung.Glyphs.rightMetricsKey = H;
com.typemytype.robofont.layerData = {
background = {
anchors = (
);
components = (
);
contours = (
{
points = (
{
segmentType = move;
smooth = 0;
x = 513;
y = 76;
},
{
segmentType = line;
smooth = 0;
x = 513;
y = 700;
},
{
segmentType = line;
smooth = 0;
x = 144;
y = 700;
},
{
segmentType = line;
smooth = 1;
x = 144;
y = 622;
},
{
smooth = 0;
x = 144;
y = 430;
},
{
smooth = 0;
x = 125;
y = 220;
},
{
segmentType = curve;
smooth = 0;
x = 46;
y = 76;
}
);
},
{
points = (
{
segmentType = move;
smooth = 0;
x = 153;
y = 129;
},
{
smooth = 0;
x = 202;
y = 258;
},
{
smooth = 0;
x = 223;
y = 439;
},
{
segmentType = curve;
smooth = 0;
x = 223;
y = 622;
},
{
segmentType = line;
smooth = 0;
x = 430;
y = 622;
},
{
segmentType = line;
smooth = 0;
x = 430;
y = 76;
}
);
}
);
lib = {
};
name = "El-cy";
unicodes = (
);
width = 600;
};
};
public.markColor = "0.67,0.95,0.38,1";
};
},
{
color = 6;
glyphname = "Pe-cy";
kernLeft = H;
kernRight = H;
lastChange = "2022-04-29 11:57:51 +0000";
layers = (
{
anchors = (
{
name = bottomright;
pos = (565,0);
}
);
background = {
shapes = (
{
ref = H;
}
);
};
layerId = "BE73C5E5-17BA-4B8B-9704-EF1C804AF4CB";
shapes = (
{
closed = 1;
nodes = (
(230,0,l),
(230,560,l),
(405,560,l),
(405,0,l),
(565,0,l),
(565,700,l),
(70,700,l),
(70,0,l)
);
}
);
width = 635;
},
{
anchors = (
{
name = bottomright;
pos = (530,0);
}
);
background = {
shapes = (
{
ref = H;
}
);
};
layerId = "6DBC133B-A4A9-4EFF-965F-6B79E3B68C3E";
shapes = (
{
closed = 1;
nodes = (
(173,0,l),
(173,624,l),
(447,624,l),
(447,0,l),
(530,0,l),
(530,700,l),
(90,700,l),
(90,0,l)
);
}
);
width = 620;
}
);
metricLeft = H;
metricRight = H;
unicode = 1055;
userData = {
com.schriftgestaltung.Glyphs.ColorIndex = 6;
com.schriftgestaltung.Glyphs.leftMetricsKey = H;
com.schriftgestaltung.Glyphs.rightMetricsKey = H;
com.typemytype.robofont.layerData = {
background = {
anchors = (
);
components = (
{
baseGlyph = H;
transformation = (
1,
0,
0,
1,
0,
0
);
}
);
contours = (
);
lib = {
};
name = "Pe-cy";
unicodes = (
);
width = 620;
};
};
public.markColor = "0,0.67,0.91,1";
};
},
{
color = 6;
glyphname = "U-cy";
kernLeft = "U-cy";
kernRight = "U-cy";
lastChange = "2022-04-29 11:57:51 +0000";
layers = (
{
anchors = (
{
name = top;
pos = (263,700);
}
);
background = {
shapes = (
{
pos = (8,0);
ref = "El-cy";
}
);
};
layerId = "BE73C5E5-17BA-4B8B-9704-EF1C804AF4CB";
shapes = (
{
closed = 1;
nodes = (
(265,-12,o),
(322,44,o),
(364,171,cs),
(540,700,l),
(378,700,l),
(298,399,l),
(288,298,ls),
(287,291,o),
(271,291,o),
(270,298,cs),
(260,399,l),
(154,700,l),
(-10,700,l),
(202,165,l),
(192,142,o),
(177,126,o),
(149,126,cs),
(125,126,o),
(107,134,o),
(89,146,c),
(43,20,l),
(72,3,o),
(116,-12,o),
(151,-12,cs)
);
}
);
width = 530;
},
{
anchors = (
{
name = top;
pos = (257,670);
}
);
layerId = "6DBC133B-A4A9-4EFF-965F-6B79E3B68C3E";
shapes = (
{
closed = 1;
nodes = (
(221,-12,o),
(270,24,o),
(308,136,cs),
(497,700,l),
(412,700,l),
(288,291,l),
(275,220,ls),
(274,213,o),
(262,213,o),
(261,220,cs),
(248,291,l),
(100,700,l),
(15,700,l),
(226,136,l),
(211,92,o),
(187,62,o),
(140,62,cs),
(118,62,o),
(97,71,o),
(84,79,c),
(56,12,l),
(79,-4,o),
(109,-12,o),
(139,-12,cs)
);
}
);
width = 507;
}
);
unicode = 1059;
userData = {
com.schriftgestaltung.Glyphs.ColorIndex = 4;
public.markColor = "0.67,0.95,0.38,1";
};
},
{
color = 6;
glyphname = "Ef-cy";
kernLeft = Phi;
kernRight = Phi;
lastChange = "2022-04-29 11:57:51 +0000";
layers = (
{
layerId = "BE73C5E5-17BA-4B8B-9704-EF1C804AF4CB";
shapes = (
{
closed = 1;
nodes = (
(500,-10,l),
(500,67,ls),
(500,77,o),
(506,82,o),
(516,81,cs),
(581,72,l),
(713,94,o),
(778,170,o),
(793,267,cs),
(797,293,o),
(800,322,o),
(800,355,c),
(800,388,o),
(797,417,o),
(793,443,cs),
(778,540,o),
(713,616,o),
(581,638,c),
(516,629,ls),
(506,628,o),
(500,633,o),
(500,643,cs),
(500,710,l),
(340,710,l),
(340,643,ls),
(340,633,o),
(334,628,o),
(324,629,cs),
(259,638,l),
(127,616,o),
(61,540,o),
(47,443,cs),
(43,417,o),
(40,388,o),
(40,355,c),
(40,322,o),
(43,293,o),
(47,267,cs),
(62,170,o),
(127,94,o),
(259,72,c),
(324,81,ls),
(334,82,o),
(340,77,o),
(340,67,cs),
(340,-10,l)
);
},
{
closed = 1;
nodes = (
(261,184,o),
(222,213,o),
(206,275,cs),
(192,327,o),
(192,385,o),
(206,435,cs),
(224,503,o),
(268,526,o),
(340,526,c),
(340,184,l)
);
},
{
closed = 1;
nodes = (
(500,526,l),
(570,526,o),
(619,498,o),
(634,435,cs),
(647,383,o),
(647,325,o),
(634,275,cs),
(618,211,o),
(570,184,o),
(500,184,c)
);
}
);
width = 840;
},
{
layerId = "6DBC133B-A4A9-4EFF-965F-6B79E3B68C3E";
shapes = (
{
closed = 1;
nodes = (
(403,-10,l),
(403,66,ls),
(403,76,o),
(409,82,o),
(419,81,cs),
(484,76,l),
(591,103,o),
(648,179,o),
(662,262,cs),
(667,292,o),
(668,321,o),
(668,350,c),
(668,379,o),
(667,408,o),
(662,438,cs),
(648,521,o),
(591,597,o),
(484,624,c),
(419,619,ls),
(409,618,o),
(403,624,o),
(403,634,cs),
(403,710,l),
(320,710,l),
(320,634,ls),
(320,624,o),
(314,618,o),
(304,619,cs),
(239,624,l),
(132,597,o),
(74,521,o),
(61,438,cs),
(56,408,o),
(55,379,o),
(55,350,c),
(55,321,o),
(56,292,o),
(61,262,cs),
(75,179,o),
(132,103,o),
(239,76,c),
(304,81,ls),
(314,82,o),
(320,76,o),
(320,66,cs),
(320,-10,l)
);
},
{
closed = 1;
nodes = (
(200,137,o),
(154,198,o),
(143,265,cs),
(133,325,o),
(134,371,o),
(142,433,cs),
(150,500,o),
(200,561,o),
(320,561,c),
(320,137,l)
);
},
{
closed = 1;
nodes = (
(403,561,l),
(523,561,o),
(575,500,o),
(581,433,cs),
(587,371,o),
(589,325,o),
(580,265,cs),
(570,198,o),
(523,137,o),
(403,137,c)
);
}
);
width = 723;
}
);
metricLeft = "=O-5";
metricRight = "=O-5";
unicode = 1060;
userData = {
com.schriftgestaltung.Glyphs.ColorIndex = 4;
com.schriftgestaltung.Glyphs.leftMetricsKey = "=O-5";
com.schriftgestaltung.Glyphs.rightMetricsKey = "=O-5";
public.markColor = "0.67,0.95,0.38,1";
};
},
{
color = 6;
glyphname = "Che-cy";
kernLeft = "Che-cy";
kernRight = H;
lastChange = "2022-04-29 11:57:51 +0000";
layers = (
{
anchors = (
{
name = bottomright;
pos = (536,0);
},
{
name = top;
pos = (280,700);
}
);
background = {
shapes = (
{
closed = 1;
nodes = (
(536,0,l),
(536,700,l),
(376,700,l),
(376,446,ls),
(376,404,o),
(342,374,o),
(293,374,cs),
(244,374,o),
(210,404,o),
(210,446,cs),
(210,700,l),
(50,700,l),
(50,434,ls),
(50,303,o),
(144,239,o),
(246,239,cs),
(264,239,o),
(281,240,o),
(298,243,c),
(358,280,ls),
(371,288,o),
(376,283,o),
(376,272,cs),
(376,0,l)
);
},
{
pos = (-6,0);
ref = U;
}
);
};
layerId = "BE73C5E5-17BA-4B8B-9704-EF1C804AF4CB";
shapes = (
{
closed = 1;
nodes = (
(540,0,l),
(540,700,l),
(380,700,l),
(380,400,l),
(363,393,o),
(331,384,o),
(297,384,cs),
(244,384,o),
(210,413,o),
(210,474,cs),
(210,700,l),
(50,700,l),
(50,464,ls),
(50,312,o),
(138,249,o),
(250,249,cs),
(268,249,o),
(285,250,o),
(302,253,c),
(360,279,ls),
(374,285,o),
(380,280,o),
(380,269,cs),
(380,0,l)
);
}
);
width = 610;
},
{
anchors = (
{
name = bottomright;
pos = (489,0);
},
{
name = top;
pos = (275,670);
}
);
background = {
shapes = (
{
pos = (613,0);
ref = P;
scale = (-1,1);
}
);
};
layerId = "6DBC133B-A4A9-4EFF-965F-6B79E3B68C3E";
shapes = (
{
closed = 1;
nodes = (
(489,0,l),
(489,700,l),
(405,700,l),
(405,379,l),
(376,363,o),
(323,350,o),
(265,350,cs),
(190,350,o),
(143,385,o),
(143,469,cs),
(143,700,l),
(60,700,l),
(60,460,ls),
(60,324,o),
(159,275,o),
(256,275,cs),
(279,275,o),
(316,278,o),
(334,283,c),
(385,306,ls),
(396,311,o),
(405,307,o),
(405,294,cs),
(405,0,l)
);
}
);
width = 579;
}
);
metricRight = H;
unicode = 1063;
userData = {
com.schriftgestaltung.Glyphs.ColorIndex = 4;
com.schriftgestaltung.Glyphs.rightMetricsKey = H;
com.typemytype.robofont.layerData = {
background = {
anchors = (
);
components = (
{
baseGlyph = P;
transformation = (
-1,
0,
0,
1,
613,
0
);
}
);
contours = (
);
lib = {
};
name = "Che-cy";
unicodes = (
);
width = 579;
};
};
public.markColor = "0.67,0.95,0.38,1";
};
},
{
color = 3;
glyphname = "Tse-cy";
kernLeft = H;
kernRight = "De-cy";
lastChange = "2022-04-29 11:57:51 +0000";
layers = (
{
layerId = "BE73C5E5-17BA-4B8B-9704-EF1C804AF4CB";
shapes = (
{
closed = 1;
nodes = (
(565,0,l),
(565,700,l),
(405,700,l),
(405,140,l),
(230,140,l),
(230,700,l),
(70,700,l),
(70,0,l)
);
},
{
pos = (431,0);
ref = Descender;
}
);
width = 670;
},
{
layerId = "6DBC133B-A4A9-4EFF-965F-6B79E3B68C3E";
shapes = (
{
closed = 1;
nodes = (
(527,0,l),
(530,700,l),
(447,700,l),
(447,76,l),
(173,76,l),
(173,700,l),
(90,700,l),
(90,0,l)
);
},
{
pos = (461,0);
ref = Descender;
}
);
width = 630;
}
);
metricLeft = H;
metricRight = "De-cy";
unicode = 1062;
userData = {
com.schriftgestaltung.Glyphs.ColorIndex = 6;
com.schriftgestaltung.Glyphs.leftMetricsKey = H;
com.schriftgestaltung.Glyphs.rightMetricsKey = "De-cy";
public.markColor = "0,0.67,0.91,1";
};
},
{
color = 6;
glyphname = "Sha-cy";
kernLeft = H;
kernRight = H;
lastChange = "2022-04-29 11:57:51 +0000";
layers = (
{
layerId = "BE73C5E5-17BA-4B8B-9704-EF1C804AF4CB";
metricLeft = "=H";
metricRight = "=H";
shapes = (
{
closed = 1;
nodes = (
(870,0,l),
(870,700,l),
(710,700,l),
(710,140,l),
(550,140,l),
(550,700,l),
(390,700,l),
(390,140,l),
(230,140,l),
(230,700,l),
(70,700,l),
(70,0,l)
);
}
);
width = 940;
},
{
layerId = "6DBC133B-A4A9-4EFF-965F-6B79E3B68C3E";
metricLeft = "=H";
metricRight = "=H";
shapes = (
{
closed = 1;
nodes = (
(707,0,l),
(707,700,l),
(624,700,l),
(624,76,l),
(440,76,l),
(440,700,l),
(357,700,l),
(357,76,l),
(173,76,l),
(173,700,l),
(90,700,l),
(90,0,l)
);
}
);
width = 797;
}
);
metricLeft = H;
metricRight = H;
unicode = 1064;
userData = {
com.schriftgestaltung.Glyphs.ColorIndex = 6;
com.schriftgestaltung.Glyphs.layer.leftMetricsKey = "==H";
com.schriftgestaltung.Glyphs.layer.rightMetricsKey = "==H";
com.schriftgestaltung.Glyphs.leftMetricsKey = H;
com.schriftgestaltung.Glyphs.rightMetricsKey = H;
public.markColor = "0,0.67,0.91,1";
};
},
{
color = 3;
glyphname = "Shcha-cy";
kernLeft = H;
kernRight = "De-cy";
lastChange = "2022-04-29 11:57:51 +0000";
layers = (
{
layerId = "BE73C5E5-17BA-4B8B-9704-EF1C804AF4CB";
shapes = (
{
closed = 1;
nodes = (
(870,0,l),
(870,700,l),
(710,700,l),
(710,140,l),
(550,140,l),
(550,700,l),
(390,700,l),
(390,140,l),
(230,140,l),
(230,700,l),
(70,700,l),
(70,0,l)
);
},
{
pos = (736,0);
ref = Descender;
}
);
width = 975;
},
{
layerId = "6DBC133B-A4A9-4EFF-965F-6B79E3B68C3E";
shapes = (
{
closed = 1;
nodes = (
(704,0,l),
(707,700,l),
(624,700,l),
(624,76,l),
(440,76,l),
(440,700,l),
(357,700,l),
(357,76,l),
(173,76,l),
(173,700,l),
(90,700,l),
(90,0,l)
);
},
{
pos = (638,0);
ref = Descender;
}
);
width = 807;
}
);
metricLeft = H;
metricRight = "De-cy";
unicode = 1065;
userData = {
com.schriftgestaltung.Glyphs.ColorIndex = 6;
com.schriftgestaltung.Glyphs.leftMetricsKey = H;
com.schriftgestaltung.Glyphs.rightMetricsKey = "De-cy";
public.markColor = "0,0.67,0.91,1";
};
},
{
color = 6;
glyphname = "Dzhe-cy";
kernLeft = H;
kernRight = H;
lastChange = "2022-04-29 11:57:51 +0000";
layers = (
{
layerId = "BE73C5E5-17BA-4B8B-9704-EF1C804AF4CB";
shapes = (
{
closed = 1;
nodes = (
(392,-140,l),
(392,0,l),
(565,0,l),
(565,700,l),
(405,700,l),
(405,140,l),
(230,140,l),
(230,700,l),
(70,700,l),
(70,0,l),
(242,0,l),
(242,-140,l)
);
}
);
width = 635;
},
{
layerId = "6DBC133B-A4A9-4EFF-965F-6B79E3B68C3E";
shapes = (
{
closed = 1;
nodes = (
(343,-140,l),
(343,0,l),
(530,0,l),
(530,700,l),
(447,700,l),
(447,76,l),
(173,76,l),
(173,700,l),
(90,700,l),
(90,0,l),
(270,0,l),
(270,-140,l)
);
}
);
width = 620;
}
);
metricLeft = H;
metricRight = H;
unicode = 1039;
userData = {
com.schriftgestaltung.Glyphs.ColorIndex = 6;
com.schriftgestaltung.Glyphs.leftMetricsKey = H;
com.schriftgestaltung.Glyphs.rightMetricsKey = H;
public.markColor = "0,0.67,0.91,1";
};
},
{
color = 6;
glyphname = "Softsign-cy";
kernLeft = H;
kernRight = "Softsign-cy";
lastChange = "2022-04-29 11:57:51 +0000";
layers = (
{
layerId = "BE73C5E5-17BA-4B8B-9704-EF1C804AF4CB";
shapes = (
{
closed = 1;
nodes = (
(336,0,ls),
(481,0,o),
(571,85,o),
(571,224,cs),
(571,355,o),
(481,440,o),
(336,440,cs),
(230,440,l),
(230,700,l),
(70,700,l),
(70,0,l)
);
},
{
closed = 1;
nodes = (
(230,310,l),
(336,310,ls),
(383,310,o),
(411,273,o),
(411,221,cs),
(411,163,o),
(383,130,o),
(336,130,cs),
(230,130,l)
);
}
);
width = 601;
},
{
layerId = "6DBC133B-A4A9-4EFF-965F-6B79E3B68C3E";
shapes = (
{
closed = 1;
nodes = (
(301,0,ls),
(436,0,o),
(516,76,o),
(516,203,cs),
(516,330,o),
(436,406,o),
(301,406,cs),
(173,406,l),
(173,700,l),
(90,700,l),
(90,0,l)
);
},
{
closed = 1;
nodes = (
(173,336,l),
(301,336,ls),
(385,336,o),
(433,284,o),
(433,203,cs),
(433,122,o),
(385,70,o),
(301,70,cs),
(173,70,l)
);
}
);
width = 546;
}
);
metricLeft = H;
unicode = 1068;
userData = {
com.schriftgestaltung.Glyphs.ColorIndex = 4;
com.schriftgestaltung.Glyphs.leftMetricsKey = H;
public.markColor = "0.67,0.95,0.38,1";
};
},
{
color = 6;
glyphname = "Hardsign-cy";
kernLeft = T;
kernRight = "Softsign-cy";
lastChange = "2022-04-29 11:57:51 +0000";
layers = (
{
layerId = "BE73C5E5-17BA-4B8B-9704-EF1C804AF4CB";
shapes = (
{
closed = 1;
nodes = (
(416,0,ls),
(561,0,o),
(651,85,o),
(651,224,cs),
(651,355,o),
(561,440,o),
(416,440,cs),
(310,440,l),
(310,700,l),
(30,700,l),
(30,580,l),
(150,580,l),
(150,0,l)
);
},
{
closed = 1;
nodes = (
(310,310,l),
(416,310,ls),
(463,310,o),
(491,273,o),
(491,221,cs),
(491,163,o),
(463,130,o),
(416,130,cs),
(310,130,l)
);
}
);
width = 681;
},
{
layerId = "6DBC133B-A4A9-4EFF-965F-6B79E3B68C3E";
shapes = (
{
closed = 1;
nodes = (
(361,0,ls),
(496,0,o),
(576,76,o),
(576,203,cs),
(576,330,o),
(496,406,o),
(361,406,cs),
(233,406,l),
(233,700,l),
(30,700,l),
(30,630,l),
(150,630,l),
(150,0,l)
);
},
{
closed = 1;
nodes = (
(233,336,l),
(361,336,ls),
(445,336,o),
(493,284,o),
(493,203,cs),
(493,122,o),
(445,70,o),
(361,70,cs),
(233,70,l)
);
}
);
width = 606;
}
);
metricRight = "Softsign-cy";
unicode = 1066;
userData = {
com.schriftgestaltung.Glyphs.ColorIndex = 6;
com.schriftgestaltung.Glyphs.rightMetricsKey = "Softsign-cy";
public.markColor = "0,0.67,0.91,1";
};
},
{
color = 3;
glyphname = "Lje-cy";
kernLeft = "El-cy";
kernRight = "Softsign-cy";
lastChange = "2022-04-29 11:57:51 +0000";
layers = (
{
layerId = "BE73C5E5-17BA-4B8B-9704-EF1C804AF4CB";
shapes = (
{
closed = 1;
nodes = (
(160,9,o),
(234,77,o),
(251,184,cs),
(263,277,o),
(267,405,o),
(271,560,c),
(450,560,l),
(450,700,l),
(123,700,l),
(121,492,o),
(116,341,o),
(104,227,cs),
(95,166,o),
(66,130,o),
(10,120,c),
(46,-12,l)
);
},
{
pos = (325,0);
ref = "Softsign-cy";
}
);
width = 926;
},
{
layerId = "6DBC133B-A4A9-4EFF-965F-6B79E3B68C3E";
shapes = (
{
closed = 1;
nodes = (
(130,7,o),
(189,75,o),
(201,184,cs),
(213,292,o),
(217,441,o),
(221,622,c),
(464,622,l),
(464,700,l),
(142,700,l),
(140,482,o),
(134,324,o),
(122,205,cs),
(113,120,o),
(76,73,o),
(10,57,c),
(41,-16,l)
);
},
{
pos = (340,0);
ref = "Softsign-cy";
}
);
width = 886;
}
);
metricLeft = "El-cy";
metricRight = "Softsign-cy";
unicode = 1033;
userData = {
com.schriftgestaltung.Glyphs.ColorIndex = 6;
com.schriftgestaltung.Glyphs.leftMetricsKey = "El-cy";
com.schriftgestaltung.Glyphs.rightMetricsKey = "Softsign-cy";
public.markColor = "0,0.67,0.91,1";
};
},
{
color = 3;
glyphname = "Nje-cy";
kernLeft = H;
kernRight = "Softsign-cy";
lastChange = "2022-04-29 11:57:51 +0000";
layers = (
{
guides = (
{
pos = (627,439);
}
);
layerId = "BE73C5E5-17BA-4B8B-9704-EF1C804AF4CB";
shapes = (
{
closed = 1;
nodes = (
(230,0,l),
(230,300,l),
(410,300,l),
(410,0,l),
(570,0,l),
(570,700,l),
(410,700,l),
(410,440,l),
(230,440,l),
(230,700,l),
(70,700,l),
(70,0,l)
);
},
{
pos = (340,0);
ref = "Softsign-cy";
}
);
width = 941;
},
{
layerId = "6DBC133B-A4A9-4EFF-965F-6B79E3B68C3E";
shapes = (
{
closed = 1;
nodes = (
(173,0,l),
(173,327,l),
(447,327,l),
(447,0,l),
(530,0,l),
(530,700,l),
(447,700,l),
(447,405,l),
(173,405,l),
(173,700,l),
(90,700,l),
(90,0,l)
);
},
{
pos = (357,0);
ref = "Softsign-cy";
}
);
width = 903;
}
);
metricLeft = H;
metricRight = "Softsign-cy";
unicode = 1034;
userData = {
com.schriftgestaltung.Glyphs.ColorIndex = 6;
com.schriftgestaltung.Glyphs.leftMetricsKey = H;
com.schriftgestaltung.Glyphs.rightMetricsKey = "Softsign-cy";
public.markColor = "0,0.67,0.91,1";
};
},
{
color = 6;
glyphname = "E-cy";
kernLeft = O;
kernRight = C;
lastChange = "2022-04-29 11:57:51 +0000";
layers = (
{
background = {
shapes = (
{
ref = C;
}
);
};
layerId = "BE73C5E5-17BA-4B8B-9704-EF1C804AF4CB";
shapes = (
{
closed = 1;
nodes = (
(391,-12,o),
(439,6,o),
(494,40,c),
(447,165,l),
(408,145,o),
(375,129,o),
(317,129,cs),
(254,128,o),
(215,160,o),
(210,216,cs),
(207,268,o),
(205,306,o),
(205,350,cs),
(205,394,o),
(207,433,o),
(210,484,cs),
(214,538,o),
(257,572,o),
(324,572,cs),
(377,572,o),
(406,563,o),
(450,537,c),
(491,668,l),
(435,697,o),
(384,712,o),
(307,712,cs),
(165,712,o),
(60,622,o),
(50,492,cs),
(47,450,o),
(45,395,o),
(45,350,cs),
(45,305,o),
(47,250,o),
(50,208,cs),
(60,78,o),
(169,-12,o),
(317,-12,cs)
);
},
{
closed = 1;
nodes = (
(406,285,l),
(406,415,l),
(118,415,l),
(118,285,l)
);
}
);
width = 524;
},
{
layerId = "6DBC133B-A4A9-4EFF-965F-6B79E3B68C3E";
shapes = (
{
closed = 1;
nodes = (
(365,-12,o),
(424,9,o),
(473,49,c),
(448,119,l),
(406,84,o),
(357,66,o),
(305,66,cs),
(208,66,o),
(153,120,o),
(147,224,cs),
(144,272,o),
(142,308,o),
(142,350,cs),
(142,392,o),
(144,428,o),
(147,476,cs),
(154,580,o),
(208,634,o),
(305,634,cs),
(357,634,o),
(406,616,o),
(448,581,c),
(473,651,l),
(424,691,o),
(365,712,o),
(305,712,cs),
(164,712,o),
(78,637,o),
(66,486,cs),
(63,447,o),
(60,392,o),
(60,350,cs),
(60,308,o),
(63,253,o),
(66,214,cs),
(78,63,o),
(164,-12,o),
(305,-12,cs)
);
},
{
closed = 1;
nodes = (
(396,311,l),
(396,389,l),
(118,389,l),
(118,311,l)
);
}
);
width = 513;
}
);
metricLeft = C;
metricRight = C;
unicode = 1028;
userData = {
com.schriftgestaltung.Glyphs.ColorIndex = 6;
com.schriftgestaltung.Glyphs.leftMetricsKey = C;
com.schriftgestaltung.Glyphs.rightMetricsKey = C;
public.markColor = "0,0.67,0.91,1";
};
},
{
color = 6;
glyphname = "Ereversed-cy";
kernLeft = "Ereversed-cy";
kernRight = O;
lastChange = "2022-04-29 11:57:51 +0000";
layers = (
{
anchors = (
{
name = top;
pos = (242,700);
}
);
background = {
shapes = (
{
closed = 1;
nodes = (
(158,-12,o),
(99,9,o),
(50,49,c),
(75,119,l),
(117,84,o),
(166,66,o),
(218,66,cs),
(315,66,o),
(370,120,o),
(376,224,cs),
(379,272,o),
(381,308,o),
(381,350,cs),
(381,392,o),
(379,428,o),
(376,476,cs),
(369,580,o),
(315,634,o),
(218,634,cs),
(166,634,o),
(117,616,o),
(75,581,c),
(50,651,l),
(99,691,o),
(158,712,o),
(218,712,cs),
(359,712,o),
(445,637,o),
(457,486,cs),
(460,447,o),
(463,392,o),
(463,350,cs),
(463,308,o),
(460,253,o),
(457,214,cs),
(445,63,o),
(359,-12,o),
(218,-12,cs)
);
}
);
};
layerId = "BE73C5E5-17BA-4B8B-9704-EF1C804AF4CB";
shapes = (
{
closed = 1;
nodes = (
(355,-12,o),
(464,78,o),
(474,208,cs),
(477,250,o),
(479,305,o),
(479,350,cs),
(479,395,o),
(477,450,o),
(474,492,cs),
(464,622,o),
(362,712,o),
(224,712,cs),
(147,712,o),
(96,697,o),
(40,668,c),
(81,537,l),
(125,563,o),
(154,572,o),
(207,572,cs),
(270,572,o),
(310,538,o),
(314,484,cs),
(317,433,o),
(319,394,o),
(319,350,cs),
(319,306,o),
(317,268,o),
(314,216,cs),
(309,160,o),
(270,128,o),
(207,129,cs),
(149,129,o),
(116,145,o),
(77,165,c),
(30,40,l),
(85,6,o),
(133,-12,o),
(207,-12,cs)
);
},
{
closed = 1;
nodes = (
(406,285,l),
(406,415,l),
(118,415,l),
(118,285,l)
);
}
);
width = 524;
},
{
anchors = (
{
name = top;
pos = (237,670);
}
);
background = {
shapes = (
{
closed = 1;
nodes = (
(148,-12,o),
(89,9,o),
(40,49,c),
(65,119,l),
(107,84,o),
(156,66,o),
(208,66,cs),
(305,66,o),
(360,120,o),
(366,224,cs),
(369,272,o),
(371,308,o),
(371,350,cs),
(371,392,o),
(369,428,o),
(366,476,cs),
(359,580,o),
(305,634,o),
(208,634,cs),
(156,634,o),
(107,616,o),
(65,581,c),
(40,651,l),
(89,691,o),
(148,712,o),
(208,712,cs),
(349,712,o),
(435,637,o),
(447,486,cs),
(450,447,o),
(453,392,o),
(453,350,cs),
(453,308,o),
(450,253,o),
(447,214,cs),
(435,63,o),
(349,-12,o),
(208,-12,cs)
);
}
);
};
layerId = "6DBC133B-A4A9-4EFF-965F-6B79E3B68C3E";
shapes = (
{
closed = 1;
nodes = (
(349,-12,o),
(435,63,o),
(447,214,cs),
(450,253,o),
(453,308,o),
(453,350,cs),
(453,392,o),
(450,447,o),
(447,486,cs),
(435,637,o),
(353,712,o),
(217,712,cs),
(157,712,o),
(98,691,o),
(49,651,c),
(74,581,l),
(116,616,o),
(165,634,o),
(217,634,cs),
(308,634,o),
(359,580,o),
(366,476,cs),
(369,428,o),
(371,392,o),
(371,350,cs),
(371,308,o),
(369,272,o),
(366,224,cs),
(360,120,o),
(305,66,o),
(208,66,cs),
(156,66,o),
(107,84,o),
(65,119,c),
(40,49,l),
(89,9,o),
(148,-12,o),
(208,-12,cs)
);
},
{
closed = 1;
nodes = (
(395,311,l),
(395,389,l),
(117,389,l),
(117,311,l)
);
}
);
width = 513;
}
);
unicode = 1069;
userData = {
com.schriftgestaltung.Glyphs.ColorIndex = 6;
com.typemytype.robofont.layerData = {
background = {
anchors = (
);
components = (
);
contours = (
{
points = (
{
smooth = 0;
x = 148;
y = -12;
},
{
smooth = 0;
x = 89;
y = 9;
},
{
segmentType = curve;
smooth = 0;
x = 40;
y = 49;
},
{
segmentType = line;
smooth = 0;
x = 65;
y = 119;
},
{
smooth = 0;
x = 107;
y = 84;
},
{
smooth = 0;
x = 156;
y = 66;
},
{
segmentType = curve;
smooth = 1;
x = 208;
y = 66;
},
{
smooth = 0;
x = 305;
y = 66;
},
{
smooth = 0;
x = 360;
y = 120;
},
{
segmentType = curve;
smooth = 1;
x = 366;
y = 224;
},
{
smooth = 0;
x = 369;
y = 272;
},
{
smooth = 0;
x = 371;
y = 308;
},
{
segmentType = curve;
smooth = 1;
x = 371;
y = 350;
},
{
smooth = 0;
x = 371;
y = 392;
},
{
smooth = 0;
x = 369;
y = 428;
},
{
segmentType = curve;
smooth = 1;
x = 366;
y = 476;
},
{
smooth = 0;
x = 359;
y = 580;
},
{
smooth = 0;
x = 305;
y = 634;
},
{
segmentType = curve;
smooth = 1;
x = 208;
y = 634;
},
{
smooth = 0;
x = 156;
y = 634;
},
{
smooth = 0;
x = 107;
y = 616;
},
{
segmentType = curve;
smooth = 0;
x = 65;
y = 581;
},
{
segmentType = line;
smooth = 0;
x = 40;
y = 651;
},
{
smooth = 0;
x = 89;
y = 691;
},
{
smooth = 0;
x = 148;
y = 712;
},
{
segmentType = curve;
smooth = 1;
x = 208;
y = 712;
},
{
smooth = 0;
x = 349;
y = 712;
},
{
smooth = 0;
x = 435;
y = 637;
},
{
segmentType = curve;
smooth = 1;
x = 447;
y = 486;
},
{
smooth = 0;
x = 450;
y = 447;
},
{
smooth = 0;
x = 453;
y = 392;
},
{
segmentType = curve;
smooth = 1;
x = 453;
y = 350;
},
{
smooth = 0;
x = 453;
y = 308;
},
{
smooth = 0;
x = 450;
y = 253;
},
{
segmentType = curve;
smooth = 1;
x = 447;
y = 214;
},
{
smooth = 0;
x = 435;
y = 63;
},
{
smooth = 0;
x = 349;
y = -12;
},
{
segmentType = curve;
smooth = 1;
x = 208;
y = -12;
}
);
}
);
lib = {
};
name = "Ereversed-cy";
unicodes = (
);
width = 513;
};
};
public.markColor = "0,0.67,0.91,1";
};
},
{
color = 3;
glyphname = "Tshe-cy";
kernLeft = T;
kernRight = "Tshe-cy";
lastChange = "2022-04-29 11:57:51 +0000";
layers = (
{
background = {
shapes = (
{
closed = 1;
nodes = (
(669,0,l),
(666,251,ls),
(664,360,o),
(584,435,o),
(467,435,cs),
(336,435,o),
(245,348,o),
(245,221,c),
(335,221,l),
(335,266,o),
(369,294,o),
(419,294,cs),
(471,294,o),
(507,266,o),
(507,221,cs),
(507,0,l)
);
}
);
};
layerId = "BE73C5E5-17BA-4B8B-9704-EF1C804AF4CB";
shapes = (
{
closed = 1;
nodes = (
(665,0,l),
(665,216,ls),
(665,368,o),
(577,431,o),
(465,431,cs),
(447,431,o),
(430,430,o),
(413,427,c),
(355,401,ls),
(341,395,o),
(335,400,o),
(335,411,c),
(335,280,l),
(352,287,o),
(384,296,o),
(418,296,cs),
(471,296,o),
(505,267,o),
(505,206,cs),
(505,0,l)
);
},
{
ref = T;
}
);
width = 725;
},
{
layerId = "6DBC133B-A4A9-4EFF-965F-6B79E3B68C3E";
shapes = (
{
closed = 1;
nodes = (
(630,0,l),
(630,240,ls),
(630,376,o),
(531,425,o),
(434,425,cs),
(411,425,o),
(377,422,o),
(356,416,c),
(305,394,ls),
(294,389,o),
(285,393,o),
(285,406,c),
(285,321,l),
(314,337,o),
(367,350,o),
(425,350,cs),
(500,350,o),
(547,315,o),
(547,231,cs),
(547,0,l)
);
},
{
ref = T;
}
);
width = 710;
}
);
metricLeft = T;
metricRight = h;
unicode = 1035;
userData = {
com.schriftgestaltung.Glyphs.ColorIndex = 6;
com.schriftgestaltung.Glyphs.leftMetricsKey = T;
com.schriftgestaltung.Glyphs.rightMetricsKey = h;
public.markColor = "0,0.67,0.91,1";
};
},
{
color = 6;
glyphname = "Iu-cy";
kernLeft = H;
kernRight = O;
lastChange = "2022-04-29 11:57:51 +0000";
layers = (
{
anchors = (
{
name = top;
pos = (460,700);
}
);
layerId = "BE73C5E5-17BA-4B8B-9704-EF1C804AF4CB";
shapes = (
{
closed = 1;
nodes = (
(649,-12,o),
(717,9,o),
(766,58,cs),
(813,105,o),
(845,166,o),
(845,350,cs),
(845,534,o),
(813,595,o),
(766,642,cs),
(717,691,o),
(649,712,o),
(580,712,cs),
(511,712,o),
(443,691,o),
(394,642,cs),
(347,595,o),
(315,534,o),
(315,350,cs),
(315,166,o),
(347,105,o),
(394,58,cs),
(443,9,o),
(511,-12,o),
(580,-12,cs)
);
},
{
closed = 1;
nodes = (
(230,0,l),
(230,280,l),
(411,280,l),
(411,420,l),
(230,420,l),
(230,700,l),
(70,700,l),
(70,0,l)
);
},
{
closed = 1;
nodes = (
(524,129,o),
(485,166,o),
(481,227,cs),
(478,265,o),
(476,307,o),
(476,350,cs),
(476,393,o),
(478,435,o),
(481,473,cs),
(485,534,o),
(524,571,o),
(580,571,cs),
(636,571,o),
(675,534,o),
(679,473,cs),
(682,435,o),
(684,393,o),
(684,350,cs),
(684,307,o),
(682,265,o),
(679,227,cs),
(675,166,o),
(636,129,o),
(580,129,cs)
);
}
);
width = 890;
},
{
anchors = (
{
name = top;
pos = (453,670);
}
);
layerId = "6DBC133B-A4A9-4EFF-965F-6B79E3B68C3E";
shapes = (
{
closed = 1;
nodes = (
(619,-12,o),
(676,10,o),
(716,51,cs),
(758,95,o),
(790,162,o),
(790,350,c),
(790,538,o),
(759,606,o),
(716,649,cs),
(675,690,o),
(619,712,o),
(547,712,c),
(475,712,o),
(418,690,o),
(378,649,cs),
(336,605,o),
(304,538,o),
(304,350,c),
(304,162,o),
(335,94,o),
(378,51,cs),
(419,10,o),
(475,-12,o),
(547,-12,c)
);
},
{
closed = 1;
nodes = (
(173,0,l),
(173,311,l),
(371,311,l),
(371,389,l),
(173,389,l),
(173,700,l),
(90,700,l),
(90,0,l)
);
},
{
closed = 1;
nodes = (
(448,66,o),
(397,123,o),
(392,214,cs),
(389,272,o),
(386,308,o),
(386,350,c),
(386,392,o),
(388,428,o),
(392,486,cs),
(398,577,o),
(448,634,o),
(547,634,c),
(646,634,o),
(697,577,o),
(702,486,cs),
(705,428,o),
(708,392,o),
(708,350,c),
(708,308,o),
(706,272,o),
(702,214,cs),
(696,123,o),
(646,66,o),
(547,66,c)
);
}
);
width = 850;
}
);
metricLeft = H;
metricRight = O;
unicode = 1070;
userData = {
com.schriftgestaltung.Glyphs.ColorIndex = 6;
com.schriftgestaltung.Glyphs.leftMetricsKey = H;
com.schriftgestaltung.Glyphs.rightMetricsKey = O;
public.markColor = "0,0.67,0.91,1";
};
},
{
color = 6;
glyphname = "Ia-cy";
kernLeft = "Ia-cy";
kernRight = H;
lastChange = "2022-04-29 11:57:51 +0000";
layers = (
{
background = {
shapes = (
{
pos = (612,0);
ref = R;
scale = (-1,1);
}
);
};
layerId = "BE73C5E5-17BA-4B8B-9704-EF1C804AF4CB";
shapes = (
{
closed = 1;
nodes = (
(206,0,l),
(338,265,l),
(382,265,l),
(382,0,l),
(542,0,l),
(542,700,l),
(301,700,ls),
(138,700,o),
(45,620,o),
(45,484,cs),
(45,381,o),
(98,311,o),
(184,285,cs),
(194,282,o),
(199,274,o),
(190,264,cs),
(145,212,l),
(40,0,l)
);
},
{
closed = 1;
nodes = (
(245,395,o),
(203,427,o),
(203,483,cs),
(203,538,o),
(245,570,o),
(316,570,cs),
(382,570,l),
(382,395,l),
(316,395,ls)
);
}
);
width = 612;
},
{
background = {
shapes = (
{
pos = (580,0);
ref = R;
scale = (-1,1);
}
);
};
layerId = "6DBC133B-A4A9-4EFF-965F-6B79E3B68C3E";
shapes = (
{
closed = 1;
nodes = (
(142,0,l),
(275,291,l),
(406,291,l),
(406,0,l),
(489,0,l),
(489,700,l),
(271,700,ls),
(137,700,o),
(56,624,o),
(56,491,cs),
(56,395,o),
(104,326,o),
(190,305,cs),
(199,303,o),
(200,296,o),
(194,286,cs),
(162,233,l),
(50,0,l)
);
},
{
closed = 1;
nodes = (
(185,364,o),
(138,410,o),
(138,491,cs),
(138,580,o),
(189,630,o),
(271,630,cs),
(406,630,l),
(406,364,l),
(261,364,ls)
);
}
);
width = 579;
}
);
unicode = 1071;
userData = {
com.schriftgestaltung.Glyphs.ColorIndex = 4;
com.typemytype.robofont.layerData = {
background = {
anchors = (
);
components = (
{
baseGlyph = R;
transformation = (
-1,
0,
0,
1,
580,
0
);
}
);
contours = (
);
lib = {
};
name = "Ia-cy";
unicodes = (
);
width = 579;
};
};
public.markColor = "0.67,0.95,0.38,1";
};
},
{
color = 3;
glyphname = "Dje-cy";
kernLeft = T;
kernRight = "Dje-cy";
lastChange = "2022-04-29 11:57:51 +0000";
layers = (
{
background = {
shapes = (
{
closed = 0;
nodes = (
(525,199,l),
(525,189,o),
(525,180,o),
(523,170,cs),
(518,141,o),
(488,121,o),
(444,121,cs),
(434,121,o),
(420,123,o),
(411,126,c),
(383,1,l),
(403,-4,o),
(436,-9,o),
(466,-9,cs),
(588,-9,o),
(658,54,o),
(669,142,cs),
(676,173,o),
(676,202,o),
(676,229,cs),
(676,361,o),
(591,435,o),
(467,435,cs),
(350,435,o),
(286,374,o),
(261,288,c),
(335,251,l),
(351,273,o),
(376,294,o),
(419,294,cs),
(482,294,o),
(514,266,o),
(514,212,c)
);
}
);
};
layerId = "BE73C5E5-17BA-4B8B-9704-EF1C804AF4CB";
shapes = (
{
closed = 1;
nodes = (
(604,-9,o),
(676,86,o),
(676,212,cs),
(676,367,o),
(583,431,o),
(465,431,cs),
(447,431,o),
(430,430,o),
(413,427,c),
(355,401,ls),
(341,395,o),
(335,400,o),
(335,411,c),
(335,280,l),
(352,287,o),
(384,296,o),
(418,296,cs),
(476,296,o),
(514,269,o),
(514,212,cs),
(514,164,o),
(494,121,o),
(444,121,cs),
(434,121,o),
(420,123,o),
(411,126,c),
(383,1,l),
(403,-4,o),
(436,-9,o),
(466,-9,cs)
);
},
{
ref = T;
}
);
width = 721;
},
{
background = {
shapes = (
{
ref = T;
}
);
};
layerId = "6DBC133B-A4A9-4EFF-965F-6B79E3B68C3E";
shapes = (
{
closed = 1;
nodes = (
(571,-9,o),
(630,89,o),
(630,211,cs),
(630,369,o),
(529,425,o),
(431,425,cs),
(409,425,o),
(375,421,o),
(356,416,c),
(305,394,ls),
(294,389,o),
(285,393,o),
(285,406,c),
(285,321,l),
(312,337,o),
(357,350,o),
(415,350,cs),
(496,350,o),
(547,309,o),
(547,211,cs),
(547,139,o),
(519,62,o),
(419,62,cs),
(409,62,o),
(395,64,o),
(386,67,c),
(366,1,l),
(379,-4,o),
(399,-9,o),
(419,-9,cs)
);
},
{
ref = T;
}
);
width = 685;
}
);
metricRight = b;
unicode = 1026;
userData = {
com.schriftgestaltung.Glyphs.ColorIndex = 4;
com.schriftgestaltung.Glyphs.rightMetricsKey = b;
com.typemytype.robofont.layerData = {
background = {
anchors = (
);
components = (
{
baseGlyph = T;
transformation = (
1,
0,
0,
1,
0,
0
);
}
);
contours = (
);
lib = {
};
name = "Dje-cy";
unicodes = (
);
width = 685;
};
};
public.markColor = "0.67,0.95,0.38,1";
};
},
{
color = 6;
glyphname = "Omega-cy";
kernLeft = "Omega-cy";
kernRight = "Omega-cy";
lastChange = "2022-04-29 11:57:51 +0000";
layers = (
{
layerId = "BE73C5E5-17BA-4B8B-9704-EF1C804AF4CB";
shapes = (
{
closed = 1;
nodes = (
(670,-12,o),
(769,49,o),
(769,340,cs),
(769,503,o),
(738,629,o),
(716,700,c),
(562,700,l),
(588,601,o),
(610,482,o),
(610,360,cs),
(610,155,o),
(590,124,o),
(540,124,cs),
(480,124,o),
(475,174,o),
(475,245,cs),
(475,480,l),
(334,480,l),
(334,242,ls),
(334,40,o),
(473,-12,o),
(546,-12,cs)
);
},
{
closed = 1;
nodes = (
(344,-12,o),
(475,40,o),
(475,242,cs),
(475,480,l),
(334,480,l),
(334,245,ls),
(334,174,o),
(329,124,o),
(268,124,cs),
(218,124,o),
(198,155,o),
(198,360,cs),
(198,482,o),
(221,601,o),
(247,700,c),
(93,700,l),
(71,629,o),
(40,503,o),
(40,340,cs),
(40,49,o),
(144,-12,o),
(273,-12,cs)
);
},
{
closed = 1;
nodes = (
(334,380,l),
(549,380,l),
(549,510,l),
(256,510,l),
(256,380,l)
);
}
);
width = 809;
},
{
layerId = "6DBC133B-A4A9-4EFF-965F-6B79E3B68C3E";
shapes = (
{
closed = 1;
nodes = (
(668,-12,o),
(729,92,o),
(729,370,cs),
(729,524,o),
(708,633,o),
(686,700,c),
(602,700,l),
(632,591,o),
(647,492,o),
(647,370,cs),
(647,131,o),
(618,67,o),
(536,67,cs),
(450,67,o),
(441,141,o),
(441,245,cs),
(441,480,l),
(358,480,l),
(358,242,ls),
(358,70,o),
(421,-12,o),
(536,-12,cs)
);
},
{
closed = 1;
nodes = (
(381,-12,o),
(441,70,o),
(441,242,cs),
(441,480,l),
(358,480,l),
(358,245,ls),
(358,141,o),
(350,67,o),
(273,67,cs),
(183,67,o),
(152,131,o),
(152,370,cs),
(152,492,o),
(167,591,o),
(197,700,c),
(113,700,l),
(91,633,o),
(70,524,o),
(70,370,cs),
(70,92,o),
(134,-12,o),
(273,-12,cs)
);
},
{
closed = 1;
nodes = (
(358,424,l),
(551,424,l),
(551,500,l),
(248,500,l),
(248,424,l)
);
}
);
width = 799;
}
);
unicode = 1120;
userData = {
com.schriftgestaltung.Glyphs.ColorIndex = 3;
public.markColor = "0.97,1,0,1";
};
},
{
color = 3;
glyphname = "Yat-cy";
kernLeft = "Yat-cy";
kernRight = "Softsign-cy";
lastChange = "2022-04-29 11:57:51 +0000";
layers = (
{
layerId = "BE73C5E5-17BA-4B8B-9704-EF1C804AF4CB";
shapes = (
{
closed = 1;
nodes = (
(400,522,l),
(400,636,l),
(0,636,l),
(0,522,l)
);
},
{
pos = (10,0);
ref = "Softsign-cy";
}
);
width = 611;
},
{
layerId = "6DBC133B-A4A9-4EFF-965F-6B79E3B68C3E";
shapes = (
{
closed = 1;
nodes = (
(391,532,l),
(391,601,l),
(10,601,l),
(10,532,l)
);
},
{
pos = (30,0);
ref = "Softsign-cy";
}
);
width = 576;
}
);
metricRight = "Softsign-cy";
unicode = 1122;
userData = {
com.schriftgestaltung.Glyphs.ColorIndex = 3;
com.schriftgestaltung.Glyphs.rightMetricsKey = "Softsign-cy";
public.markColor = "0.97,1,0,1";
};
},
{
color = 3;
glyphname = "Eiotified-cy";
kernLeft = H;
kernRight = C;
lastChange = "2022-04-29 11:57:51 +0000";
layers = (
{
layerId = "BE73C5E5-17BA-4B8B-9704-EF1C804AF4CB";
shapes = (
{
closed = 1;
nodes = (
(230,0,l),
(230,285,l),
(401,285,l),
(401,415,l),
(230,415,l),
(230,700,l),
(70,700,l),
(70,0,l)
);
},
{
pos = (294,0);
ref = "E-cy";
}
);
width = 818;
},
{
layerId = "6DBC133B-A4A9-4EFF-965F-6B79E3B68C3E";
shapes = (
{
closed = 1;
nodes = (
(173,0,l),
(173,311,l),
(343,311,l),
(343,389,l),
(173,389,l),
(173,700,l),
(90,700,l),
(90,0,l)
);
},
{
pos = (252,0);
ref = "E-cy";
}
);
width = 765;
}
);
metricLeft = H;
metricRight = C;
unicode = 1124;
userData = {
com.schriftgestaltung.Glyphs.ColorIndex = 6;
com.schriftgestaltung.Glyphs.leftMetricsKey = H;
com.schriftgestaltung.Glyphs.rightMetricsKey = C;
public.markColor = "0,0.67,0.91,1";
};
},
